<svg width="1440" height="1024" viewBox="0 0 1440 1024" fill="none" xmlns="http://www.w3.org/2000/svg">
<path d="M122.514 480.311C134.081 357.738 42.991 274.365 -4 248L-0.837145 1029H648L648 941.77C613.66 671.674 476.754 717.142 412.593 773.638C367.56 806.632 259.059 866.292 185.319 840.982C93.1448 809.344 108.055 633.528 122.514 480.311Z" fill="#B5D6C1" fill-opacity="0.18"/>
<path d="M1359.5 323.76C1314.5 449.5 1606.12 397.193 1668.12 401.609L1288.57 -406.458L607.729 -90.06L662.705 35.2537C828.855 298.498 940.614 246.611 980.722 156.758C1012.08 100.596 1057.51 26.91 1147.08 17.1891C1259.04 5.03786 1427.52 133.694 1359.5 323.76Z" fill="#B5D6C1" fill-opacity="0.18"/>
<g opacity="0.65">
<path d="M1754 1112C1754 1311.93 1591.93 1474 1392 1474C1192.07 1474 1030 1311.93 1030 1112C1030 912.073 1192.07 750 1392 750C1591.93 750 1754 912.073 1754 1112Z" fill="#E9EFEB"/>
<circle cx="1392" cy="1134" r="286" fill="#E5E5E5"/>
<circle cx="1392" cy="1134" r="219" fill="#E2E2E2"/>
</g>
<path d="M5.21797 533.738C-7.02044 517.878 -4.19236 496.444 2.15534 478.374C3.22034 475.359 3.89286 472.04 6.17981 469.837C8.46676 467.635 12.4282 466.85 14.7527 468.982C16.6814 470.758 16.8464 473.707 17.4258 476.278C18.2084 479.713 19.943 482.859 22.4309 485.354C24.0587 486.967 26.2646 488.336 28.5157 487.885C31.623 487.297 33.056 483.728 33.9836 480.685L39.1948 463.701C39.9704 460.611 41.2355 457.666 42.9422 454.976C44.7853 452.4 47.7142 450.376 50.8488 450.478C53.9835 450.581 57.0308 453.336 56.7108 456.511C56.4307 457.804 56.0626 459.076 55.6089 460.318C55.3026 461.608 55.4522 463.183 56.535 463.905C57.6177 464.627 59.1135 464.164 60.3057 463.559C64.3925 461.479 67.7538 458.202 70.9651 454.914C74.1764 451.626 77.3755 448.205 81.29 445.759C85.2044 443.313 89.8897 441.88 94.3568 443.021C98.8239 444.162 102.557 448.262 102.315 452.871C102.073 457.48 98.1786 461.039 94.4223 463.658C88.7738 467.518 82.5988 470.544 76.0874 472.644C74.8732 472.89 73.7696 473.518 72.9377 474.436C71.6779 476.284 72.9221 478.864 74.7159 480.147C76.7372 481.612 79.2583 482.146 81.5411 483.173C83.8238 484.199 86.0471 486.035 86.2402 488.553C86.5135 492.042 82.9031 494.478 79.6864 495.798C73.2392 498.46 66.3812 499.991 59.4138 500.323C56.9255 500.439 54.3557 500.413 52.0702 501.415C49.7847 502.417 47.8357 504.807 48.2462 507.284C48.6568 509.762 51.2402 511.324 53.713 511.619C56.1858 511.914 58.6831 511.284 61.1615 511.166C65.8295 510.902 71.1114 512.88 72.6586 517.318C73.0831 518.814 73.155 520.388 72.8688 521.916C72.5826 523.444 71.9461 524.886 71.0092 526.126C69.132 528.587 66.7798 530.646 64.0921 532.181C54.9967 538.038 44.5112 541.379 33.7042 541.863C22.9949 542.175 13.7366 540.273 5.2477 533.742" fill="#EBEBEB"/>
<path d="M1236.58 861.433C1236.58 861.433 1226.37 856.433 1217.75 880.433C1209.13 904.433 1206.43 917.953 1206.43 917.953C1206.43 917.953 1204 923.053 1200.36 920.383C1196.72 917.713 1191.18 909.523 1185.87 911.793C1180.36 914.153 1179.29 920.793 1181.57 930.003C1183.85 939.213 1188.1 959.643 1188.48 961.493C1188.86 963.343 1188.14 966.133 1185.37 964.713C1182.6 963.293 1165.9 948.843 1159.52 957.183C1153.14 965.523 1163.71 990.183 1164.82 992.913C1165.93 995.643 1165.52 996.913 1164.27 997.773C1163.02 998.633 1157.87 993.253 1152.95 989.343C1148.03 985.433 1141.63 981.753 1138.36 986.873C1135.09 991.993 1136.28 1011.36 1158.53 1040.25L1169.67 1052.91L1186.4 1049.84C1221.79 1041.08 1234.79 1026.67 1235.4 1020.62C1236.01 1014.57 1228.73 1013.47 1222.45 1013.47C1216.17 1013.47 1208.77 1014.47 1208.33 1013.02C1207.89 1011.57 1208.38 1010.32 1210.93 1008.88C1213.48 1007.44 1237.13 994.713 1237.33 984.213C1237.53 973.713 1215.46 974.623 1212.41 974.013C1209.36 973.403 1210.56 970.753 1211.98 969.563C1213.4 968.373 1229.46 955.023 1236.98 949.213C1244.5 943.403 1247.79 937.563 1244.98 932.293C1242.24 927.203 1232.8 930.153 1228.3 929.983C1223.8 929.813 1225.06 924.303 1225.06 924.303C1225.06 924.303 1231.38 912.033 1239.56 887.893C1247.74 863.753 1236.33 861.343 1236.33 861.343" fill="#E0E0E0"/>
<path d="M1274.12 501.296L1277.3 502.516V495.516C1277.3 489.956 1281.73 488.626 1286.54 491.406C1291.36 494.186 1295.26 500.936 1295.26 506.496V507.496C1295.93 507.291 1296.64 507.24 1297.33 507.348C1298.02 507.455 1298.68 507.718 1299.26 508.116C1301.09 509.307 1302.61 510.912 1303.7 512.8C1304.79 514.689 1305.41 516.808 1305.53 518.986V519.446L1309.97 522.006C1311.17 522.79 1312.17 523.846 1312.89 525.088C1313.61 526.33 1314.02 527.723 1314.1 529.156C1314.1 531.796 1312.25 532.866 1309.97 531.546L1274.12 510.836C1272.92 510.053 1271.92 508.998 1271.2 507.755C1270.49 506.512 1270.07 505.118 1270 503.686C1270 501.056 1271.83 499.986 1274.12 501.296Z" fill="#E6E6E6"/>
<path d="M1316.71 495.756L1322.48 499.086C1322.45 498.834 1322.43 498.58 1322.43 498.326V496.656C1322.43 493.656 1324.51 492.476 1327.09 493.966C1328.2 494.645 1329.15 495.555 1329.87 496.636C1330.29 492.896 1333.23 491.506 1336.79 493.556C1338.82 494.879 1340.52 496.664 1341.73 498.764C1342.95 500.865 1343.66 503.222 1343.79 505.646V508.146C1343.82 509.145 1343.61 510.136 1343.2 511.046L1348 513.806C1348.75 514.302 1349.37 514.967 1349.81 515.746C1350.26 516.526 1350.51 517.399 1350.56 518.296C1350.56 519.946 1349.4 520.616 1347.97 519.796L1316.71 501.796C1315.95 501.303 1315.33 500.639 1314.88 499.857C1314.42 499.074 1314.17 498.197 1314.12 497.296C1314.12 495.606 1315.28 494.936 1316.71 495.756Z" fill="#E6E6E6"/>
</svg>
