<svg width="48" height="48" viewBox="0 0 48 48" fill="none" xmlns="http://www.w3.org/2000/svg">
<path d="M10 38H12.85L32.4 18.45L29.55 15.6L10 35.15V38ZM6 42V33.5L32.4 7.15C32.8 6.78333 33.242 6.5 33.726 6.3C34.21 6.1 34.718 6 35.25 6C35.782 6 36.2987 6.1 36.8 6.3C37.3013 6.5 37.7347 6.8 38.1 7.2L40.85 10C41.25 10.3667 41.542 10.8 41.726 11.3C41.91 11.8 42.0013 12.3 42 12.8C42 13.3333 41.9087 13.842 41.726 14.326C41.5433 14.81 41.2513 15.2513 40.85 15.65L14.5 42H6ZM30.95 17.05L29.55 15.6L32.4 18.45L30.95 17.05Z" fill="#4D9267"/>
</svg>
