<svg width="62" height="62" viewBox="0 0 62 62" fill="none" xmlns="http://www.w3.org/2000/svg">
<path fill-rule="evenodd" clip-rule="evenodd" d="M31.0004 10.3333C27.3856 10.3326 23.834 11.2801 20.6999 13.081C17.5657 14.8819 14.9588 17.4734 13.1392 20.5968C11.3197 23.7201 10.3511 27.2661 10.3302 30.8807C10.3094 34.4953 11.2369 38.0522 13.0204 41.1964C14.2258 39.6298 15.7753 38.3614 17.5492 37.4892C19.323 36.6171 21.2737 36.1646 23.2504 36.1666H38.7504C40.727 36.1646 42.6777 36.6171 44.4515 37.4892C46.2254 38.3614 47.7749 39.6298 48.9803 41.1964C50.7638 38.0522 51.6913 34.4953 51.6705 30.8807C51.6496 27.2661 50.681 23.7201 48.8615 20.5968C47.0419 17.4734 44.435 14.8819 41.3008 13.081C38.1667 11.2801 34.6151 10.3326 31.0004 10.3333ZM51.5198 46.6963C51.8435 46.2744 52.1535 45.8421 52.4498 45.3995C55.3137 41.1439 56.8404 36.1295 56.8337 31C56.8337 16.7322 45.2681 5.16663 31.0004 5.16663C16.7326 5.16663 5.16702 16.7322 5.16702 31C5.15888 36.6749 7.02712 42.1934 10.4809 46.6963L10.468 46.7428L11.3851 47.8097C13.808 50.6424 16.8163 52.916 20.2026 54.4738C23.589 56.0316 27.2729 56.8366 31.0004 56.8333C31.5584 56.8333 32.1129 56.8161 32.664 56.7816C37.3254 56.4877 41.8185 54.9292 45.6608 52.2737C47.4983 51.0061 49.1638 49.5055 50.6156 47.8097L51.5327 46.7428L51.5198 46.6963ZM31.0004 15.5C28.9449 15.5 26.9737 16.3165 25.5203 17.7699C24.0669 19.2233 23.2504 21.1945 23.2504 23.25C23.2504 25.3054 24.0669 27.2766 25.5203 28.73C26.9737 30.1834 28.9449 31 31.0004 31C33.0558 31 35.027 30.1834 36.4804 28.73C37.9338 27.2766 38.7504 25.3054 38.7504 23.25C38.7504 21.1945 37.9338 19.2233 36.4804 17.7699C35.027 16.3165 33.0558 15.5 31.0004 15.5Z" fill="#526E5D"/>
</svg>
