<svg width="737" height="745" viewBox="0 0 737 745" fill="none" xmlns="http://www.w3.org/2000/svg">
<path d="M546.151 156.915C545.098 160.052 543.285 162.88 540.874 165.146C538.463 167.413 535.529 169.047 532.332 169.904H532.231C529.44 170.601 526.609 171.128 523.754 171.482L522.358 171.664C512.687 172.797 502.773 172.575 493.081 173.971L491.625 174.193C486.813 175.167 481.938 175.803 477.037 176.095C475.943 176.115 474.849 176.075 473.76 175.974C469.426 175.758 465.277 174.155 461.924 171.401C457.655 167.597 455.854 161.932 454.741 156.227C457.655 155.337 460.885 154.318 464.433 153.172C490.168 144.715 462.086 130.552 471.19 107.932C483.916 76.2889 535.933 78.5145 535.043 100.102C551.33 104.169 553.657 135.347 546.151 156.915Z" fill="#263238"/>
<path d="M474.486 118.999C473.293 123.936 472.908 129.116 471.128 133.85C469.347 138.584 465.766 143.116 460.789 144.128C468.275 147.446 477.541 143.784 482.599 137.35C487.658 130.916 489.276 122.358 489.438 114.144C489.438 112.242 489.782 109.956 488.447 108.62C478.877 99.1111 475.66 114.063 474.486 118.999Z" fill="#263238"/>
<path d="M467.289 203.489L465.265 205.31L463.667 206.726C462.494 207.779 461.34 208.75 460.147 209.68C457.779 211.562 455.392 213.444 452.944 215.184C452.438 215.527 451.932 215.892 451.447 216.195C450.965 216.558 450.465 216.895 449.949 217.207L448.756 218.016C445.074 220.444 441.351 222.71 437.527 224.855C434.748 226.379 431.936 227.795 429.09 229.103C426.419 230.358 423.688 231.511 420.997 232.563L416.667 234.121C415.19 234.627 413.713 235.031 412.277 235.517L410.051 236.185L407.644 236.792C406.066 237.156 404.467 237.52 402.93 237.763C390.908 239.502 378.707 239.625 366.653 238.127C360.786 237.5 354.959 236.63 349.213 235.638C345.166 234.93 341.12 234.101 337.073 233.109C335.394 232.725 333.695 232.28 331.995 231.815L333.755 222.75L338.611 223.175C342.658 223.499 346.603 223.802 350.568 223.985C356.173 224.248 361.777 224.551 367.361 224.551C378.175 224.78 388.981 223.837 399.591 221.739C400.825 221.456 402.039 221.112 403.233 220.768L404.973 220.201L406.834 219.493C408.048 219.007 409.262 218.643 410.557 218.057L414.138 216.438C418.981 214.196 423.708 211.711 428.301 208.992C431.477 207.111 434.613 205.088 437.689 202.923L439.53 201.628C439.894 201.385 440.278 201.122 440.643 200.839L441.816 200.009L442.18 199.746C444.204 198.269 446.227 196.691 448.25 195.113L451.325 192.564L454.178 190.095L463.768 199.969L467.289 203.489Z" fill="#FFC3BD"/>
<path d="M340.667 223.803L322.6 218.198L325.897 236.165C325.897 236.165 335.569 236.165 340.181 230.52L340.667 223.803Z" fill="#FFC3BD"/>
<path d="M309.999 221.881L313.439 233.575L325.942 236.165L322.644 218.198L309.999 221.881Z" fill="#FFC3BD"/>
<path d="M324.223 223.256C322.301 220.092 321.248 216.477 321.168 212.776C321.35 207.961 324.081 208.305 324.081 208.305C324.081 208.305 323.576 214.03 331.062 223.681L331.244 223.944L324.223 223.256Z" fill="#FFC3BD"/>
<path d="M480.411 198.613C478.853 203.307 473.006 207.698 466.875 211.158C462.187 213.766 457.319 216.038 452.308 217.956L450.669 218.563L449.941 217.308L440.735 201.021L439.218 198.33L440.553 196.975C446.742 190.77 453.518 185.18 460.785 180.283C464.589 177.977 468.109 176.58 470.517 177.147C481.544 179.555 483.527 189.388 480.411 198.613Z" fill="#6ED093"/>
<path opacity="0.3" d="M480.411 198.613C478.853 203.307 473.006 207.698 466.875 211.158C462.187 213.766 457.319 216.038 452.308 217.956L450.669 218.563L449.941 217.308L440.735 201.021L439.218 198.33L440.553 196.975C446.742 190.77 453.518 185.18 460.785 180.283C464.589 177.977 468.109 176.58 470.517 177.147C481.544 179.555 483.527 189.388 480.411 198.613Z" fill="black"/>
<path d="M452.37 217.854C452.475 218.21 452.452 218.592 452.304 218.932C452.156 219.273 451.893 219.55 451.56 219.716C451.201 219.903 450.786 219.951 450.393 219.85C450.001 219.749 449.66 219.507 449.436 219.169L448.809 218.016L439.684 201.709L438.065 198.816C437.961 198.63 437.895 198.425 437.87 198.214C437.846 198.002 437.863 197.788 437.921 197.583C437.979 197.378 438.077 197.187 438.21 197.02C438.342 196.853 438.506 196.714 438.693 196.61C438.82 196.539 438.956 196.485 439.097 196.448C439.362 196.391 439.638 196.4 439.899 196.474C440.16 196.548 440.399 196.685 440.594 196.873C440.705 196.982 440.8 197.104 440.878 197.237L442.314 199.827L451.479 216.195L452.248 217.571C452.279 217.669 452.32 217.764 452.37 217.854Z" fill="#6ED093"/>
<path d="M551.229 175.002C557.683 177.977 558.472 179.676 557.46 184.35C555.437 193.394 553.859 201.406 552.524 208.629C552.2 210.369 551.896 212.068 551.593 213.707C551.593 214.01 551.492 214.314 551.431 214.638C551.431 214.961 551.31 215.245 551.249 215.548C551.188 215.851 551.087 216.519 550.986 216.985C544.613 231.673 542.003 249.538 543.642 275.861C543.783 277.884 543.803 279.907 543.905 281.93H537.309H515.66H512.362L487.072 282.092H483.794H476.612C476.43 280.959 476.248 279.887 476.066 278.794C474.204 267.788 472.667 257.935 471.372 249.194C470.643 244.197 469.976 239.544 469.348 235.234C469.348 235.234 458.544 221.901 462.49 213.727C464.816 208.932 465.889 179.595 466.293 178.321C466.698 177.046 467.042 177.066 467.042 177.066C469.065 176.641 471.088 176.216 473.01 175.852C478.905 174.652 484.826 173.654 490.774 172.858C492.798 172.575 494.922 172.312 497.006 172.089C505.19 171.445 513.403 171.256 521.608 171.522C522.135 171.522 522.62 171.522 523.146 171.522C525.169 171.522 527.193 171.684 529.216 171.806C531.603 171.927 533.991 172.129 536.358 172.332C539.536 172.499 542.703 172.83 545.847 173.323L551.229 175.002Z" fill="#6ED093"/>
<path d="M517.985 136.177C516.286 146.596 514.91 165.635 522.396 172.291C522.396 172.291 518.552 194.749 499.614 198.148C490.469 195.842 490.227 173.404 490.227 173.404C501.597 170.228 497.793 158.857 498.603 147.345L517.985 136.177Z" fill="#FFC3BD"/>
<path opacity="0.2" d="M496.38 136.177C498.403 144.431 500.426 158.27 497.513 167.112C503.583 165.837 512.566 161.042 513.82 155.681C514.188 152.057 514.262 148.411 514.043 144.775L496.38 136.177Z" fill="black"/>
<path d="M531.7 122.56C529.413 139.738 528.827 147.062 519.56 155.296C505.519 167.699 484.923 161.143 482.009 143.663C479.379 127.881 483.526 102.449 500.906 96.7641C504.729 95.5029 508.811 95.2376 512.766 95.9934C516.72 96.7492 520.417 98.5012 523.505 101.084C526.594 103.666 528.973 106.994 530.418 110.752C531.862 114.51 532.324 118.574 531.76 122.56H531.7Z" fill="#FFC3BD"/>
<path d="M527.579 101.984C516.997 113.577 483.392 115.742 478.293 112.545C488.611 98.16 504.595 90.0266 513.598 91.9082C519.355 93.4001 524.343 96.9951 527.579 101.984Z" fill="#263238"/>
<path d="M534.777 100.082H534.636L534.353 100.467L534.777 100.082Z" fill="#263238"/>
<path d="M535.038 99.819L534.735 100.081C534.804 100.068 534.868 100.036 534.922 99.9903C534.975 99.9443 535.015 99.8853 535.038 99.819Z" fill="#263238"/>
<path d="M534.635 100.082V99.9608L534.353 100.082C534.353 100.082 534.574 100.082 534.635 100.082Z" fill="#263238"/>
<path d="M535.789 88.7114C536.64 90.5093 536.989 92.5035 536.8 94.4835C536.611 96.4634 535.892 98.3557 534.717 99.9606C535.801 99.5276 536.746 98.8042 537.446 97.8696C538.146 96.9351 538.575 95.8257 538.686 94.6632C538.797 93.5007 538.585 92.3302 538.074 91.2802C537.563 90.2302 536.772 89.3414 535.789 88.7114Z" fill="#263238"/>
<path d="M536.739 139.495C535.815 140.888 534.624 142.085 533.235 143.015C531.846 143.946 530.286 144.592 528.646 144.917C524.276 145.747 522.455 141.781 523.972 137.856C525.328 134.295 529.253 129.763 533.461 130.512C534.932 130.867 536.202 131.79 536.995 133.079C537.787 134.368 538.037 135.918 537.69 137.391C537.517 138.149 537.193 138.864 536.739 139.495Z" fill="#FFC3BD"/>
<path d="M521.244 103.319C518.655 106.374 518.918 110.744 518.978 114.75C519.14 126.485 520.536 141.214 511.573 146.353C522.175 143.399 530.652 138.402 536.054 128.812C540.323 121.225 540.101 116.673 536.864 108.58C534.436 102.469 527.132 96.4402 521.244 103.319Z" fill="#263238"/>
<path opacity="0.1" d="M536.578 186.737C536.578 186.737 535.849 218.279 538.601 232.26C541.352 246.24 543.517 242.761 543.517 242.761C543.517 242.761 544.873 221.051 547.564 215.002C550.255 208.952 536.578 186.737 536.578 186.737Z" fill="black"/>
<path d="M567.268 212.938C567.086 215.083 566.965 217.693 566.843 220.1C566.722 222.508 566.661 225.037 566.661 227.505C566.661 232.462 566.661 237.439 567.045 242.356C567.626 252.095 569.136 261.756 571.557 271.207C572.205 273.453 572.872 275.82 573.58 277.985C574.289 280.15 575.26 282.396 576.211 284.641C578.234 289.133 580.399 293.705 582.705 298.238C587.338 307.322 592.255 316.447 597.131 325.551L589.362 331.014C582.36 322.978 575.86 314.518 569.898 305.683C566.884 301.272 564.011 296.74 561.34 291.885C560.005 289.457 558.71 286.988 557.536 284.277C556.363 281.566 555.513 278.976 554.501 276.306C551.063 265.747 548.876 254.821 547.987 243.752C547.461 238.292 547.218 232.808 547.258 227.323C547.258 224.572 547.258 221.881 547.461 219.129C547.663 216.378 547.764 213.747 548.108 210.713L567.268 212.938Z" fill="#FFC3BD"/>
<path d="M594.643 323.588L607.794 332.794L591.689 343.072C591.689 343.072 584.547 333.361 587.743 323.487L594.643 323.588Z" fill="#FFC3BD"/>
<path d="M612.27 347.948L598.471 355.232L591.754 343.092L607.798 332.794L612.27 347.948Z" fill="#FFC3BD"/>
<path d="M570.393 189.57C573.427 212.371 566.589 216.074 566.589 216.074L545.244 218.097C545.244 218.097 534.743 186.312 540.934 178.543C547.388 170.45 568.916 178.502 570.393 189.57Z" fill="#6ED093"/>
<path opacity="0.3" d="M570.393 189.57C573.427 212.371 566.589 216.074 566.589 216.074L545.244 218.097C545.244 218.097 534.743 186.312 540.934 178.543C547.388 170.45 568.916 178.502 570.393 189.57Z" fill="black"/>
<path d="M568.608 215.75C568.648 216.19 568.513 216.627 568.233 216.968C567.953 217.308 567.55 217.525 567.111 217.571L545.422 219.594C544.985 219.634 544.55 219.498 544.212 219.218C543.875 218.937 543.662 218.534 543.621 218.097C543.576 217.665 543.704 217.233 543.977 216.895C544.25 216.558 544.646 216.342 545.078 216.297L566.767 214.273C567.207 214.228 567.646 214.357 567.991 214.634C568.336 214.91 568.557 215.311 568.608 215.75Z" fill="#6ED093"/>
<path d="M476.002 278.916L473.048 285.37C472.805 285.876 473.352 286.381 474.222 286.321L543.841 283.164C544.488 283.164 545.014 282.8 545.035 282.416L545.46 276.063C545.46 275.618 544.913 275.254 544.205 275.274L477.155 278.288C476.925 278.285 476.698 278.341 476.496 278.451C476.294 278.56 476.124 278.721 476.002 278.916Z" fill="#263238"/>
<path d="M485.959 286.563H484.057C483.673 286.563 483.369 286.402 483.39 286.179L483.997 277.904C483.997 277.681 484.341 277.459 484.725 277.439H486.647C487.011 277.439 487.335 277.621 487.294 277.843L486.708 286.118C486.648 286.263 486.542 286.385 486.407 286.465C486.272 286.545 486.115 286.58 485.959 286.563Z" fill="#6ED093"/>
<path d="M538.886 284.641H536.984C536.599 284.641 536.296 284.479 536.296 284.237L536.903 275.962C536.903 275.739 537.247 275.496 537.631 275.496H539.654C539.726 275.471 539.803 275.463 539.878 275.472C539.954 275.481 540.027 275.507 540.091 275.548C540.155 275.589 540.209 275.643 540.249 275.708C540.289 275.773 540.314 275.846 540.322 275.921L539.735 284.196C539.614 284.419 539.27 284.621 538.886 284.641Z" fill="#6ED093"/>
<path d="M514.607 285.612H512.685C512.614 285.638 512.538 285.646 512.464 285.637C512.389 285.628 512.318 285.602 512.255 285.561C512.192 285.52 512.14 285.465 512.102 285.4C512.064 285.335 512.042 285.262 512.037 285.187L512.624 276.933C512.624 276.71 512.988 276.488 513.372 276.467H515.274C515.659 276.467 515.962 276.649 515.942 276.892L515.335 285.167C515.315 285.41 514.93 285.612 514.607 285.612Z" fill="#6ED093"/>
<path d="M505.198 125.555C505.096 126.951 504.247 128.003 503.356 127.962C502.466 127.922 501.758 126.728 501.859 125.312C501.96 123.896 502.79 122.864 503.7 122.904C504.611 122.945 505.279 124.159 505.198 125.555Z" fill="#263238"/>
<path d="M489.313 124.442C489.192 125.838 488.383 126.91 487.472 126.87C486.562 126.829 485.874 125.615 485.995 124.199C486.117 122.783 486.906 121.731 487.816 121.771C488.727 121.812 489.475 123.005 489.313 124.442Z" fill="#263238"/>
<path d="M488.22 121.872L484.942 120.76C484.942 120.76 486.48 123.349 488.22 121.872Z" fill="#263238"/>
<path d="M493.339 127.153C491.858 130.265 489.967 133.164 487.714 135.772C488.393 136.327 489.184 136.728 490.032 136.948C490.881 137.168 491.767 137.202 492.63 137.047L493.339 127.153Z" fill="#ED847E"/>
<path d="M499.802 142.793C498.94 142.874 498.073 142.874 497.212 142.793C497.167 142.79 497.123 142.779 497.082 142.759C497.041 142.739 497.005 142.712 496.975 142.678C496.944 142.644 496.921 142.605 496.907 142.562C496.892 142.519 496.886 142.474 496.888 142.429C496.898 142.339 496.941 142.257 497.008 142.197C497.076 142.137 497.163 142.104 497.252 142.105C499.011 142.273 500.785 142.021 502.427 141.37C504.07 140.72 505.534 139.689 506.701 138.362C506.72 138.323 506.747 138.288 506.78 138.259C506.813 138.231 506.852 138.209 506.893 138.196C506.935 138.183 506.979 138.178 507.022 138.182C507.066 138.187 507.108 138.199 507.146 138.22C507.186 138.233 507.222 138.254 507.252 138.283C507.283 138.311 507.307 138.346 507.322 138.385C507.337 138.423 507.344 138.465 507.342 138.506C507.339 138.548 507.328 138.588 507.308 138.625C505.452 140.948 502.755 142.446 499.802 142.793Z" fill="#263238"/>
<path d="M511.732 116.045C511.614 116.054 511.496 116.035 511.387 115.989C511.278 115.943 511.181 115.872 511.105 115.782C510.476 114.924 509.649 114.23 508.694 113.762C507.739 113.293 506.685 113.063 505.622 113.091C505.437 113.103 505.255 113.041 505.115 112.92C504.975 112.799 504.888 112.628 504.873 112.444C504.865 112.355 504.874 112.265 504.902 112.179C504.929 112.094 504.973 112.014 505.032 111.946C505.09 111.878 505.162 111.823 505.243 111.783C505.323 111.744 505.411 111.721 505.5 111.716C506.791 111.668 508.074 111.936 509.237 112.496C510.401 113.057 511.41 113.893 512.177 114.932C512.234 115.001 512.276 115.08 512.302 115.166C512.328 115.251 512.336 115.341 512.327 115.429C512.317 115.518 512.29 115.604 512.247 115.682C512.204 115.76 512.146 115.828 512.076 115.883C511.976 115.965 511.858 116.021 511.732 116.045Z" fill="#263238"/>
<path d="M483.609 114.467C483.493 114.497 483.371 114.498 483.254 114.47C483.138 114.442 483.03 114.385 482.941 114.305C482.812 114.176 482.74 114.002 482.74 113.82C482.74 113.638 482.812 113.463 482.941 113.334C483.808 112.377 484.894 111.646 486.107 111.201C487.319 110.757 488.621 110.614 489.901 110.785C490.075 110.81 490.232 110.903 490.338 111.043C490.444 111.183 490.49 111.359 490.467 111.534C490.453 111.621 490.421 111.705 490.373 111.78C490.325 111.855 490.261 111.919 490.187 111.968C490.113 112.018 490.03 112.051 489.942 112.067C489.855 112.083 489.765 112.08 489.678 112.06C488.624 111.943 487.557 112.078 486.565 112.454C485.573 112.831 484.684 113.437 483.973 114.224C483.877 114.339 483.751 114.423 483.609 114.467Z" fill="#263238"/>
<path d="M443.997 637.068C443.511 636.926 442.075 636.542 440.436 636.198C437.786 635.672 434.569 635.267 433.598 636.198C433.444 636.338 433.335 636.52 433.284 636.721C433.234 636.923 433.244 637.135 433.314 637.331C433.386 637.702 433.541 638.052 433.769 638.354C433.997 638.656 434.292 638.901 434.629 639.071C435.951 639.61 437.408 639.723 438.797 639.395C440.304 639.099 441.78 638.665 443.208 638.1C443.481 637.971 443.745 637.822 443.997 637.655C444.063 637.632 444.119 637.587 444.155 637.529C444.192 637.47 444.208 637.4 444.199 637.331C444.192 637.273 444.17 637.218 444.134 637.171C444.099 637.125 444.051 637.089 443.997 637.068ZM434.933 638.403C434.678 638.285 434.455 638.108 434.282 637.886C434.11 637.664 433.993 637.405 433.942 637.129C433.913 637.044 433.91 636.954 433.931 636.868C433.953 636.782 433.999 636.704 434.063 636.643C434.281 636.464 434.55 636.358 434.832 636.339C437.566 636.236 440.3 636.577 442.925 637.351C440.8 638.201 436.835 639.395 434.953 638.403H434.933Z" fill="#6ED093"/>
<path d="M466.153 641.6L449.421 642.551L445.88 600.589L462.592 599.618L466.153 641.6Z" fill="#FFC3BD"/>
<path d="M581.086 613.012L564.86 619.264L550.92 581.105L567.146 574.874L581.086 613.012Z" fill="#FFC3BD"/>
<path d="M564.299 617.787L579.574 605.526C579.829 605.302 580.156 605.179 580.495 605.179C580.833 605.179 581.16 605.302 581.415 605.526L594.485 617.362C595.008 617.885 595.301 618.595 595.301 619.334C595.301 620.074 595.008 620.784 594.485 621.307C594.414 621.391 594.332 621.466 594.242 621.53C588.861 625.718 586.028 627.458 579.372 632.88C575.325 636.279 565.209 646.011 559.402 650.583C553.596 655.156 547.162 648.56 549.286 646.213C558.128 635.328 561.628 626.304 562.801 620.417C562.99 619.397 563.518 618.47 564.299 617.787Z" fill="#263238"/>
<path d="M447.255 634.478L467.669 631.099C468.05 631.038 468.441 631.104 468.781 631.287C469.121 631.47 469.391 631.759 469.551 632.111L476.673 647.548C476.958 648.169 476.989 648.877 476.758 649.52C476.527 650.163 476.053 650.69 475.438 650.988C475.208 651.095 474.962 651.163 474.71 651.19C467.528 652.444 464.108 652.91 455.125 654.447C449.581 655.358 433.699 660.639 426.011 659.769C418.322 658.899 417.776 651.15 420.973 650.826C435.257 649.288 441.003 640.831 444.604 636.097C445.249 635.239 446.197 634.66 447.255 634.478Z" fill="#263238"/>
<path opacity="0.2" d="M445.852 600.609L447.693 622.238L464.566 622.986L462.584 599.638L445.852 600.609Z" fill="black"/>
<path opacity="0.2" d="M568.828 579.386L552.602 585.617L559.804 605.283L576.01 599.052L568.828 579.386Z" fill="black"/>
<path d="M475.17 285.43C475.17 285.43 434.099 376.921 432.338 453.096C431.165 504.121 439.946 609.916 439.946 609.916L469.424 616.128C469.424 616.128 471.002 507.723 474.766 465.862C481.22 394.22 527.127 283.589 527.127 283.589L475.17 285.43Z" fill="#6ED093"/>
<path opacity="0.4" d="M475.17 285.43C475.17 285.43 434.099 376.921 432.338 453.096C431.165 504.121 439.946 609.916 439.946 609.916L469.424 616.128C469.424 616.128 471.002 507.723 474.766 465.862C481.22 394.22 527.127 283.589 527.127 283.589L475.17 285.43Z" fill="white"/>
<path opacity="0.2" d="M500.34 319.279L505.843 340.24C496.761 366.299 488.989 392.796 482.556 419.631C476.162 379.774 492.692 337.164 500.34 319.279Z" fill="black"/>
<path d="M434.445 614.671L471.875 617.544L472.401 603.3L433.049 601.682L434.445 614.671Z" fill="#6ED093"/>
<path d="M490.675 285.046C490.675 285.046 482.298 389.081 497.675 455.665C510.098 509.443 554.589 597.109 554.589 597.109L574.821 584.181C574.821 584.181 558.959 515.735 548.822 479.559C523.957 390.821 568.751 340.28 545.99 282.82L490.675 285.046Z" fill="#6ED093"/>
<path opacity="0.4" d="M490.675 285.046C490.675 285.046 482.298 389.081 497.675 455.665C510.098 509.443 554.589 597.109 554.589 597.109L574.821 584.181C574.821 584.181 558.959 515.735 548.822 479.559C523.957 390.821 568.751 340.28 545.99 282.82L490.675 285.046Z" fill="white"/>
<path d="M550.679 600.63L579.065 590.412L576.577 578.556L545.055 590.979L550.679 600.63Z" fill="#6ED093"/>
<path d="M564.297 620.134H564.196H563.974L562.78 620.518C562.254 620.72 561.607 620.943 560.939 621.226C559.077 622.015 557.054 623.108 556.71 624.281C556.651 624.513 556.654 624.756 556.718 624.987C556.782 625.218 556.905 625.428 557.075 625.596C557.42 626.025 557.896 626.33 558.43 626.466H559.057C560.114 626.207 561.049 625.592 561.708 624.726C562.738 623.532 563.615 622.214 564.318 620.801C564.322 620.754 564.322 620.707 564.318 620.66C564.327 620.627 564.327 620.591 564.318 620.558C564.347 620.53 564.369 620.497 564.384 620.459C564.399 620.422 564.406 620.382 564.404 620.341C564.402 620.301 564.391 620.262 564.373 620.226C564.355 620.19 564.329 620.159 564.297 620.134ZM563.326 621.024C562.978 621.679 562.593 622.314 562.173 622.926C561.482 624.215 560.357 625.219 558.997 625.758C558.717 625.781 558.436 625.731 558.181 625.615C557.926 625.498 557.705 625.317 557.54 625.09C557.453 625.009 557.389 624.907 557.353 624.793C557.318 624.68 557.312 624.559 557.337 624.443C557.661 623.31 560.494 622.035 562.578 621.287L563.326 621.024Z" fill="#6ED093"/>
<path d="M564.259 620.113H564.158C563.841 619.831 563.503 619.574 563.146 619.345C561.637 618.071 559.756 617.319 557.785 617.2C557.484 617.241 557.195 617.346 556.937 617.506C556.679 617.666 556.458 617.879 556.288 618.131C556.091 618.378 555.983 618.685 555.983 619.001C555.983 619.317 556.091 619.623 556.288 619.871C556.926 620.489 557.751 620.881 558.635 620.984C559.388 621.129 560.153 621.203 560.921 621.206C561.487 621.237 562.054 621.237 562.62 621.206C563.146 621.206 563.672 621.004 564.178 620.882H564.3C564.304 620.835 564.304 620.788 564.3 620.741C564.309 620.708 564.309 620.673 564.3 620.64C564.336 620.604 564.363 620.562 564.381 620.515C564.399 620.468 564.406 620.417 564.402 620.367C564.398 620.317 564.384 620.268 564.359 620.224C564.334 620.181 564.3 620.143 564.259 620.113ZM556.814 619.385C556.713 619.244 556.551 618.98 556.814 618.475C556.927 618.297 557.078 618.146 557.256 618.034C557.435 617.922 557.636 617.852 557.845 617.827C558.161 617.787 558.481 617.787 558.796 617.827C560.256 618.253 561.626 618.939 562.843 619.851L563.268 620.174C563.093 620.184 562.917 620.184 562.742 620.174C560.718 620.619 557.603 620.356 556.814 619.446V619.385Z" fill="#6ED093"/>
<path d="M444.422 637.291C444.345 637.09 444.258 636.894 444.159 636.704C443.329 634.964 440.74 630.068 437.421 631.079C436.45 631.363 436.207 631.909 436.228 632.313C436.228 633.467 438.251 635.025 440.274 636.178C441.11 636.644 441.975 637.056 442.864 637.412L443.41 637.594L443.896 637.736H444.058L444.3 637.614C444.343 637.573 444.376 637.522 444.397 637.466C444.418 637.41 444.427 637.35 444.422 637.291ZM436.936 632.293C436.936 632.293 436.936 631.949 437.583 631.767H437.887C440.456 631.383 442.641 635.389 443.43 636.987C440.8 636.016 436.976 633.608 436.936 632.293Z" fill="#6ED093"/>
<path d="M504.111 122.985L500.813 121.852C500.813 121.852 502.351 124.543 504.111 122.985Z" fill="#263238"/>
<path d="M124.237 227L124.873 234.282H107.918L109.403 251.237H102.122L100 227H124.237Z" fill="#6ED093"/>
<path d="M146.233 484.181L145.597 476.899H128.642L127.157 459.935H119.875L121.997 484.181H146.233Z" fill="#6ED093"/>
<path d="M293.692 484.181L293.056 476.899H310.011L308.525 459.944H315.807L317.929 484.181H293.692Z" fill="#6ED093"/>
<path d="M270.716 227.588L271.352 234.87H288.317L289.802 251.835H297.074L294.962 227.588H270.716Z" fill="#6ED093"/>
<path d="M237.787 250.928L240.179 251.362L238.201 249.838C237.681 249.433 237.141 249.028 236.61 248.642L236.485 248.546H236.33C224.111 246.106 209.239 241.833 192.12 235.69L191.975 235.632H191.821C191.252 235.709 190.683 235.805 190.123 235.912L187.982 236.326L190.123 237.107C208.776 243.897 224.815 248.527 237.787 250.928Z" fill="#6ED093"/>
<path d="M246.594 258.711L248.523 259.164L247.096 257.679C246.73 257.293 246.353 256.927 245.968 256.551L245.833 256.425H245.649C228.598 252.375 207.013 246.434 181.523 238.786L181.291 238.718L181.089 238.805L179.98 239.335L178.601 240.02L180.163 240.493C206.801 248.469 229.148 254.612 246.594 258.711Z" fill="#6ED093"/>
<path d="M254.695 267.98L256.624 268.655L255.38 267.044C255.196 266.803 255.003 266.572 254.82 266.34L254.569 266.031V265.79L254.145 265.636C239.399 260.428 213.445 252.375 173.507 243.55L173.237 243.492L173.025 243.646C172.736 243.859 172.446 244.061 172.157 244.293L171.125 245.103L172.485 245.402C213.339 254.419 239.765 262.656 254.695 267.98Z" fill="#6ED093"/>
<path d="M262.162 278.724L264.091 279.688L262.924 277.856L262.085 276.534L261.979 276.37L261.806 276.293C244.05 267.343 213.12 255.422 166.585 249.404H166.296L166.103 249.597L165.351 250.349L164.502 251.246L165.804 251.41C213.207 257.438 244.368 269.59 262.162 278.724Z" fill="#6ED093"/>
<path d="M249.622 279.283C256.224 282.532 262.601 286.221 268.709 290.326L270.637 291.599L269.625 289.583C269.422 289.178 269.21 288.792 269.008 288.397L268.911 288.223V288.021L268.631 287.838C262.811 284.007 256.759 280.541 250.509 277.46C232.185 268.375 201.689 257.303 160.565 256.097H160.266L160.092 256.319L159.455 257.12L158.626 258.084H159.986C200.975 259.213 231.355 270.217 249.622 279.283Z" fill="#6ED093"/>
<path d="M164.057 275.165L164.674 275.223V273.159L164.047 273.101C159.036 272.704 153.993 273.164 149.137 274.461L148.886 274.528L148.78 274.769C148.625 275.097 148.481 275.425 148.336 275.734L147.806 276.997L149.137 276.611C153.984 275.244 159.037 274.754 164.057 275.165Z" fill="#6ED093"/>
<path d="M250.308 286.054C258.746 290.739 266.761 296.147 274.265 302.218L276.03 303.684L275.171 301.572C274.959 301.041 274.728 300.52 274.496 300.009L274.429 299.855L274.294 299.739C240.592 272.949 197.973 259.96 155.059 263.399H154.769L154.625 263.63C154.441 263.91 154.268 264.199 154.094 264.488L154.615 264.874L154.075 264.527L153.419 265.607L154.721 265.501C187.918 262.688 221.2 269.844 250.308 286.054Z" fill="#6ED093"/>
<path d="M186.025 271.182C208.14 273.622 241.963 282.311 277.368 309.846L279.017 311.129L278.304 309.2C278.178 308.853 278.043 308.506 277.908 308.149L277.792 307.85V307.638L277.551 307.455C242.021 280.19 208.188 271.558 186.054 269.118C174.652 267.833 163.141 267.872 151.748 269.233H151.459L150.282 271.5L151.546 271.336C162.993 269.926 174.566 269.875 186.025 271.182Z" fill="#6ED093"/>
<path d="M145.768 351.164L143.839 350.354L143.637 350.913C140.724 360.337 138.769 370.03 137.802 379.846V379.943V380.039C137.985 380.907 138.188 381.775 138.4 382.643L139.306 386.405L139.625 382.653C140.478 372.156 142.48 361.784 145.595 351.723L145.768 351.164Z" fill="#6ED093"/>
<path d="M142.529 316.173V315.546L140.445 315.421V316.048C140.802 329.058 139.317 344.856 135.623 367.28V367.463C135.739 368.427 135.874 369.392 136.018 370.298L136.607 374.224L137.243 370.366C141.265 346.505 142.934 329.782 142.529 316.173Z" fill="#6ED093"/>
<path d="M148.19 344.596L150.862 336.224L148.865 335.453L146.213 343.824L148.19 344.596Z" fill="#6ED093"/>
<path d="M142.859 310.724C143.418 306.74 145.209 303.031 147.98 300.115L148.434 299.7L146.929 298.186L146.505 298.582C143.394 301.782 141.393 305.896 140.795 310.319L140.728 310.917L142.791 311.351L142.859 310.724Z" fill="#6ED093"/>
<path d="M143.675 327.756L145.758 328.007V327.39C145.951 321.767 151.545 313.887 151.824 313.579L152.172 313.097L150.465 311.804L150.108 312.277C149.876 312.653 143.897 320.716 143.694 327.12L143.675 327.756Z" fill="#6ED093"/>
<path d="M155.819 317.842L156.263 317.417L154.681 315.894L154.266 316.337C153.523 317.138 146.907 324.545 143.397 339.716L143.262 340.304L145.297 340.931L145.432 340.342C148.981 324.998 155.761 317.909 155.819 317.842Z" fill="#6ED093"/>
<path d="M157.016 325.702L155.222 324.506L150.689 331.884L152.493 333.08L157.016 325.702Z" fill="#6ED093"/>
<path d="M158.175 300.298L158.744 300.125L157.972 298.138L157.393 298.321C156.95 298.466 146.572 301.861 143.698 312.585L143.544 313.174L145.55 313.859L145.704 313.28C148.328 303.52 157.77 300.433 158.175 300.298Z" fill="#6ED093"/>
<path d="M161.259 286.738L161.877 286.651L161.385 284.607L160.787 284.693C150.959 286.121 145.356 289.66 142.404 292.409L142.202 292.612V292.785L141.006 297.048L142.838 295.061C145.057 292.621 150.448 288.31 161.259 286.738Z" fill="#6ED093"/>
<path d="M188.947 278.897C211.004 279.756 244.76 287.278 280.367 318.256L282.036 319.703L281.342 317.649C281.178 317.176 281.023 316.684 280.85 316.241V316.038L280.628 315.855C244.847 285.137 210.946 277.682 188.812 276.833C166.118 275.956 149.964 281.559 145.556 283.295L145.334 283.382L145.248 283.604C145.132 283.893 145.026 284.192 144.929 284.481L144.36 286.082L145.72 285.523C148.72 284.202 165.115 277.933 188.947 278.897Z" fill="#6ED093"/>
<path d="M191.571 284.433C166.37 285.397 149.396 295.601 148.672 296.006L148.151 296.315L149.376 298.09L149.887 297.781C150.582 297.357 167.19 287.375 191.86 286.458C213.744 285.629 247.336 291.927 283.059 326.628L284.699 328.219L284.072 326.068C283.917 325.548 283.753 325.027 283.589 324.516L283.541 324.342L283.406 324.217C247.461 289.844 213.628 283.613 191.571 284.433Z" fill="#6ED093"/>
<path d="M238.233 298.302C224.367 292.526 209.255 290.388 194.331 292.091C169.352 295.052 153.014 308.303 152.86 308.438L152.416 308.815L153.805 310.444L154.258 310.068C166.169 301.372 180.12 295.891 194.765 294.155C216.407 291.58 249.739 296.624 285.424 335.173L287.073 336.948L286.465 334.662C286.311 334.103 286.166 333.553 286.012 333.003V332.839L285.896 332.723C270.658 316.511 254.619 304.937 238.233 298.302Z" fill="#6ED093"/>
<path d="M218.162 298.572C182.477 295.331 157.401 320.542 157.131 320.754L156.707 321.179L158.269 322.674L158.684 322.259C158.925 322.008 183.442 297.424 218.152 300.588C242.109 302.767 265.478 317.253 287.593 343.641L289.271 345.637L288.663 343.168C288.528 342.609 288.393 342.069 288.268 341.509V341.336L288.133 341.172C265.844 315.132 242.273 300.781 218.162 298.572Z" fill="#6ED093"/>
<path d="M158.368 337.43C175.574 312.749 210.265 296.556 249.026 316.019C269.174 326.136 277.603 338.153 287.363 352.06C288.289 353.379 289.234 354.716 290.199 356.073L291.781 358.291L291.308 355.687C291.192 355.06 291.086 354.443 290.971 353.883V353.7L290.864 353.555C290.247 352.687 289.64 351.829 289.042 350.961C279.088 336.803 270.495 324.574 249.846 314.186C210.005 294.164 174.339 310.792 156.661 336.147C140.516 359.294 141.664 385.961 143.795 399.801V399.936C144.297 401.257 144.76 402.578 145.319 403.871L146.505 403.62C141.731 379.2 146.062 355.089 158.368 337.43Z" fill="#6ED093"/>
<path d="M242.893 403.726C239.238 394.313 237.502 393.32 236.142 393.648C232.767 394.458 235.891 406.735 235.92 406.861C237.656 413.506 265.124 428.754 276.852 434.994L277.382 435.283L278.347 433.528L277.749 433.21C259.289 423.362 239.17 411.172 237.917 406.504C236.547 401.257 236.509 397.139 236.798 395.895C237.328 396.483 238.621 398.383 240.916 404.295C246.385 418.386 267.468 426.584 279.552 430.21L280.025 430.355L280.247 429.94L280.642 429.159L280.97 428.484L280.208 428.252C268.471 424.693 247.947 416.746 242.893 403.726Z" fill="#6ED093"/>
<path d="M245.696 400.418C241.993 391.873 239.08 388.121 236.264 388.305C233.448 388.488 231.442 392.625 230.053 401.884C228.124 414.306 263.221 433.972 274.022 439.71L274.505 439.97L274.794 439.546C274.958 439.315 275.103 439.073 275.247 438.842L275.594 438.283L274.968 437.945C253.374 426.458 230.776 411.027 232.107 402.347C233.757 391.622 235.763 390.378 236.592 390.34C237.19 390.34 239.485 391.111 243.796 401.055C248.108 410.998 260.713 419.794 281.227 426.815L281.748 426.999L281.95 426.526C282.008 426.401 282.066 426.285 282.114 426.169C282.162 426.053 282.24 425.918 282.297 425.783L282.577 425.147L281.873 424.915C262.208 418.212 249.699 409.735 245.696 400.418Z" fill="#6ED093"/>
<path d="M248.502 397.091C243.825 387.292 239.513 382.508 235.27 382.47C231.026 382.431 227.439 387.292 224.208 397.158C218.344 415.078 258.455 437.762 270.887 444.281L271.36 444.532L272.556 442.893L271.871 442.536C263.287 438.003 220.755 414.567 226.185 397.949C229.078 389.173 232.261 384.534 235.482 384.534C238.703 384.534 242.494 389.182 246.631 397.853C251.222 407.497 263.027 415.82 282.711 423.401L283.222 423.604L283.454 423.141C283.58 422.883 283.693 422.619 283.792 422.35L284.023 421.752L283.386 421.511C264.223 414.133 252.813 406.137 248.502 397.091Z" fill="#6ED093"/>
<path d="M251.301 393.783C245.283 382.354 239.371 376.423 233.729 376.307C228.087 376.191 222.985 381.611 218.355 392.519C213.726 403.427 221.123 416.737 239.67 431.097C248.442 437.719 257.742 443.612 267.475 448.718L267.928 448.949L268.218 448.593L268.748 447.956L269.211 447.368L268.497 447.001C258.805 441.938 210.939 415.589 220.275 393.484C224.557 383.347 229.119 378.274 233.845 378.4C238.57 378.525 243.885 384.022 249.478 394.631C255.844 406.716 272.288 414.885 284.112 419.948L284.691 420.199L284.999 419.399C285.057 419.225 285.125 419.061 285.182 418.887L285.385 418.328L284.797 418.077C273.3 413.11 257.329 405.24 251.301 393.783Z" fill="#6ED093"/>
<path d="M254.098 390.465C246.228 376.876 238.918 370.211 231.742 369.941C224.798 369.739 218.346 375.786 212.453 387.919C209.56 393.976 209.377 400.544 212.029 407.42C220.584 429.651 256.587 449.248 263.714 452.952L264.138 453.164L264.437 452.855L265.006 452.238L265.537 451.65L264.775 451.254C257.744 447.618 222.262 428.387 213.958 406.822C211.527 400.515 211.653 394.496 214.344 388.941C219.773 377.705 225.57 372.015 231.588 372.015H231.829C238.166 372.208 244.859 378.535 252.295 391.372C258.815 402.636 273.387 410.661 285.356 416.389L285.954 416.669L286.176 416.09C286.272 415.84 286.359 415.579 286.446 415.319L286.629 414.779L286.08 414.518C274.448 408.925 260.271 401.141 254.098 390.465Z" fill="#6ED093"/>
<path d="M256.894 387.147C249.989 376.307 240.605 363.769 229.475 363.46H229.137C221.113 363.46 213.532 370.144 206.608 383.338C202.576 391.053 202.133 399.242 205.286 407.748C214.468 432.554 252.188 453.145 259.653 457.022L260.048 457.224L260.347 456.954C260.559 456.761 260.771 456.569 260.974 456.366L261.591 455.778L260.771 455.353C253.403 451.534 216.233 431.425 207.225 407.169C204.332 399.242 204.708 391.584 208.479 384.408C215.143 371.687 222.251 365.302 229.619 365.515C239.669 365.756 248.552 377.725 255.168 388.131C261.919 398.74 274.814 406.514 286.57 412.754L287.207 413.091L287.419 412.455C287.506 412.184 287.583 411.914 287.66 411.654L287.786 411.162L287.313 410.902C275.855 404.806 263.289 397.207 256.894 387.147Z" fill="#6ED093"/>
<path d="M259.682 383.81L259.518 383.579C252.603 373.655 241.03 357.037 226.978 356.873H226.785C217.536 356.873 208.769 364.232 200.745 378.747C198.192 383.162 196.657 388.092 196.252 393.176C195.847 398.259 196.581 403.37 198.401 408.134C207.833 434.425 244.222 455.151 255.149 460.88L255.516 461.073L255.882 460.783C256.094 460.619 256.307 460.455 256.509 460.282L257.194 459.693L256.336 459.25C248.62 455.247 209.81 433.972 200.339 407.594C198.63 403.099 197.944 398.28 198.331 393.487C198.718 388.694 200.169 384.047 202.577 379.885C210.293 365.901 218.587 358.85 227.142 358.966C240.065 359.12 251.205 375.13 257.85 384.688L258.014 384.919C265.016 394.979 277.534 403.109 287.651 409.031L288.326 409.436L288.886 407.449L288.433 407.189C278.586 401.383 266.385 393.484 259.682 383.81Z" fill="#6ED093"/>
<path d="M262.525 380.512C262.178 380.059 261.812 379.547 261.436 379.056L260.519 377.85C252.804 367.559 239.986 350.334 224.487 350.296C214.023 350.296 204.08 358.33 194.908 374.175C188.523 385.228 187.395 396.811 191.551 408.606C201.427 436.662 238.925 458.44 250.18 464.448L250.518 464.622L252.447 463.358L251.482 462.857C240.333 456.974 203.26 435.63 193.529 408.086C189.584 396.879 190.635 385.903 196.75 375.294C205.555 360.056 214.959 352.34 224.719 352.34C239.06 352.34 251.482 369.016 258.909 378.959C259.622 379.924 260.298 380.821 260.924 381.64C268.264 391.285 279.616 399.271 288.681 405.154L289.395 405.617L289.598 404.845L289.8 404.016L289.887 403.582L289.492 403.321C280.628 397.621 269.595 389.809 262.525 380.512Z" fill="#6ED093"/>
<path d="M268.96 378.448C250.529 350.884 234.076 344.991 223.505 344.904C210.967 344.856 200.05 352.62 192.643 366.99C183.963 383.926 182.786 400.553 189.248 416.399C200.426 443.79 231.443 461.478 244.222 467.804L244.501 467.94L244.762 467.824C245.08 467.679 245.389 467.515 245.726 467.351L246.758 466.801L245.63 466.242C235.715 461.42 202.49 443.491 191.177 415.763C184.946 400.515 186.075 384.457 194.514 368.051C201.506 354.462 211.777 346.978 223.447 346.978H223.659C233.69 347.055 249.381 352.765 267.262 379.49C272.74 387.687 282.539 395.104 289.792 399.878L290.544 400.37L290.728 399.463C290.785 399.203 290.834 398.943 290.882 398.692L290.959 398.277L290.583 398.026C283.61 393.407 274.187 386.25 268.96 378.448Z" fill="#6ED093"/>
<path d="M271.477 374.031C263.896 362.805 256.547 354.857 248.33 349.023C237.277 341.162 225.945 338.028 215.538 339.937C204.235 342.03 194.321 350.074 187.492 362.583C172.456 390.243 180.22 413.4 189.421 427.944C203.608 450.676 229.61 464.709 240.132 469.685L240.392 469.801L240.634 469.704C240.981 469.569 241.309 469.434 241.598 469.28L242.804 468.74L241.53 468.152C231.066 463.329 205.2 449.538 191.099 426.97C182.246 412.908 174.704 390.513 189.325 363.682C195.854 351.665 205.354 343.959 216.079 341.972C225.877 340.159 236.641 343.168 247.192 350.652C255.149 356.304 262.314 364.058 269.741 375.053C274.023 381.399 281.015 388.199 290.525 395.307L291.306 395.885L291.479 394.988C291.547 394.689 291.595 394.39 291.634 394.082L291.692 393.696L291.364 393.455C282.269 386.617 275.556 380.088 271.477 374.031Z" fill="#6ED093"/>
<path d="M273.996 369.623C265.557 357.23 257.948 349.37 248.573 343.207C236.45 335.289 224.057 332.28 212.715 334.527C200.476 336.928 189.703 345.329 182.373 358.165C169.835 380.087 170.086 405.289 182.962 427.317C197.226 451.708 224.433 466.203 235.418 471.305L235.64 471.402L235.852 471.344C236.219 471.248 236.575 471.132 236.932 471.016L238.504 470.505L237.009 469.83C226.015 464.844 198.914 450.628 184.746 426.429C177.406 413.892 167.578 388.469 184.206 359.332C191.265 346.968 201.566 338.886 213.284 336.581C224.086 334.45 235.929 337.343 247.541 344.933C256.655 350.893 264.062 358.599 272.308 370.703C276.475 376.828 282.84 383.444 291.231 390.388L292.07 391.082L292.215 390.06C292.263 389.742 292.301 389.423 292.33 389.095V388.758L292.051 388.526C284.075 381.833 277.96 375.477 273.996 369.623Z" fill="#6ED093"/>
<path d="M276.512 365.206C269.809 355.446 261.804 345.319 248.803 337.391C215.375 317.003 189.354 333.466 177.231 353.787C163.941 376.027 163.729 403.283 176.518 426.709C190.078 451.476 215.742 466.078 229.833 472.588L230.016 472.675H230.209C230.672 472.598 231.173 472.521 231.597 472.424L233.44 472.067L231.646 471.257C217.526 464.882 191.814 450.521 178.321 425.928C165.841 403.167 166.111 376.664 179.035 355.041C190.695 335.51 215.684 319.645 247.839 339.233C260.444 346.949 268.266 356.825 274.844 366.373C279.745 373.192 285.4 379.436 291.702 384.987L292.618 385.826L292.724 384.659C292.724 384.321 292.773 383.984 292.792 383.695L292.175 383.588L292.792 383.675V383.367L292.551 383.145C286.559 377.776 281.18 371.759 276.512 365.206Z" fill="#6ED093"/>
<path d="M279.031 360.789C270.737 348.839 262.471 339.301 249.046 331.595C233.615 322.693 217.788 320.253 203.389 324.535C190.851 328.287 179.712 337.073 172.073 349.36C157.819 372.208 157.076 400.881 170.067 426.053C183.174 451.447 208.645 466.445 222.726 473.128L222.861 473.186H222.987C223.604 473.186 224.212 473.186 224.829 473.186L227.24 473.051L224.964 472.01C210.777 465.471 185.016 450.724 171.919 425.282C159.275 400.775 160.008 372.854 173.848 350.595C186.521 330.254 213.583 313.55 248.111 333.398C261.16 340.902 269.232 350.218 277.324 361.898C281.689 368.092 286.577 373.9 291.935 379.258L292.9 380.29V378.921C292.9 378.544 292.9 378.178 292.9 377.802V377.532L292.707 377.339C287.702 372.207 283.128 366.672 279.031 360.789Z" fill="#6ED093"/>
<path d="M281.549 356.381C274.132 345.772 265.529 334.652 249.298 325.789C232.719 316.733 215.764 314.437 200.275 319.163C186.917 323.233 175.073 332.395 166.924 344.953C149.014 372.565 153.479 404.633 163.625 425.436C175.199 449.055 196.667 463.908 212.697 472.212L212.851 472.289H212.947C213.767 472.443 214.616 472.569 215.474 472.675L218.975 473.119L215.735 471.508C199.243 463.339 177.157 448.573 165.487 424.665C155.582 404.411 151.222 373.105 168.698 346.187C183.522 323.329 213.922 308.718 248.42 327.573C264.237 336.253 272.628 347.074 279.871 357.471C283.584 362.786 287.603 367.88 291.907 372.729L293.026 373.992L292.978 372.218C292.978 371.851 292.978 371.485 292.978 371.089V370.867L292.823 370.694C288.808 366.132 285.044 361.354 281.549 356.381Z" fill="#6ED093"/>
<path d="M292.357 363.393V363.21L292.241 363.055C289.116 359.062 286.367 355.205 284.082 351.964C275.903 340.391 267.107 329.155 249.554 319.993C211.786 300.241 178.262 316.086 161.789 340.555C142.702 368.91 147.38 403.668 157.198 424.809C164.113 439.797 175.629 453 191.349 463.995L191.523 464.12C193.816 465.493 196.19 466.726 198.631 467.814L199.133 466.734C180.287 455.161 166.804 440.829 159.069 424.086C149.483 403.437 144.901 369.498 163.544 341.808C179.535 318.044 212.076 302.642 248.725 321.796C265.796 330.727 274.408 341.673 282.423 353.044C284.747 356.362 287.881 360.76 291.431 365.225L292.694 366.836L292.52 364.907C292.456 364.393 292.402 363.888 292.357 363.393Z" fill="#6ED093"/>
<path d="M208.086 235.757C206.759 235.629 205.423 235.655 204.103 235.834C212.084 238.65 220.206 241.051 228.436 243.029C224.472 240.145 212.966 236.172 208.086 235.757Z" fill="#6ED093"/>
</svg>
