<svg width="499" height="439" viewBox="0 0 499 439" fill="none" xmlns="http://www.w3.org/2000/svg">
<path fill-rule="evenodd" clip-rule="evenodd" d="M212.934 19.175C196.793 20.509 178.589 24.842 167.342 30.027C163.441 31.825 155.465 36.536 149.616 40.495C121.686 59.405 101.434 91.409 93.8826 128.572C91.8956 138.349 90.3416 167.88 90.0036 202.251C89.9196 210.844 91.2596 212.839 96.8076 212.375L100.434 212.072L101.056 180.572C101.825 141.559 103.443 130.554 111.639 108.572C116.32 96.015 118.987 90.843 126.315 80.107C142.077 57.016 164.504 41.179 191.632 33.985C205.063 30.423 230.24 29.523 246.457 32.024C266.943 35.184 290.239 44.62 304.978 55.726C319.285 66.507 332.57 81.143 340.239 94.572C343.754 100.729 349.228 116.207 351.732 127.072C356.427 147.443 356.68 158.469 353.421 200.822C351.011 232.151 354.433 248.82 367.056 267.234C368.625 269.523 372.277 273.411 375.171 275.873C382.507 282.113 399.384 293.396 402.583 294.199C405.626 294.963 408.278 293.65 408.773 291.136C409.598 286.94 407.896 284.988 398.726 279.612C393.615 276.615 387.073 272.177 384.187 269.749C377.446 264.077 370.128 253.8 367.355 246.112C364.01 236.834 362.68 222.25 363.933 208.572C365.71 189.176 366.322 152.177 365.073 139.572C362.013 108.67 349.991 82.877 328.567 61.243C305.961 38.417 280.891 25.927 247.934 21.072C237.529 19.539 220.013 18.589 212.934 19.175ZM212.934 62.273C205.129 63.123 192.001 67.034 184.934 70.615C174.153 76.078 161.753 86.456 154.798 95.837C143.512 111.058 138.834 121.346 135.825 137.56C133.42 150.521 131.567 178.475 132.882 181.936C134.652 186.592 141.382 186.135 142.358 181.293C142.605 180.072 143.051 172.993 143.351 165.563C144.637 133.659 151.994 113.837 169.201 95.914C176.247 88.575 178.468 86.973 188.304 82.132C203.525 74.641 209.487 73.208 225.434 73.206C241.396 73.203 252.055 75.565 264.913 81.954C277.318 88.119 281.585 91.2969 290.887 101.3C303.017 114.345 309.822 129.812 312.114 149.547C313.057 157.662 312.872 163.069 310.864 186.072C308.334 215.072 308.011 234.178 309.875 244.572C312.817 260.974 320.507 279.338 328.508 289.072C342.206 305.736 366.478 325.925 385.505 336.481C396.205 342.417 401.785 333.437 391.218 327.289C359.53 308.851 336.238 286.766 327.021 266.418C325.44 262.928 323.131 255.572 321.889 250.072C319.088 237.658 318.894 218.566 321.303 192.272C323.166 171.941 323.424 148.704 321.883 140.006C320.462 131.983 317.277 122.322 313.664 115.072C309.708 107.135 297.726 91.258 293.109 87.835C291.088 86.336 286.993 83.158 284.009 80.773C277.014 75.181 260.383 67.211 251.434 65.161C237.429 61.954 224.661 60.996 212.934 62.273ZM213.164 109.064C203.443 111.789 197.011 116.501 189.919 126.095C182.621 135.968 179.665 143.367 177.405 157.41C173.428 182.126 163.056 202.976 145.664 221.22C132.415 235.117 119.779 243.025 103.434 247.647C99.0336 248.891 94.6466 250.578 93.6836 251.396C91.3706 253.36 91.4627 256.835 93.8857 259.028C95.6317 260.608 96.3957 260.663 101.136 259.544C109.91 257.473 122.04 252.701 128.934 248.609C144.849 239.162 161.588 222.013 172.369 204.11C177.022 196.383 184.519 175.448 186.922 163.47C192.411 136.117 199.795 124.776 215.525 119.542C230.193 114.66 246.417 118.753 256.606 129.905C264.022 138.022 266.459 145.826 266.34 161.072C266.242 173.6 263.48 192.883 259.822 206.572C252.383 234.412 235.61 261.199 210.5 285.338C198.705 296.677 179.181 312.005 170.987 316.359C168.483 317.69 163.315 320.6 159.502 322.826C150.447 328.112 134.477 335.488 124.434 339.023C115.518 342.16 113.71 343.732 114.14 347.971C114.825 354.728 119.234 353.833 145.866 341.533C180.095 325.725 204.687 308.083 228.057 282.572C239.596 269.975 249.613 256.522 255.805 245.306C260.348 237.075 268.244 216.591 270.948 206.017C277.024 182.259 279.083 153.476 275.57 141.393C272.164 129.677 261.301 117.073 249.972 111.692C242.883 108.326 241.909 108.135 230.472 107.868C222.134 107.674 216.814 108.042 213.164 109.064ZM224.119 163.256C222.213 164.018 221.187 167.322 219.44 178.312C214.186 211.378 195.143 240.843 162.934 265.745C147.013 278.054 121.633 291.66 106.434 296.034C98.8906 298.205 97.9336 299.014 97.9336 303.216C97.9336 305.857 98.4826 306.865 100.396 307.737C103.379 309.096 112.336 306.181 129.434 298.288C160.405 283.991 185.413 264.252 203.936 239.484C208.702 233.111 213.971 225.461 215.645 222.484C221.829 211.489 227.246 194.49 230.408 176.156C231.789 168.153 231.79 167.001 230.417 164.906C228.949 162.665 226.923 162.134 224.119 163.256ZM263.318 295.068C260.564 296.44 254.18 301.278 249.133 305.818C244.085 310.358 234.888 318.628 228.695 324.196C212.946 338.354 195.594 349.967 166.434 365.862C161.484 368.56 156.984 371.122 156.434 371.556C155.884 371.99 151.609 374.272 146.934 376.628C137.596 381.334 136.972 381.896 136.949 385.622C136.931 388.646 138.602 390.572 141.242 390.572C144.054 390.572 183.883 369.221 197.934 360.181C220.35 345.76 231.34 337.423 243.434 325.663C256.411 313.044 265.076 305.828 269.441 304.005C276.936 300.873 277.948 301.549 302.768 326.262C325.409 348.805 336.028 357.684 357.595 372.104C362.916 375.661 368.024 378.572 368.947 378.572C372.446 378.572 375.219 372.957 373.169 370.019C372.362 368.863 363.57 362.76 354.862 357.311C343.966 350.493 327.153 335.804 308.511 316.817C293.948 301.984 288.396 296.99 284.333 295.067C277.239 291.712 270.053 291.712 263.318 295.068ZM259.147 357.516C250.779 360.817 249.627 361.507 237.434 370.527C223.358 380.94 202.983 393.86 182.496 405.364C173.68 410.314 171.733 413.091 174.315 417.031C175.231 418.429 176.838 419.572 177.886 419.572C181.458 419.572 233.255 388.039 240.484 381.464C241.611 380.439 246.785 376.874 251.981 373.542C262.235 366.967 270.24 364.032 275.32 364.985C278.61 365.602 289.91 374.291 316.401 396.572C333.548 410.995 335.816 412.403 339.32 410.806C341.407 409.855 341.934 408.916 341.934 406.147C341.934 403.078 341.33 402.273 336.684 399.151C333.797 397.211 327.321 392.124 322.294 387.848C317.266 383.571 310.154 377.597 306.489 374.572C302.824 371.547 297.262 366.889 294.13 364.222C282.063 353.946 272.73 352.157 259.147 357.516Z" fill="#3E9C6F"/>
</svg>
