<svg width="463" height="500" viewBox="0 0 463 500" fill="none" xmlns="http://www.w3.org/2000/svg">
<path fill-rule="evenodd" clip-rule="evenodd" d="M213.934 19.175C197.793 20.509 179.589 24.842 168.342 30.027C164.441 31.825 156.465 36.536 150.616 40.495C122.686 59.405 102.434 91.409 94.8826 128.572C92.8956 138.349 91.3416 167.88 91.0036 202.251C90.9196 210.844 92.2596 212.839 97.8076 212.375L101.434 212.072L102.056 180.572C102.825 141.559 104.443 130.554 112.639 108.572C117.32 96.015 119.987 90.843 127.315 80.107C143.077 57.016 165.504 41.179 192.632 33.985C206.063 30.423 231.24 29.523 247.457 32.024C267.943 35.184 291.239 44.62 305.978 55.726C320.285 66.507 333.57 81.143 341.239 94.572C344.754 100.729 350.228 116.207 352.732 127.072C357.427 147.443 357.68 158.469 354.421 200.822C352.011 232.151 355.433 248.82 368.056 267.234C369.625 269.523 373.277 273.411 376.171 275.873C383.507 282.113 400.384 293.396 403.583 294.199C406.626 294.963 409.278 293.65 409.773 291.136C410.598 286.94 408.896 284.988 399.726 279.612C394.615 276.615 388.073 272.177 385.187 269.749C378.446 264.077 371.128 253.8 368.355 246.112C365.01 236.834 363.68 222.25 364.933 208.572C366.71 189.176 367.322 152.177 366.073 139.572C363.013 108.67 350.991 82.877 329.567 61.243C306.961 38.417 281.891 25.927 248.934 21.072C238.529 19.539 221.013 18.589 213.934 19.175ZM213.934 62.273C206.129 63.123 193.001 67.034 185.934 70.615C175.153 76.078 162.753 86.456 155.798 95.837C144.512 111.058 139.834 121.346 136.825 137.56C134.42 150.521 132.567 178.475 133.882 181.936C135.652 186.592 142.382 186.135 143.358 181.293C143.605 180.072 144.051 172.993 144.351 165.563C145.637 133.659 152.994 113.837 170.201 95.914C177.247 88.575 179.468 86.973 189.304 82.132C204.525 74.641 210.487 73.208 226.434 73.206C242.396 73.203 253.055 75.565 265.913 81.954C278.318 88.119 282.585 91.2969 291.887 101.3C304.017 114.345 310.822 129.812 313.114 149.547C314.057 157.662 313.872 163.069 311.864 186.072C309.334 215.072 309.011 234.178 310.875 244.572C313.817 260.974 321.507 279.338 329.508 289.072C343.206 305.736 367.478 325.925 386.505 336.481C397.205 342.417 402.785 333.437 392.218 327.289C360.53 308.851 337.238 286.766 328.021 266.418C326.44 262.928 324.131 255.572 322.889 250.072C320.088 237.658 319.894 218.566 322.303 192.272C324.166 171.941 324.424 148.704 322.883 140.006C321.462 131.983 318.277 122.322 314.664 115.072C310.708 107.135 298.726 91.258 294.109 87.835C292.088 86.336 287.993 83.158 285.009 80.773C278.014 75.181 261.383 67.211 252.434 65.161C238.429 61.954 225.661 60.996 213.934 62.273ZM214.164 109.064C204.443 111.789 198.011 116.501 190.919 126.095C183.621 135.968 180.665 143.367 178.405 157.41C174.428 182.126 164.056 202.976 146.664 221.22C133.415 235.117 120.779 243.025 104.434 247.647C100.034 248.891 95.6466 250.578 94.6836 251.396C92.3706 253.36 92.4627 256.835 94.8857 259.028C96.6317 260.608 97.3957 260.663 102.136 259.544C110.91 257.473 123.04 252.701 129.934 248.609C145.849 239.162 162.588 222.013 173.369 204.11C178.022 196.383 185.519 175.448 187.922 163.47C193.411 136.117 200.795 124.776 216.525 119.542C231.193 114.66 247.417 118.753 257.606 129.905C265.022 138.022 267.459 145.826 267.34 161.072C267.242 173.6 264.48 192.883 260.822 206.572C253.383 234.412 236.61 261.199 211.5 285.338C199.705 296.677 180.181 312.005 171.987 316.359C169.483 317.69 164.315 320.6 160.502 322.826C151.447 328.112 135.477 335.488 125.434 339.023C116.518 342.16 114.71 343.732 115.14 347.971C115.825 354.728 120.234 353.833 146.866 341.533C181.095 325.725 205.687 308.083 229.057 282.572C240.596 269.975 250.613 256.522 256.805 245.306C261.348 237.075 269.244 216.591 271.948 206.017C278.024 182.259 280.083 153.476 276.57 141.393C273.164 129.677 262.301 117.073 250.972 111.692C243.883 108.326 242.909 108.135 231.472 107.868C223.134 107.674 217.814 108.042 214.164 109.064ZM225.119 163.256C223.213 164.018 222.187 167.322 220.44 178.312C215.186 211.378 196.143 240.843 163.934 265.745C148.013 278.054 122.633 291.66 107.434 296.034C99.8906 298.205 98.9336 299.014 98.9336 303.216C98.9336 305.857 99.4826 306.865 101.396 307.737C104.379 309.096 113.336 306.181 130.434 298.288C161.405 283.991 186.413 264.252 204.936 239.484C209.702 233.111 214.971 225.461 216.645 222.484C222.829 211.489 228.246 194.49 231.408 176.156C232.789 168.153 232.79 167.001 231.417 164.906C229.949 162.665 227.923 162.134 225.119 163.256ZM264.318 295.068C261.564 296.44 255.18 301.278 250.133 305.818C245.085 310.358 235.888 318.628 229.695 324.196C213.946 338.354 196.594 349.967 167.434 365.862C162.484 368.56 157.984 371.122 157.434 371.556C156.884 371.99 152.609 374.272 147.934 376.628C138.596 381.334 137.972 381.896 137.949 385.622C137.931 388.646 139.602 390.572 142.242 390.572C145.054 390.572 184.883 369.221 198.934 360.181C221.35 345.76 232.34 337.423 244.434 325.663C257.411 313.044 266.076 305.828 270.441 304.005C277.936 300.873 278.948 301.549 303.768 326.262C326.409 348.805 337.028 357.684 358.595 372.104C363.916 375.661 369.024 378.572 369.947 378.572C373.446 378.572 376.219 372.957 374.169 370.019C373.362 368.863 364.57 362.76 355.862 357.311C344.966 350.493 328.153 335.804 309.511 316.817C294.948 301.984 289.396 296.99 285.333 295.067C278.239 291.712 271.053 291.712 264.318 295.068ZM260.147 357.516C251.779 360.817 250.627 361.507 238.434 370.527C224.358 380.94 203.983 393.86 183.496 405.364C174.68 410.314 172.733 413.091 175.315 417.031C176.231 418.429 177.838 419.572 178.886 419.572C182.458 419.572 234.255 388.039 241.484 381.464C242.611 380.439 247.785 376.874 252.981 373.542C263.235 366.967 271.24 364.032 276.32 364.985C279.61 365.602 290.91 374.291 317.401 396.572C334.548 410.995 336.816 412.403 340.32 410.806C342.407 409.855 342.934 408.916 342.934 406.147C342.934 403.078 342.33 402.273 337.684 399.151C334.797 397.211 328.321 392.124 323.294 387.848C318.266 383.571 311.154 377.597 307.489 374.572C303.824 371.547 298.262 366.889 295.13 364.222C283.063 353.946 273.73 352.157 260.147 357.516Z" fill="#96C1A8"/>
</svg>
