<svg width="2470" height="1113" viewBox="0 0 2470 1113" fill="none" xmlns="http://www.w3.org/2000/svg">
<g clip-path="url(#clip0_188_158)">
<rect width="2470" height="1113" fill="#FDFFFD"/>
<path d="M964.837 561.782C942.47 691.488 1114.11 780.94 1202.73 809.452L1200.1 -17.9495L-25.0429 -25.9932L-25.4168 66.4147C38.2659 352.97 296.97 306.5 418.362 247.446C503.535 213.052 708.665 151.196 847.793 178.923C1021.7 213.581 992.795 399.649 964.837 561.782Z" fill="#E8EFEA" fill-opacity="0.41"/>
<rect x="1185" y="-42" width="1377" height="1182" fill="#E5E5E5" fill-opacity="0.41"/>
<g opacity="0.65">
<path d="M2937.6 -116.3C2937.6 101.004 2660.67 277.163 2319.06 277.163C1977.46 277.163 1700.53 101.004 1700.53 -116.3C1700.53 -333.603 1977.46 -509.763 2319.06 -509.763C2660.67 -509.763 2937.6 -333.603 2937.6 -116.3Z" fill="#E9EFEB"/>
<ellipse cx="2319.06" cy="-92.3877" rx="488.675" ry="310.857" fill="#E5E5E5"/>
<ellipse cx="2319.06" cy="-92.3877" rx="374.195" ry="238.034" fill="#E2E2E2"/>
</g>
<path d="M1401.17 591.311C1420.93 468.738 1265.29 385.365 1185 359L1190.4 1140L2299.04 1140C2299.04 1140 2303.85 1093.26 2299.04 1052.77C2240.37 782.674 2006.44 828.142 1896.81 884.638C1819.87 917.632 1634.48 977.292 1508.48 951.982C1350.99 920.344 1376.46 744.528 1401.17 591.311Z" fill="#E8EFEA"/>
<path d="M1873.04 387.915C1871.99 391.052 1870.19 393.88 1867.79 396.146C1865.38 398.413 1862.46 400.047 1859.28 400.904H1859.18C1856.4 401.601 1853.58 402.128 1850.73 402.482L1849.34 402.664C1839.71 403.797 1829.83 403.575 1820.18 404.971L1818.73 405.193C1813.93 406.167 1809.08 406.803 1804.2 407.095C1803.11 407.115 1802.02 407.075 1800.93 406.974C1796.61 406.758 1792.48 405.155 1789.14 402.401C1784.89 398.597 1783.09 392.932 1781.99 387.227C1784.89 386.337 1788.11 385.318 1791.64 384.172C1817.28 375.715 1789.3 361.552 1798.37 338.932C1811.05 307.289 1862.86 309.514 1861.98 331.102C1878.2 335.169 1880.52 366.347 1873.04 387.915Z" fill="#263238"/>
<path d="M1801.65 349.999C1800.47 354.936 1800.08 360.116 1798.31 364.85C1796.54 369.584 1792.97 374.116 1788.01 375.128C1795.47 378.446 1804.7 374.784 1809.74 368.35C1814.77 361.916 1816.39 353.358 1816.55 345.144C1816.55 343.242 1816.89 340.956 1815.56 339.62C1806.03 330.111 1802.82 345.063 1801.65 349.999Z" fill="#263238"/>
<path d="M1794.48 434.489L1792.47 436.31L1790.88 437.726C1789.71 438.779 1788.56 439.75 1787.37 440.68C1785.01 442.562 1782.63 444.444 1780.19 446.184C1779.69 446.527 1779.19 446.892 1778.7 447.195C1778.22 447.558 1777.73 447.895 1777.21 448.207L1776.02 449.016C1772.35 451.444 1768.65 453.71 1764.84 455.855C1762.07 457.379 1759.27 458.795 1756.43 460.103C1753.77 461.358 1751.05 462.511 1748.37 463.563L1744.06 465.121C1742.59 465.627 1741.12 466.031 1739.68 466.517L1737.47 467.185L1735.07 467.792C1733.5 468.156 1731.91 468.52 1730.37 468.763C1718.4 470.502 1706.24 470.625 1694.24 469.127C1688.39 468.5 1682.59 467.63 1676.86 466.638C1672.83 465.93 1668.8 465.101 1664.77 464.109C1663.1 463.725 1661.41 463.28 1659.71 462.815L1661.47 453.75L1666.3 454.175C1670.33 454.499 1674.26 454.802 1678.21 454.985C1683.8 455.248 1689.38 455.551 1694.94 455.551C1705.71 455.78 1716.48 454.837 1727.05 452.739C1728.28 452.456 1729.49 452.112 1730.68 451.768L1732.41 451.201L1734.26 450.493C1735.47 450.007 1736.68 449.643 1737.97 449.057L1741.54 447.438C1746.36 445.196 1751.07 442.711 1755.65 439.992C1758.81 438.111 1761.93 436.088 1765 433.923L1766.83 432.628C1767.2 432.385 1767.58 432.122 1767.94 431.839L1769.11 431.009L1769.47 430.746C1771.49 429.269 1773.5 427.691 1775.52 426.113L1778.58 423.564L1781.42 421.095L1790.98 430.969L1794.48 434.489Z" fill="#FFC3BD"/>
<path d="M1668.35 454.803L1650.35 449.198L1653.64 467.165C1653.64 467.165 1663.27 467.165 1667.87 461.52L1668.35 454.803Z" fill="#FFC3BD"/>
<path d="M1637.8 452.881L1641.23 464.575L1653.68 467.165L1650.4 449.198L1637.8 452.881Z" fill="#FFC3BD"/>
<path d="M1651.97 454.256C1650.06 451.092 1649.01 447.477 1648.93 443.776C1649.11 438.961 1651.83 439.305 1651.83 439.305C1651.83 439.305 1651.33 445.03 1658.78 454.681L1658.96 454.944L1651.97 454.256Z" fill="#FFC3BD"/>
<path d="M1807.56 429.613C1806 434.307 1800.18 438.698 1794.07 442.158C1789.4 444.766 1784.55 447.038 1779.56 448.956L1777.93 449.563L1777.2 448.308L1768.03 432.021L1766.52 429.33L1767.85 427.975C1774.02 421.77 1780.77 416.18 1788.01 411.283C1791.8 408.977 1795.3 407.58 1797.7 408.147C1808.68 410.555 1810.66 420.388 1807.56 429.613Z" fill="#6ED093"/>
<path opacity="0.3" d="M1807.56 429.613C1806 434.307 1800.18 438.698 1794.07 442.158C1789.4 444.766 1784.55 447.038 1779.56 448.956L1777.93 449.563L1777.2 448.308L1768.03 432.021L1766.52 429.33L1767.85 427.975C1774.02 421.77 1780.77 416.18 1788.01 411.283C1791.8 408.977 1795.3 407.58 1797.7 408.147C1808.68 410.555 1810.66 420.388 1807.56 429.613Z" fill="black"/>
<path d="M1779.62 448.854C1779.73 449.21 1779.71 449.592 1779.56 449.932C1779.41 450.273 1779.15 450.55 1778.82 450.716C1778.46 450.903 1778.05 450.951 1777.65 450.85C1777.26 450.749 1776.92 450.507 1776.7 450.169L1776.08 449.016L1766.99 432.709L1765.37 429.816C1765.27 429.63 1765.2 429.425 1765.18 429.214C1765.16 429.002 1765.17 428.788 1765.23 428.583C1765.29 428.378 1765.39 428.187 1765.52 428.02C1765.65 427.853 1765.81 427.714 1766 427.61C1766.13 427.539 1766.26 427.485 1766.4 427.448C1766.67 427.391 1766.94 427.4 1767.2 427.474C1767.46 427.548 1767.7 427.685 1767.89 427.873C1768 427.982 1768.1 428.104 1768.18 428.237L1769.61 430.827L1778.74 447.195L1779.5 448.571C1779.53 448.669 1779.57 448.764 1779.62 448.854Z" fill="#6ED093"/>
<path d="M1878.1 406.002C1884.53 408.977 1885.32 410.676 1884.31 415.35C1882.29 424.394 1880.72 432.406 1879.39 439.629C1879.07 441.369 1878.77 443.068 1878.46 444.707C1878.46 445.01 1878.36 445.314 1878.3 445.638C1878.3 445.961 1878.18 446.245 1878.12 446.548C1878.06 446.851 1877.96 447.519 1877.86 447.985C1871.51 462.673 1868.91 480.538 1870.54 506.861C1870.68 508.884 1870.7 510.907 1870.8 512.93H1864.23H1842.67H1839.38L1814.19 513.092H1810.93H1803.77C1803.59 511.959 1803.41 510.887 1803.23 509.794C1801.37 498.788 1799.84 488.935 1798.55 480.194C1797.83 475.197 1797.16 470.544 1796.54 466.234C1796.54 466.234 1785.77 452.901 1789.7 444.727C1792.02 439.932 1793.09 410.595 1793.49 409.321C1793.9 408.046 1794.24 408.066 1794.24 408.066C1796.25 407.641 1798.27 407.216 1800.18 406.852C1806.06 405.652 1811.95 404.654 1817.88 403.858C1819.9 403.575 1822.01 403.312 1824.09 403.089C1832.24 402.445 1840.42 402.256 1848.59 402.522C1849.12 402.522 1849.6 402.522 1850.13 402.522C1852.14 402.522 1854.16 402.684 1856.17 402.806C1858.55 402.927 1860.93 403.129 1863.29 403.332C1866.45 403.499 1869.61 403.83 1872.74 404.323L1878.1 406.002Z" fill="#6ED093"/>
<path d="M1844.99 367.177C1843.29 377.596 1841.92 396.635 1849.38 403.291C1849.38 403.291 1845.55 425.749 1826.69 429.148C1817.58 426.842 1817.33 404.404 1817.33 404.404C1828.66 401.228 1824.87 389.857 1825.68 378.345L1844.99 367.177Z" fill="#FFC3BD"/>
<path opacity="0.2" d="M1823.46 367.177C1825.48 375.431 1827.49 389.27 1824.59 398.112C1830.64 396.837 1839.59 392.042 1840.84 386.681C1841.2 383.057 1841.28 379.411 1841.06 375.775L1823.46 367.177Z" fill="black"/>
<path d="M1858.65 353.56C1856.37 370.738 1855.79 378.062 1846.55 386.296C1832.57 398.699 1812.05 392.143 1809.15 374.663C1806.53 358.881 1810.66 333.449 1827.97 327.764C1831.78 326.503 1835.85 326.238 1839.79 326.993C1843.73 327.749 1847.41 329.501 1850.48 332.084C1853.56 334.666 1855.93 337.994 1857.37 341.752C1858.81 345.51 1859.27 349.574 1858.71 353.56H1858.65Z" fill="#FFC3BD"/>
<path d="M1854.54 332.984C1844 344.577 1810.53 346.742 1805.45 343.545C1815.73 329.16 1831.65 321.027 1840.62 322.908C1846.35 324.4 1851.32 327.995 1854.54 332.984Z" fill="#263238"/>
<path d="M1861.71 331.082H1861.57L1861.29 331.467L1861.71 331.082Z" fill="#263238"/>
<path d="M1861.97 330.819L1861.67 331.081C1861.74 331.068 1861.8 331.036 1861.86 330.99C1861.91 330.944 1861.95 330.885 1861.97 330.819Z" fill="#263238"/>
<path d="M1861.57 331.082V330.961L1861.29 331.082C1861.29 331.082 1861.51 331.082 1861.57 331.082Z" fill="#263238"/>
<path d="M1862.72 319.711C1863.57 321.509 1863.92 323.503 1863.73 325.483C1863.54 327.463 1862.82 329.356 1861.65 330.961C1862.73 330.528 1863.67 329.804 1864.37 328.87C1865.07 327.935 1865.5 326.826 1865.61 325.663C1865.72 324.501 1865.5 323.33 1865 322.28C1864.49 321.23 1863.7 320.341 1862.72 319.711Z" fill="#263238"/>
<path d="M1863.67 370.495C1862.75 371.888 1861.56 373.085 1860.18 374.015C1858.79 374.946 1857.24 375.592 1855.6 375.917C1851.25 376.747 1849.44 372.781 1850.95 368.856C1852.3 365.295 1856.21 360.763 1860.4 361.512C1861.87 361.867 1863.13 362.79 1863.92 364.079C1864.71 365.368 1864.96 366.918 1864.61 368.391C1864.44 369.149 1864.12 369.864 1863.67 370.495Z" fill="#FFC3BD"/>
<path d="M1848.23 334.319C1845.65 337.374 1845.91 341.744 1845.97 345.75C1846.14 357.485 1847.53 372.214 1838.6 377.353C1849.16 374.399 1857.6 369.402 1862.98 359.812C1867.24 352.225 1867.02 347.673 1863.79 339.58C1861.37 333.469 1854.1 327.44 1848.23 334.319Z" fill="#263238"/>
<path opacity="0.1" d="M1863.51 417.737C1863.51 417.737 1862.78 449.279 1865.52 463.26C1868.26 477.24 1870.42 473.761 1870.42 473.761C1870.42 473.761 1871.77 452.051 1874.45 446.002C1877.13 439.952 1863.51 417.737 1863.51 417.737Z" fill="black"/>
<path d="M1894.08 443.938C1893.9 446.083 1893.78 448.693 1893.65 451.1C1893.53 453.508 1893.47 456.037 1893.47 458.505C1893.47 463.462 1893.47 468.439 1893.86 473.356C1894.43 483.095 1895.94 492.756 1898.35 502.207C1899 504.453 1899.66 506.82 1900.37 508.985C1901.07 511.15 1902.04 513.396 1902.99 515.641C1905 520.133 1907.16 524.706 1909.46 529.238C1914.07 538.322 1918.97 547.447 1923.82 556.551L1916.09 562.014C1909.11 553.978 1902.64 545.518 1896.7 536.683C1893.69 532.272 1890.83 527.74 1888.17 522.885C1886.84 520.457 1885.55 517.988 1884.38 515.277C1883.21 512.566 1882.37 509.976 1881.36 507.306C1877.94 496.747 1875.76 485.821 1874.87 474.752C1874.35 469.292 1874.1 463.808 1874.14 458.323C1874.14 455.572 1874.14 452.881 1874.35 450.129C1874.55 447.378 1874.65 444.747 1874.99 441.713L1894.08 443.938Z" fill="#FFC3BD"/>
<path d="M1921.35 554.588L1934.45 563.794L1918.4 574.072C1918.4 574.072 1911.29 564.361 1914.47 554.487L1921.35 554.588Z" fill="#FFC3BD"/>
<path d="M1938.91 578.948L1925.16 586.232L1918.47 574.092L1934.45 563.794L1938.91 578.948Z" fill="#FFC3BD"/>
<path d="M1897.19 420.57C1900.21 443.371 1893.4 447.074 1893.4 447.074L1872.14 449.097C1872.14 449.097 1861.68 417.312 1867.85 409.543C1874.28 401.45 1895.72 409.502 1897.19 420.57Z" fill="#6ED093"/>
<path opacity="0.3" d="M1897.19 420.57C1900.21 443.371 1893.4 447.074 1893.4 447.074L1872.14 449.097C1872.14 449.097 1861.68 417.312 1867.85 409.543C1874.28 401.45 1895.72 409.502 1897.19 420.57Z" fill="black"/>
<path d="M1895.41 446.75C1895.45 447.19 1895.32 447.627 1895.04 447.968C1894.76 448.308 1894.36 448.525 1893.92 448.571L1872.32 450.594C1871.88 450.634 1871.45 450.498 1871.11 450.218C1870.78 449.937 1870.56 449.534 1870.52 449.097C1870.48 448.665 1870.6 448.233 1870.88 447.895C1871.15 447.558 1871.54 447.342 1871.97 447.297L1893.58 445.273C1894.02 445.228 1894.45 445.357 1894.8 445.634C1895.14 445.91 1895.36 446.311 1895.41 446.75Z" fill="#6ED093"/>
<path d="M1803.16 509.916L1800.22 516.37C1799.98 516.876 1800.52 517.381 1801.39 517.321L1870.74 514.164C1871.39 514.164 1871.91 513.8 1871.93 513.416L1872.35 507.063C1872.35 506.618 1871.81 506.254 1871.1 506.274L1804.31 509.288C1804.08 509.285 1803.86 509.341 1803.66 509.451C1803.46 509.56 1803.29 509.721 1803.16 509.916Z" fill="#263238"/>
<path d="M1813.08 517.563H1811.19C1810.81 517.563 1810.5 517.402 1810.52 517.179L1811.13 508.904C1811.13 508.681 1811.47 508.459 1811.85 508.439H1813.77C1814.13 508.439 1814.45 508.621 1814.41 508.843L1813.83 517.118C1813.77 517.263 1813.66 517.385 1813.53 517.465C1813.4 517.545 1813.24 517.58 1813.08 517.563Z" fill="#6ED093"/>
<path d="M1865.8 515.641H1863.91C1863.53 515.641 1863.23 515.479 1863.23 515.237L1863.83 506.962C1863.83 506.739 1864.17 506.496 1864.56 506.496H1866.57C1866.64 506.471 1866.72 506.463 1866.79 506.472C1866.87 506.481 1866.94 506.507 1867.01 506.548C1867.07 506.589 1867.12 506.643 1867.16 506.708C1867.2 506.773 1867.23 506.846 1867.24 506.921L1866.65 515.196C1866.53 515.419 1866.19 515.621 1865.8 515.641Z" fill="#6ED093"/>
<path d="M1841.62 516.612H1839.7C1839.63 516.638 1839.56 516.646 1839.48 516.637C1839.41 516.628 1839.34 516.602 1839.28 516.561C1839.21 516.52 1839.16 516.465 1839.12 516.4C1839.09 516.335 1839.06 516.262 1839.06 516.187L1839.64 507.933C1839.64 507.71 1840.01 507.488 1840.39 507.467H1842.28C1842.67 507.467 1842.97 507.649 1842.95 507.892L1842.34 516.167C1842.32 516.41 1841.94 516.612 1841.62 516.612Z" fill="#6ED093"/>
<path d="M1832.25 356.555C1832.15 357.951 1831.3 359.003 1830.41 358.962C1829.53 358.922 1828.82 357.728 1828.92 356.312C1829.02 354.896 1829.85 353.864 1830.76 353.904C1831.66 353.945 1832.33 355.159 1832.25 356.555Z" fill="#263238"/>
<path d="M1816.42 355.442C1816.3 356.838 1815.5 357.91 1814.59 357.87C1813.68 357.829 1813 356.615 1813.12 355.199C1813.24 353.783 1814.03 352.731 1814.93 352.771C1815.84 352.812 1816.59 354.005 1816.42 355.442Z" fill="#263238"/>
<path d="M1815.33 352.872L1812.07 351.76C1812.07 351.76 1813.6 354.349 1815.33 352.872Z" fill="#263238"/>
<path d="M1820.43 358.153C1818.96 361.265 1817.07 364.164 1814.83 366.772C1815.51 367.327 1816.29 367.728 1817.14 367.948C1817.99 368.168 1818.87 368.202 1819.73 368.047L1820.43 358.153Z" fill="#ED847E"/>
<path d="M1826.87 373.793C1826.01 373.874 1825.15 373.874 1824.29 373.793C1824.25 373.79 1824.2 373.779 1824.16 373.759C1824.12 373.739 1824.09 373.712 1824.06 373.678C1824.03 373.644 1824 373.605 1823.99 373.562C1823.97 373.519 1823.97 373.474 1823.97 373.429C1823.98 373.339 1824.02 373.257 1824.09 373.197C1824.16 373.137 1824.24 373.104 1824.33 373.105C1826.09 373.273 1827.85 373.021 1829.49 372.37C1831.12 371.72 1832.58 370.689 1833.75 369.362C1833.76 369.323 1833.79 369.288 1833.82 369.259C1833.86 369.231 1833.9 369.209 1833.94 369.196C1833.98 369.183 1834.02 369.178 1834.07 369.182C1834.11 369.187 1834.15 369.199 1834.19 369.22C1834.23 369.233 1834.26 369.254 1834.29 369.283C1834.32 369.311 1834.35 369.346 1834.36 369.385C1834.38 369.423 1834.39 369.465 1834.38 369.506C1834.38 369.548 1834.37 369.588 1834.35 369.625C1832.5 371.948 1829.81 373.446 1826.87 373.793Z" fill="#263238"/>
<path d="M1838.76 347.045C1838.64 347.054 1838.52 347.035 1838.41 346.989C1838.3 346.943 1838.21 346.872 1838.13 346.782C1837.51 345.924 1836.68 345.23 1835.73 344.762C1834.78 344.293 1833.73 344.063 1832.67 344.091C1832.49 344.103 1832.3 344.041 1832.16 343.92C1832.03 343.799 1831.94 343.628 1831.92 343.444C1831.91 343.355 1831.92 343.265 1831.95 343.179C1831.98 343.094 1832.02 343.014 1832.08 342.946C1832.14 342.878 1832.21 342.823 1832.29 342.783C1832.37 342.744 1832.46 342.721 1832.55 342.716C1833.83 342.668 1835.11 342.936 1836.27 343.496C1837.43 344.057 1838.44 344.893 1839.2 345.932C1839.26 346.001 1839.3 346.08 1839.32 346.166C1839.35 346.251 1839.36 346.341 1839.35 346.429C1839.34 346.518 1839.31 346.604 1839.27 346.682C1839.23 346.76 1839.17 346.828 1839.1 346.883C1839 346.965 1838.88 347.021 1838.76 347.045Z" fill="#263238"/>
<path d="M1810.74 345.467C1810.63 345.497 1810.5 345.498 1810.39 345.47C1810.27 345.442 1810.16 345.385 1810.08 345.305C1809.95 345.176 1809.88 345.002 1809.88 344.82C1809.88 344.638 1809.95 344.463 1810.08 344.334C1810.94 343.377 1812.02 342.646 1813.23 342.201C1814.44 341.757 1815.73 341.614 1817.01 341.785C1817.18 341.81 1817.34 341.903 1817.44 342.043C1817.55 342.183 1817.6 342.359 1817.57 342.534C1817.56 342.621 1817.53 342.705 1817.48 342.78C1817.43 342.855 1817.37 342.919 1817.29 342.968C1817.22 343.018 1817.14 343.051 1817.05 343.067C1816.96 343.083 1816.87 343.08 1816.79 343.06C1815.74 342.943 1814.67 343.078 1813.69 343.454C1812.7 343.831 1811.81 344.437 1811.1 345.224C1811.01 345.339 1810.88 345.423 1810.74 345.467Z" fill="#263238"/>
<path d="M1771.28 868.068C1770.8 867.926 1769.37 867.542 1767.74 867.198C1765.1 866.672 1761.89 866.267 1760.92 867.198C1760.77 867.338 1760.66 867.52 1760.61 867.721C1760.56 867.923 1760.57 868.135 1760.64 868.331C1760.71 868.702 1760.87 869.052 1761.09 869.354C1761.32 869.656 1761.62 869.901 1761.95 870.071C1763.27 870.61 1764.72 870.723 1766.1 870.395C1767.6 870.099 1769.08 869.665 1770.5 869.1C1770.77 868.971 1771.03 868.822 1771.28 868.655C1771.35 868.632 1771.4 868.587 1771.44 868.529C1771.48 868.47 1771.49 868.4 1771.48 868.331C1771.48 868.273 1771.46 868.218 1771.42 868.171C1771.38 868.125 1771.34 868.089 1771.28 868.068ZM1762.25 869.403C1762 869.285 1761.78 869.108 1761.61 868.886C1761.43 868.664 1761.32 868.405 1761.27 868.129C1761.24 868.044 1761.24 867.954 1761.26 867.868C1761.28 867.782 1761.32 867.704 1761.39 867.643C1761.61 867.464 1761.87 867.358 1762.15 867.339C1764.88 867.236 1767.6 867.577 1770.21 868.351C1768.1 869.201 1764.15 870.395 1762.27 869.403H1762.25Z" fill="#6ED093"/>
<path d="M1793.35 872.6L1776.69 873.551L1773.16 831.589L1789.81 830.618L1793.35 872.6Z" fill="#FFC3BD"/>
<path d="M1907.84 844.012L1891.68 850.264L1877.79 812.105L1893.96 805.874L1907.84 844.012Z" fill="#FFC3BD"/>
<path d="M1891.12 848.787L1906.34 836.526C1906.59 836.302 1906.92 836.179 1907.25 836.179C1907.59 836.179 1907.92 836.302 1908.17 836.526L1921.19 848.362C1921.71 848.885 1922 849.595 1922 850.334C1922 851.074 1921.71 851.784 1921.19 852.307C1921.12 852.391 1921.04 852.466 1920.95 852.53C1915.59 856.718 1912.77 858.458 1906.13 863.88C1902.1 867.279 1892.03 877.011 1886.24 881.583C1880.46 886.156 1874.05 879.56 1876.17 877.213C1884.97 866.328 1888.46 857.304 1889.63 851.417C1889.82 850.397 1890.34 849.47 1891.12 848.787Z" fill="#263238"/>
<path d="M1774.53 865.478L1794.86 862.099C1795.24 862.038 1795.63 862.104 1795.97 862.287C1796.31 862.47 1796.58 862.759 1796.74 863.111L1803.83 878.548C1804.12 879.169 1804.15 879.877 1803.92 880.52C1803.69 881.163 1803.22 881.69 1802.6 881.988C1802.37 882.095 1802.13 882.163 1801.88 882.19C1794.72 883.444 1791.32 883.91 1782.37 885.447C1776.85 886.358 1761.02 891.639 1753.37 890.769C1745.71 889.899 1745.16 882.15 1748.35 881.826C1762.58 880.288 1768.3 871.831 1771.89 867.097C1772.53 866.239 1773.47 865.66 1774.53 865.478Z" fill="#263238"/>
<path opacity="0.2" d="M1773.13 831.609L1774.96 853.238L1791.77 853.986L1789.8 830.638L1773.13 831.609Z" fill="black"/>
<path opacity="0.2" d="M1895.63 810.386L1879.47 816.617L1886.64 836.283L1902.79 830.052L1895.63 810.386Z" fill="black"/>
<path d="M1802.34 516.43C1802.34 516.43 1761.42 607.921 1759.67 684.096C1758.5 735.121 1767.25 840.916 1767.25 840.916L1796.61 847.128C1796.61 847.128 1798.18 738.723 1801.93 696.862C1808.36 625.22 1854.09 514.589 1854.09 514.589L1802.34 516.43Z" fill="#6ED093"/>
<path opacity="0.4" d="M1802.34 516.43C1802.34 516.43 1761.42 607.921 1759.67 684.096C1758.5 735.121 1767.25 840.916 1767.25 840.916L1796.61 847.128C1796.61 847.128 1798.18 738.723 1801.93 696.862C1808.36 625.22 1854.09 514.589 1854.09 514.589L1802.34 516.43Z" fill="white"/>
<path opacity="0.2" d="M1827.41 550.279L1832.89 571.24C1823.84 597.299 1816.1 623.796 1809.69 650.631C1803.32 610.774 1819.79 568.164 1827.41 550.279Z" fill="black"/>
<path d="M1761.77 845.671L1799.05 848.544L1799.58 834.3L1760.38 832.682L1761.77 845.671Z" fill="#6ED093"/>
<path d="M1817.78 516.046C1817.78 516.046 1809.44 620.081 1824.75 686.665C1837.13 740.443 1881.45 828.109 1881.45 828.109L1901.6 815.181C1901.6 815.181 1885.8 746.735 1875.7 710.559C1850.93 621.821 1895.56 571.28 1872.88 513.82L1817.78 516.046Z" fill="#6ED093"/>
<path opacity="0.4" d="M1817.78 516.046C1817.78 516.046 1809.44 620.081 1824.75 686.665C1837.13 740.443 1881.45 828.109 1881.45 828.109L1901.6 815.181C1901.6 815.181 1885.8 746.735 1875.7 710.559C1850.93 621.821 1895.56 571.28 1872.88 513.82L1817.78 516.046Z" fill="white"/>
<path d="M1877.55 831.63L1905.83 821.412L1903.35 809.556L1871.95 821.979L1877.55 831.63Z" fill="#6ED093"/>
<path d="M1891.12 851.134H1891.02H1890.8L1889.61 851.518C1889.08 851.72 1888.44 851.943 1887.77 852.226C1885.92 853.015 1883.9 854.108 1883.56 855.281C1883.5 855.513 1883.5 855.756 1883.57 855.987C1883.63 856.218 1883.75 856.428 1883.92 856.596C1884.27 857.025 1884.74 857.33 1885.27 857.466H1885.9C1886.95 857.207 1887.88 856.592 1888.54 855.726C1889.56 854.532 1890.44 853.214 1891.14 851.801C1891.14 851.754 1891.14 851.707 1891.14 851.66C1891.15 851.627 1891.15 851.591 1891.14 851.558C1891.17 851.53 1891.19 851.497 1891.2 851.459C1891.22 851.422 1891.23 851.382 1891.22 851.341C1891.22 851.301 1891.21 851.262 1891.19 851.226C1891.18 851.19 1891.15 851.159 1891.12 851.134ZM1890.15 852.024C1889.8 852.679 1889.42 853.314 1889 853.926C1888.31 855.215 1887.19 856.219 1885.84 856.758C1885.56 856.781 1885.28 856.731 1885.03 856.615C1884.77 856.498 1884.55 856.317 1884.39 856.09C1884.3 856.009 1884.24 855.907 1884.2 855.793C1884.17 855.68 1884.16 855.559 1884.19 855.443C1884.51 854.31 1887.33 853.035 1889.4 852.287L1890.15 852.024Z" fill="#6ED093"/>
<path d="M1891.08 851.113H1890.98C1890.66 850.831 1890.33 850.574 1889.97 850.345C1888.47 849.071 1886.6 848.319 1884.63 848.2C1884.33 848.241 1884.04 848.346 1883.79 848.506C1883.53 848.666 1883.31 848.879 1883.14 849.131C1882.94 849.378 1882.84 849.685 1882.84 850.001C1882.84 850.317 1882.94 850.623 1883.14 850.871C1883.78 851.489 1884.6 851.881 1885.48 851.984C1886.23 852.129 1886.99 852.203 1887.76 852.206C1888.32 852.237 1888.88 852.237 1889.45 852.206C1889.97 852.206 1890.5 852.004 1891 851.882H1891.12C1891.13 851.835 1891.13 851.788 1891.12 851.741C1891.13 851.708 1891.13 851.673 1891.12 851.64C1891.16 851.604 1891.18 851.562 1891.2 851.515C1891.22 851.468 1891.23 851.417 1891.22 851.367C1891.22 851.317 1891.2 851.268 1891.18 851.224C1891.16 851.181 1891.12 851.143 1891.08 851.113ZM1883.66 850.385C1883.56 850.244 1883.4 849.98 1883.66 849.475C1883.78 849.297 1883.93 849.146 1884.11 849.034C1884.28 848.922 1884.48 848.852 1884.69 848.827C1885.01 848.787 1885.32 848.787 1885.64 848.827C1887.09 849.253 1888.46 849.939 1889.67 850.851L1890.09 851.174C1889.92 851.184 1889.74 851.184 1889.57 851.174C1887.55 851.619 1884.45 851.356 1883.66 850.446V850.385Z" fill="#6ED093"/>
<path d="M1771.71 868.291C1771.63 868.09 1771.54 867.894 1771.44 867.704C1770.62 865.964 1768.04 861.068 1764.73 862.079C1763.76 862.363 1763.52 862.909 1763.54 863.313C1763.54 864.467 1765.56 866.025 1767.57 867.178C1768.41 867.644 1769.27 868.056 1770.15 868.412L1770.7 868.594L1771.18 868.736H1771.34L1771.58 868.614C1771.63 868.573 1771.66 868.522 1771.68 868.466C1771.7 868.41 1771.71 868.35 1771.71 868.291ZM1764.25 863.293C1764.25 863.293 1764.25 862.949 1764.89 862.767H1765.2C1767.76 862.383 1769.93 866.389 1770.72 867.987C1768.1 867.016 1764.29 864.608 1764.25 863.293Z" fill="#6ED093"/>
<path d="M1831.17 353.985L1827.88 352.852C1827.88 352.852 1829.41 355.543 1831.17 353.985Z" fill="#263238"/>
<path d="M1452.76 458L1453.39 465.282H1436.5L1437.98 482.237H1430.73L1428.61 458H1452.76Z" fill="#6ED093"/>
<path d="M1474.67 715.181L1474.04 707.899H1457.15L1455.67 690.935H1448.41L1450.53 715.181H1474.67Z" fill="#6ED093"/>
<path d="M1621.56 715.181L1620.92 707.899H1637.81L1636.33 690.944H1643.59L1645.7 715.181H1621.56Z" fill="#6ED093"/>
<path d="M1598.67 458.588L1599.3 465.87H1616.2L1617.68 482.835H1624.93L1622.82 458.588H1598.67Z" fill="#6ED093"/>
<path d="M1565.87 481.928L1568.25 482.362L1566.28 480.838C1565.76 480.433 1565.22 480.028 1564.7 479.642L1564.57 479.546H1564.42C1552.25 477.106 1537.43 472.833 1520.38 466.69L1520.23 466.632H1520.08C1519.51 466.709 1518.95 466.805 1518.39 466.912L1516.26 467.326L1518.39 468.107C1536.97 474.897 1552.95 479.527 1565.87 481.928Z" fill="#6ED093"/>
<path d="M1574.64 489.711L1576.56 490.164L1575.14 488.679C1574.78 488.293 1574.4 487.927 1574.02 487.551L1573.88 487.425H1573.7C1556.71 483.375 1535.21 477.434 1509.82 469.786L1509.59 469.718L1509.39 469.805L1508.28 470.335L1506.91 471.02L1508.47 471.493C1535 479.469 1557.26 485.612 1574.64 489.711Z" fill="#6ED093"/>
<path d="M1582.71 498.98L1584.63 499.655L1583.39 498.044C1583.21 497.803 1583.02 497.572 1582.84 497.34L1582.59 497.031V496.79L1582.16 496.636C1567.47 491.428 1541.62 483.375 1501.84 474.55L1501.57 474.492L1501.36 474.646C1501.07 474.859 1500.78 475.061 1500.49 475.293L1499.46 476.103L1500.82 476.402C1541.52 485.419 1567.84 493.656 1582.71 498.98Z" fill="#6ED093"/>
<path d="M1590.15 509.724L1592.07 510.688L1590.91 508.856L1590.07 507.534L1589.97 507.37L1589.79 507.293C1572.11 498.343 1541.3 486.422 1494.94 480.404H1494.65L1494.46 480.597L1493.71 481.349L1492.87 482.246L1494.16 482.41C1541.38 488.438 1572.42 500.59 1590.15 509.724Z" fill="#6ED093"/>
<path d="M1577.66 510.283C1584.23 513.532 1590.59 517.221 1596.67 521.326L1598.59 522.599L1597.58 520.583C1597.38 520.178 1597.17 519.792 1596.97 519.397L1596.87 519.223V519.021L1596.59 518.838C1590.8 515.007 1584.77 511.541 1578.54 508.46C1560.29 499.375 1529.91 488.303 1488.94 487.097H1488.65L1488.47 487.319L1487.84 488.12L1487.01 489.084H1488.37C1529.2 490.213 1559.46 501.217 1577.66 510.283Z" fill="#6ED093"/>
<path d="M1492.42 506.165L1493.04 506.223V504.159L1492.41 504.101C1487.42 503.704 1482.4 504.164 1477.56 505.461L1477.31 505.528L1477.2 505.769C1477.05 506.097 1476.91 506.425 1476.76 506.734L1476.23 507.997L1477.56 507.611C1482.39 506.244 1487.42 505.754 1492.42 506.165Z" fill="#6ED093"/>
<path d="M1578.34 517.054C1586.75 521.739 1594.73 527.147 1602.21 533.218L1603.96 534.684L1603.11 532.572C1602.9 532.041 1602.67 531.52 1602.44 531.009L1602.37 530.855L1602.23 530.739C1568.66 503.949 1526.21 490.96 1483.46 494.399H1483.17L1483.03 494.63C1482.85 494.91 1482.67 495.199 1482.5 495.488L1483.02 495.874L1482.48 495.527L1481.83 496.607L1483.12 496.501C1516.19 493.688 1549.35 500.844 1578.34 517.054Z" fill="#6ED093"/>
<path d="M1514.31 502.182C1536.34 504.622 1570.03 513.311 1605.3 540.846L1606.94 542.129L1606.23 540.2C1606.1 539.853 1605.97 539.506 1605.83 539.149L1605.72 538.85V538.638L1605.48 538.455C1570.09 511.19 1536.38 502.558 1514.34 500.118C1502.98 498.833 1491.51 498.872 1480.16 500.233H1479.87L1478.7 502.5L1479.96 502.336C1491.36 500.926 1502.89 500.875 1514.31 502.182Z" fill="#6ED093"/>
<path d="M1474.21 582.164L1472.28 581.354L1472.08 581.913C1469.18 591.337 1467.23 601.03 1466.27 610.846V610.943V611.039C1466.45 611.907 1466.65 612.775 1466.87 613.643L1467.77 617.405L1468.09 613.653C1468.94 603.156 1470.93 592.784 1474.03 582.723L1474.21 582.164Z" fill="#6ED093"/>
<path d="M1470.98 547.173V546.546L1468.9 546.421V547.048C1469.26 560.058 1467.78 575.856 1464.1 598.28V598.463C1464.21 599.427 1464.35 600.392 1464.49 601.298L1465.08 605.224L1465.71 601.366C1469.72 577.505 1471.38 560.782 1470.98 547.173Z" fill="#6ED093"/>
<path d="M1476.62 575.596L1479.28 567.224L1477.29 566.453L1474.65 574.824L1476.62 575.596Z" fill="#6ED093"/>
<path d="M1471.31 541.724C1471.86 537.74 1473.65 534.031 1476.41 531.115L1476.86 530.7L1475.36 529.186L1474.94 529.582C1471.84 532.782 1469.85 536.896 1469.25 541.319L1469.18 541.917L1471.24 542.351L1471.31 541.724Z" fill="#6ED093"/>
<path d="M1472.12 558.756L1474.2 559.007V558.39C1474.39 552.767 1479.96 544.887 1480.24 544.579L1480.58 544.097L1478.88 542.804L1478.53 543.277C1478.3 543.653 1472.34 551.716 1472.14 558.12L1472.12 558.756Z" fill="#6ED093"/>
<path d="M1484.22 548.842L1484.66 548.417L1483.08 546.894L1482.67 547.337C1481.93 548.138 1475.34 555.545 1471.84 570.716L1471.71 571.304L1473.74 571.931L1473.87 571.342C1477.41 555.998 1484.16 548.909 1484.22 548.842Z" fill="#6ED093"/>
<path d="M1485.41 556.702L1483.62 555.506L1479.11 562.884L1480.9 564.08L1485.41 556.702Z" fill="#6ED093"/>
<path d="M1486.56 531.298L1487.13 531.125L1486.36 529.138L1485.79 529.321C1485.34 529.466 1475.01 532.861 1472.14 543.585L1471.99 544.174L1473.99 544.859L1474.14 544.28C1476.75 534.52 1486.16 531.433 1486.56 531.298Z" fill="#6ED093"/>
<path d="M1489.64 517.738L1490.25 517.651L1489.76 515.607L1489.17 515.693C1479.38 517.121 1473.79 520.66 1470.85 523.409L1470.65 523.612V523.785L1469.46 528.048L1471.29 526.061C1473.5 523.621 1478.87 519.31 1489.64 517.738Z" fill="#6ED093"/>
<path d="M1517.22 509.897C1539.19 510.756 1572.81 518.278 1608.29 549.256L1609.95 550.703L1609.26 548.649C1609.09 548.176 1608.94 547.684 1608.77 547.241V547.038L1608.54 546.855C1572.9 516.137 1539.13 508.682 1517.08 507.833C1494.48 506.956 1478.39 512.559 1473.99 514.295L1473.77 514.382L1473.69 514.604C1473.57 514.893 1473.47 515.192 1473.37 515.481L1472.8 517.082L1474.16 516.523C1477.15 515.202 1493.48 508.933 1517.22 509.897Z" fill="#6ED093"/>
<path d="M1519.83 515.433C1494.73 516.397 1477.82 526.601 1477.1 527.006L1476.58 527.315L1477.8 529.09L1478.31 528.781C1479 528.357 1495.54 518.375 1520.12 517.458C1541.92 516.629 1575.38 522.927 1610.97 557.628L1612.6 559.219L1611.97 557.068C1611.82 556.548 1611.66 556.027 1611.49 555.516L1611.45 555.342L1611.31 555.217C1575.51 520.844 1541.8 514.613 1519.83 515.433Z" fill="#6ED093"/>
<path d="M1566.31 529.302C1552.5 523.526 1537.45 521.388 1522.58 523.091C1497.7 526.052 1481.42 539.303 1481.27 539.438L1480.83 539.815L1482.21 541.444L1482.66 541.068C1494.53 532.372 1508.42 526.891 1523.01 525.155C1544.57 522.58 1577.77 527.624 1613.32 566.173L1614.96 567.948L1614.36 565.662C1614.2 565.103 1614.06 564.553 1613.91 564.003V563.839L1613.79 563.723C1598.61 547.511 1582.64 535.937 1566.31 529.302Z" fill="#6ED093"/>
<path d="M1546.32 529.572C1510.77 526.331 1485.79 551.542 1485.52 551.754L1485.1 552.179L1486.66 553.674L1487.07 553.259C1487.31 553.008 1511.73 528.424 1546.31 531.588C1570.17 533.767 1593.45 548.253 1615.48 574.641L1617.15 576.637L1616.55 574.168C1616.41 573.609 1616.28 573.069 1616.15 572.509V572.336L1616.02 572.172C1593.82 546.132 1570.34 531.781 1546.32 529.572Z" fill="#6ED093"/>
<path d="M1486.76 568.43C1503.9 543.749 1538.45 527.556 1577.07 547.019C1597.13 557.136 1605.53 569.153 1615.25 583.06C1616.18 584.379 1617.12 585.716 1618.08 587.073L1619.65 589.291L1619.18 586.687C1619.07 586.06 1618.96 585.443 1618.85 584.883V584.7L1618.74 584.555C1618.13 583.687 1617.52 582.829 1616.93 581.961C1607.01 567.803 1598.45 555.574 1577.88 545.186C1538.19 525.164 1502.67 541.792 1485.06 567.147C1468.97 590.294 1470.12 616.961 1472.24 630.801V630.936C1472.74 632.257 1473.2 633.578 1473.76 634.871L1474.94 634.62C1470.18 610.2 1474.5 586.089 1486.76 568.43Z" fill="#6ED093"/>
<path d="M1570.95 634.726C1567.31 625.313 1565.58 624.32 1564.23 624.648C1560.87 625.458 1563.98 637.735 1564.01 637.861C1565.74 644.506 1593.1 659.754 1604.78 665.994L1605.31 666.283L1606.27 664.528L1605.68 664.21C1587.29 654.362 1567.25 642.172 1566 637.504C1564.63 632.257 1564.59 628.139 1564.88 626.895C1565.41 627.483 1566.7 629.383 1568.98 635.295C1574.43 649.386 1595.43 657.584 1607.47 661.21L1607.94 661.355L1608.16 660.94L1608.56 660.159L1608.88 659.484L1608.12 659.252C1596.43 655.693 1575.99 647.746 1570.95 634.726Z" fill="#6ED093"/>
<path d="M1573.75 631.418C1570.06 622.873 1567.16 619.121 1564.35 619.305C1561.55 619.488 1559.55 623.625 1558.16 632.884C1556.24 645.306 1591.2 664.972 1601.96 670.71L1602.44 670.97L1602.73 670.546C1602.9 670.315 1603.04 670.073 1603.18 669.842L1603.53 669.283L1602.91 668.945C1581.39 657.458 1558.89 642.027 1560.21 633.347C1561.85 622.622 1563.85 621.378 1564.68 621.34C1565.27 621.34 1567.56 622.111 1571.85 632.055C1576.15 641.998 1588.71 650.794 1609.14 657.815L1609.66 657.999L1609.86 657.526C1609.92 657.401 1609.98 657.285 1610.02 657.169C1610.07 657.053 1610.15 656.918 1610.21 656.783L1610.49 656.147L1609.78 655.915C1590.2 649.212 1577.73 640.735 1573.75 631.418Z" fill="#6ED093"/>
<path d="M1576.54 628.091C1571.88 618.292 1567.59 613.508 1563.36 613.47C1559.13 613.431 1555.56 618.292 1552.34 628.158C1546.5 646.078 1586.46 668.762 1598.84 675.281L1599.31 675.532L1600.5 673.893L1599.82 673.536C1591.27 669.003 1548.9 645.567 1554.31 628.949C1557.19 620.173 1560.36 615.534 1563.57 615.534C1566.78 615.534 1570.56 620.182 1574.68 628.853C1579.25 638.497 1591.01 646.82 1610.62 654.401L1611.13 654.604L1611.36 654.141C1611.49 653.883 1611.6 653.619 1611.7 653.35L1611.93 652.752L1611.29 652.511C1592.2 645.133 1580.84 637.137 1576.54 628.091Z" fill="#6ED093"/>
<path d="M1579.33 624.783C1573.34 613.354 1567.45 607.423 1561.83 607.307C1556.21 607.191 1551.12 612.611 1546.51 623.519C1541.9 634.427 1549.27 647.737 1567.74 662.097C1576.48 668.719 1585.75 674.612 1595.44 679.718L1595.89 679.949L1596.18 679.593L1596.71 678.956L1597.17 678.368L1596.46 678.001C1586.8 672.938 1539.12 646.589 1548.42 624.484C1552.69 614.347 1557.23 609.274 1561.94 609.4C1566.65 609.525 1571.94 615.022 1577.51 625.631C1583.86 637.716 1600.24 645.885 1612.01 650.948L1612.59 651.199L1612.9 650.399C1612.96 650.225 1613.02 650.061 1613.08 649.887L1613.28 649.328L1612.7 649.077C1601.24 644.11 1585.33 636.24 1579.33 624.783Z" fill="#6ED093"/>
<path d="M1582.12 621.465C1574.28 607.876 1567 601.211 1559.85 600.941C1552.93 600.739 1546.5 606.786 1540.63 618.919C1537.75 624.976 1537.57 631.544 1540.21 638.42C1548.73 660.651 1584.6 680.248 1591.7 683.952L1592.12 684.164L1592.42 683.855L1592.98 683.238L1593.51 682.65L1592.75 682.254C1585.75 678.618 1550.4 659.387 1542.13 637.822C1539.71 631.515 1539.84 625.496 1542.52 619.941C1547.92 608.705 1553.7 603.015 1559.69 603.015H1559.93C1566.25 603.208 1572.91 609.535 1580.32 622.372C1586.82 633.636 1601.33 641.661 1613.25 647.389L1613.85 647.669L1614.07 647.09C1614.17 646.84 1614.25 646.579 1614.34 646.319L1614.52 645.779L1613.97 645.518C1602.39 639.925 1588.27 632.141 1582.12 621.465Z" fill="#6ED093"/>
<path d="M1584.9 618.147C1578.02 607.307 1568.68 594.769 1557.59 594.46H1557.25C1549.26 594.46 1541.71 601.144 1534.81 614.338C1530.79 622.053 1530.35 630.242 1533.49 638.748C1542.64 663.554 1580.21 684.145 1587.65 688.022L1588.04 688.224L1588.34 687.954C1588.55 687.761 1588.76 687.569 1588.97 687.366L1589.58 686.778L1588.76 686.353C1581.42 682.534 1544.4 662.425 1535.42 638.169C1532.54 630.242 1532.92 622.584 1536.67 615.408C1543.31 602.687 1550.39 596.302 1557.73 596.515C1567.74 596.756 1576.59 608.725 1583.18 619.131C1589.91 629.74 1602.75 637.513 1614.46 643.754L1615.1 644.091L1615.31 643.455C1615.4 643.184 1615.47 642.914 1615.55 642.654L1615.67 642.162L1615.2 641.902C1603.79 635.806 1591.27 628.207 1584.9 618.147Z" fill="#6ED093"/>
<path d="M1587.68 614.81L1587.52 614.579C1580.63 604.655 1569.1 588.037 1555.1 587.873H1554.91C1545.7 587.873 1536.96 595.232 1528.97 609.747C1526.43 614.162 1524.9 619.092 1524.49 624.176C1524.09 629.259 1524.82 634.37 1526.63 639.134C1536.03 665.425 1572.28 686.151 1583.16 691.88L1583.53 692.073L1583.89 691.783C1584.11 691.619 1584.32 691.455 1584.52 691.282L1585.2 690.693L1584.35 690.25C1576.66 686.247 1538 664.972 1528.57 638.594C1526.86 634.099 1526.18 629.28 1526.57 624.487C1526.95 619.694 1528.4 615.047 1530.79 610.885C1538.48 596.901 1546.74 589.85 1555.26 589.966C1568.14 590.12 1579.23 606.13 1585.85 615.688L1586.02 615.919C1592.99 625.979 1605.46 634.109 1615.54 640.031L1616.21 640.436L1616.77 638.449L1616.32 638.189C1606.51 632.383 1594.36 624.484 1587.68 614.81Z" fill="#6ED093"/>
<path d="M1590.51 611.512C1590.17 611.059 1589.8 610.547 1589.43 610.056L1588.51 608.85C1580.83 598.559 1568.06 581.334 1552.62 581.296C1542.2 581.296 1532.29 589.33 1523.15 605.175C1516.79 616.228 1515.67 627.811 1519.81 639.606C1529.65 667.662 1567 689.44 1578.21 695.448L1578.55 695.622L1580.47 694.358L1579.51 693.857C1568.41 687.974 1531.47 666.63 1521.78 639.086C1517.85 627.879 1518.9 616.903 1524.99 606.294C1533.76 591.056 1543.13 583.34 1552.85 583.34C1567.14 583.34 1579.51 600.016 1586.91 609.959C1587.62 610.924 1588.29 611.821 1588.92 612.64C1596.23 622.285 1607.54 630.271 1616.57 636.154L1617.28 636.617L1617.48 635.845L1617.68 635.016L1617.77 634.582L1617.37 634.321C1608.54 628.621 1597.55 620.809 1590.51 611.512Z" fill="#6ED093"/>
<path d="M1596.92 609.448C1578.56 581.884 1562.17 575.991 1551.64 575.904C1539.15 575.856 1528.28 583.62 1520.9 597.99C1512.25 614.926 1511.08 631.553 1517.52 647.399C1528.65 674.79 1559.55 692.478 1572.28 698.804L1572.56 698.94L1572.82 698.824C1573.13 698.679 1573.44 698.515 1573.78 698.351L1574.8 697.801L1573.68 697.242C1563.8 692.42 1530.71 674.491 1519.44 646.763C1513.23 631.515 1514.36 615.457 1522.76 599.051C1529.73 585.462 1539.96 577.978 1551.58 577.978H1551.8C1561.79 578.055 1577.42 583.765 1595.23 610.49C1600.69 618.687 1610.45 626.104 1617.67 630.878L1618.42 631.37L1618.6 630.463C1618.66 630.203 1618.71 629.943 1618.76 629.692L1618.83 629.277L1618.46 629.026C1611.51 624.407 1602.13 617.25 1596.92 609.448Z" fill="#6ED093"/>
<path d="M1599.43 605.031C1591.88 593.805 1584.56 585.857 1576.37 580.023C1565.36 572.162 1554.07 569.028 1543.71 570.937C1532.45 573.03 1522.57 581.074 1515.77 593.583C1500.79 621.243 1508.52 644.4 1517.69 658.944C1531.82 681.676 1557.72 695.709 1568.2 700.685L1568.46 700.801L1568.7 700.704C1569.05 700.569 1569.38 700.434 1569.66 700.28L1570.87 699.74L1569.6 699.152C1559.17 694.329 1533.41 680.538 1519.36 657.97C1510.54 643.908 1503.03 621.513 1517.59 594.682C1524.1 582.665 1533.56 574.959 1544.24 572.972C1554.01 571.159 1564.73 574.168 1575.24 581.652C1583.16 587.304 1590.3 595.058 1597.7 606.053C1601.96 612.399 1608.93 619.199 1618.4 626.307L1619.18 626.885L1619.35 625.988C1619.42 625.689 1619.47 625.39 1619.51 625.082L1619.57 624.696L1619.24 624.455C1610.18 617.617 1603.49 611.088 1599.43 605.031Z" fill="#6ED093"/>
<path d="M1601.94 600.623C1593.53 588.23 1585.95 580.37 1576.61 574.207C1564.54 566.289 1552.19 563.28 1540.89 565.527C1528.7 567.928 1517.97 576.329 1510.67 589.165C1498.18 611.087 1498.43 636.289 1511.25 658.317C1525.46 682.708 1552.57 697.203 1563.51 702.305L1563.73 702.402L1563.94 702.344C1564.31 702.248 1564.66 702.132 1565.02 702.016L1566.58 701.505L1565.09 700.83C1554.14 695.844 1527.15 681.628 1513.03 657.429C1505.72 644.892 1495.93 619.469 1512.49 590.332C1519.53 577.968 1529.79 569.886 1541.46 567.581C1552.22 565.45 1564.02 568.343 1575.58 575.933C1584.66 581.893 1592.04 589.599 1600.26 601.703C1604.41 607.828 1610.75 614.444 1619.11 621.388L1619.94 622.082L1620.09 621.06C1620.13 620.742 1620.17 620.423 1620.2 620.095V619.758L1619.92 619.526C1611.98 612.833 1605.89 606.477 1601.94 600.623Z" fill="#6ED093"/>
<path d="M1604.44 596.206C1597.77 586.446 1589.79 576.319 1576.84 568.391C1543.54 548.003 1517.62 564.466 1505.55 584.787C1492.31 607.027 1492.1 634.283 1504.84 657.709C1518.34 682.476 1543.91 697.078 1557.94 703.588L1558.13 703.675H1558.32C1558.78 703.598 1559.28 703.521 1559.7 703.424L1561.54 703.067L1559.75 702.257C1545.69 695.882 1520.07 681.521 1506.63 656.928C1494.2 634.167 1494.47 607.664 1507.34 586.041C1518.96 566.51 1543.85 550.645 1575.88 570.233C1588.44 577.949 1596.23 587.825 1602.78 597.373C1607.66 604.192 1613.3 610.436 1619.57 615.987L1620.49 616.826L1620.59 615.659C1620.59 615.321 1620.64 614.984 1620.66 614.695L1620.05 614.588L1620.66 614.675V614.367L1620.42 614.145C1614.45 608.776 1609.09 602.759 1604.44 596.206Z" fill="#6ED093"/>
<path d="M1606.95 591.789C1598.69 579.839 1590.46 570.301 1577.08 562.595C1561.71 553.693 1545.95 551.253 1531.6 555.535C1519.11 559.287 1508.02 568.073 1500.41 580.36C1486.21 603.208 1485.47 631.881 1498.41 657.053C1511.47 682.447 1536.84 697.445 1550.87 704.128L1551 704.186H1551.13C1551.74 704.186 1552.35 704.186 1552.96 704.186L1555.36 704.051L1553.1 703.01C1538.96 696.471 1513.3 681.724 1500.26 656.282C1487.66 631.775 1488.39 603.854 1502.18 581.595C1514.8 561.254 1541.76 544.55 1576.15 564.398C1589.15 571.902 1597.19 581.218 1605.25 592.898C1609.6 599.092 1614.47 604.9 1619.81 610.258L1620.77 611.29V609.921C1620.77 609.544 1620.77 609.178 1620.77 608.802V608.532L1620.58 608.339C1615.59 603.207 1611.03 597.672 1606.95 591.789Z" fill="#6ED093"/>
<path d="M1609.46 587.381C1602.07 576.772 1593.5 565.652 1577.33 556.789C1560.82 547.733 1543.93 545.437 1528.5 550.163C1515.19 554.233 1503.4 563.395 1495.28 575.953C1477.44 603.565 1481.89 635.633 1491.99 656.436C1503.52 680.056 1524.91 694.908 1540.87 703.212L1541.03 703.289H1541.12C1541.94 703.443 1542.79 703.569 1543.64 703.675L1547.13 704.119L1543.9 702.508C1527.47 694.339 1505.47 679.573 1493.85 655.665C1483.98 635.411 1479.64 604.105 1497.05 577.187C1511.81 554.329 1542.09 539.718 1576.46 558.573C1592.22 567.253 1600.57 578.074 1607.79 588.471C1611.49 593.786 1615.49 598.88 1619.78 603.729L1620.89 604.992L1620.85 603.218C1620.85 602.851 1620.85 602.485 1620.85 602.089V601.867L1620.69 601.694C1616.69 597.132 1612.94 592.354 1609.46 587.381Z" fill="#6ED093"/>
<path d="M1620.23 594.393V594.21L1620.11 594.055C1617 590.062 1614.26 586.205 1611.98 582.964C1603.84 571.391 1595.08 560.155 1577.59 550.993C1539.97 531.241 1506.57 547.086 1490.16 571.555C1471.15 599.91 1475.81 634.668 1485.59 655.809C1492.48 670.797 1503.95 684 1519.61 694.995L1519.78 695.12C1522.07 696.493 1524.43 697.726 1526.86 698.814L1527.36 697.734C1508.59 686.161 1495.16 671.829 1487.45 655.086C1477.91 634.437 1473.34 600.498 1491.91 572.808C1507.84 549.044 1540.26 533.642 1576.76 552.796C1593.77 561.727 1602.35 572.673 1610.33 584.044C1612.65 587.362 1615.77 591.76 1619.31 596.225L1620.56 597.836L1620.39 595.907C1620.33 595.393 1620.27 594.888 1620.23 594.393Z" fill="#6ED093"/>
<path d="M1536.28 466.757C1534.96 466.629 1533.63 466.655 1532.31 466.834C1540.27 469.65 1548.36 472.051 1556.55 474.029C1552.61 471.145 1541.14 467.172 1536.28 466.757Z" fill="#6ED093"/>
<path d="M189.563 657.311C209.403 534.738 53.1583 451.365 -27.4443 425L-22.0192 1206H1090.92V1118.77C1032.01 848.674 797.182 894.142 687.129 950.638C609.885 983.632 423.775 1043.29 297.291 1017.98C139.186 986.344 164.762 810.528 189.563 657.311Z" fill="#B5D6C1" fill-opacity="0.18"/>
</g>
<defs>
<clipPath id="clip0_188_158">
<rect width="2470" height="1113" fill="white"/>
</clipPath>
</defs>
</svg>
