<svg width="1728" height="1117" viewBox="0 0 1728 1117" fill="none" xmlns="http://www.w3.org/2000/svg">
<g clip-path="url(#clip0_191_292)">
<rect width="1728" height="1117" fill="white"/>
<rect width="1440" height="1024" transform="translate(175 62)" fill="#FDFFFD"/>
<path d="M717.275 551.635C705.733 677.052 799.016 762.134 847.1 788.998L842.09 -9.94461L178.988 -8.46939L179.186 80.7652C214.896 356.991 354.708 310.166 420.151 252.226C466.099 218.372 576.85 157.094 652.268 182.818C746.541 214.974 731.703 394.864 717.275 551.635Z" fill="#E8EFEA" fill-opacity="0.41"/>
<rect x="842" y="-13" width="886" height="1148" fill="#E5E5E5" fill-opacity="0.41"/>
<g opacity="0.65">
<path d="M1929 -49C1929 150.927 1766.93 313 1567 313C1367.07 313 1205 150.927 1205 -49C1205 -248.927 1367.07 -411 1567 -411C1766.93 -411 1929 -248.927 1929 -49Z" fill="#E9EFEB"/>
<circle cx="1567" cy="-27" r="286" fill="#E5E5E5"/>
<circle cx="1567" cy="-27" r="219" fill="#E2E2E2"/>
</g>
<path d="M969.514 577.311C981.081 454.738 889.991 371.365 843 345L846.163 1126H1495V1038.77C1460.66 768.674 1323.75 814.142 1259.59 870.638C1214.56 903.632 1106.06 963.292 1032.32 937.982C940.145 906.344 955.055 730.528 969.514 577.311Z" fill="#E8EFEA"/>
<path d="M1424.15 453.915C1423.1 457.052 1421.29 459.88 1418.87 462.146C1416.46 464.413 1413.53 466.047 1410.33 466.904H1410.23C1407.44 467.601 1404.61 468.128 1401.75 468.482L1400.36 468.664C1390.69 469.797 1380.77 469.575 1371.08 470.971L1369.62 471.193C1364.81 472.167 1359.94 472.803 1355.04 473.095C1353.94 473.115 1352.85 473.075 1351.76 472.974C1347.43 472.758 1343.28 471.155 1339.92 468.401C1335.65 464.597 1333.85 458.932 1332.74 453.227C1335.65 452.337 1338.88 451.318 1342.43 450.172C1368.17 441.715 1340.09 427.552 1349.19 404.932C1361.92 373.289 1413.93 375.514 1413.04 397.102C1429.33 401.169 1431.66 432.347 1424.15 453.915Z" fill="#263238"/>
<path d="M1352.49 415.999C1351.29 420.936 1350.91 426.116 1349.13 430.85C1347.35 435.584 1343.77 440.116 1338.79 441.128C1346.28 444.446 1355.54 440.784 1360.6 434.35C1365.66 427.916 1367.28 419.358 1367.44 411.144C1367.44 409.242 1367.78 406.956 1366.45 405.62C1356.88 396.111 1353.66 411.063 1352.49 415.999Z" fill="#263238"/>
<path d="M1345.29 500.489L1343.26 502.31L1341.67 503.726C1340.49 504.779 1339.34 505.75 1338.15 506.68C1335.78 508.562 1333.39 510.444 1330.94 512.184C1330.44 512.527 1329.93 512.892 1329.45 513.195C1328.96 513.558 1328.46 513.895 1327.95 514.207L1326.76 515.016C1323.07 517.444 1319.35 519.71 1315.53 521.855C1312.75 523.379 1309.94 524.795 1307.09 526.103C1304.42 527.358 1301.69 528.511 1299 529.563L1294.67 531.121C1293.19 531.627 1291.71 532.031 1290.28 532.517L1288.05 533.185L1285.64 533.792C1284.07 534.156 1282.47 534.52 1280.93 534.763C1268.91 536.502 1256.71 536.625 1244.65 535.127C1238.79 534.5 1232.96 533.63 1227.21 532.638C1223.17 531.93 1219.12 531.101 1215.07 530.109C1213.39 529.725 1211.69 529.28 1209.99 528.815L1211.75 519.75L1216.61 520.175C1220.66 520.499 1224.6 520.802 1228.57 520.985C1234.17 521.248 1239.78 521.551 1245.36 521.551C1256.17 521.78 1266.98 520.837 1277.59 518.739C1278.82 518.456 1280.04 518.112 1281.23 517.768L1282.97 517.201L1284.83 516.493C1286.05 516.007 1287.26 515.643 1288.56 515.057L1292.14 513.438C1296.98 511.196 1301.71 508.711 1306.3 505.992C1309.48 504.111 1312.61 502.088 1315.69 499.923L1317.53 498.628C1317.89 498.385 1318.28 498.122 1318.64 497.839L1319.82 497.009L1320.18 496.746C1322.2 495.269 1324.23 493.691 1326.25 492.113L1329.32 489.564L1332.18 487.095L1341.77 496.969L1345.29 500.489Z" fill="#FFC3BD"/>
<path d="M1218.67 520.803L1200.6 515.198L1203.9 533.165C1203.9 533.165 1213.57 533.165 1218.18 527.52L1218.67 520.803Z" fill="#FFC3BD"/>
<path d="M1188 518.881L1191.44 530.575L1203.94 533.165L1200.64 515.198L1188 518.881Z" fill="#FFC3BD"/>
<path d="M1202.22 520.256C1200.3 517.092 1199.25 513.477 1199.17 509.776C1199.35 504.961 1202.08 505.305 1202.08 505.305C1202.08 505.305 1201.58 511.03 1209.06 520.681L1209.24 520.944L1202.22 520.256Z" fill="#FFC3BD"/>
<path d="M1358.41 495.613C1356.85 500.307 1351.01 504.698 1344.88 508.158C1340.19 510.766 1335.32 513.038 1330.31 514.956L1328.67 515.563L1327.94 514.308L1318.74 498.021L1317.22 495.33L1318.55 493.975C1324.74 487.77 1331.52 482.18 1338.79 477.283C1342.59 474.977 1346.11 473.58 1348.52 474.147C1359.54 476.555 1361.53 486.388 1358.41 495.613Z" fill="#6ED093"/>
<path opacity="0.3" d="M1358.41 495.613C1356.85 500.307 1351.01 504.698 1344.88 508.158C1340.19 510.766 1335.32 513.038 1330.31 514.956L1328.67 515.563L1327.94 514.308L1318.74 498.021L1317.22 495.33L1318.55 493.975C1324.74 487.77 1331.52 482.18 1338.79 477.283C1342.59 474.977 1346.11 473.58 1348.52 474.147C1359.54 476.555 1361.53 486.388 1358.41 495.613Z" fill="black"/>
<path d="M1330.37 514.854C1330.48 515.21 1330.45 515.592 1330.3 515.932C1330.16 516.273 1329.89 516.55 1329.56 516.716C1329.2 516.903 1328.79 516.951 1328.39 516.85C1328 516.749 1327.66 516.507 1327.44 516.169L1326.81 515.016L1317.68 498.709L1316.07 495.816C1315.96 495.63 1315.9 495.425 1315.87 495.214C1315.85 495.002 1315.86 494.788 1315.92 494.583C1315.98 494.378 1316.08 494.187 1316.21 494.02C1316.34 493.853 1316.51 493.714 1316.69 493.61C1316.82 493.539 1316.96 493.485 1317.1 493.448C1317.36 493.391 1317.64 493.4 1317.9 493.474C1318.16 493.548 1318.4 493.685 1318.59 493.873C1318.71 493.982 1318.8 494.104 1318.88 494.237L1320.31 496.827L1329.48 513.195L1330.25 514.571C1330.28 514.669 1330.32 514.764 1330.37 514.854Z" fill="#6ED093"/>
<path d="M1429.23 472.002C1435.68 474.977 1436.47 476.676 1435.46 481.35C1433.44 490.394 1431.86 498.406 1430.52 505.629C1430.2 507.369 1429.9 509.068 1429.59 510.707C1429.59 511.01 1429.49 511.314 1429.43 511.638C1429.43 511.961 1429.31 512.245 1429.25 512.548C1429.19 512.851 1429.09 513.519 1428.99 513.985C1422.61 528.673 1420 546.538 1421.64 572.861C1421.78 574.884 1421.8 576.907 1421.9 578.93H1415.31H1393.66H1390.36L1365.07 579.092H1361.79H1354.61C1354.43 577.959 1354.25 576.887 1354.07 575.794C1352.2 564.788 1350.67 554.935 1349.37 546.194C1348.64 541.197 1347.98 536.544 1347.35 532.234C1347.35 532.234 1336.54 518.901 1340.49 510.727C1342.82 505.932 1343.89 476.595 1344.29 475.321C1344.7 474.046 1345.04 474.066 1345.04 474.066C1347.07 473.641 1349.09 473.216 1351.01 472.852C1356.9 471.652 1362.83 470.654 1368.77 469.858C1370.8 469.575 1372.92 469.312 1375.01 469.089C1383.19 468.445 1391.4 468.256 1399.61 468.522C1400.13 468.522 1400.62 468.522 1401.15 468.522C1403.17 468.522 1405.19 468.684 1407.22 468.806C1409.6 468.927 1411.99 469.129 1414.36 469.332C1417.54 469.499 1420.7 469.83 1423.85 470.323L1429.23 472.002Z" fill="#6ED093"/>
<path d="M1395.99 433.177C1394.29 443.596 1392.91 462.635 1400.4 469.291C1400.4 469.291 1396.55 491.749 1377.61 495.148C1368.47 492.842 1368.23 470.404 1368.23 470.404C1379.6 467.228 1375.79 455.857 1376.6 444.345L1395.99 433.177Z" fill="#FFC3BD"/>
<path opacity="0.2" d="M1374.38 433.177C1376.4 441.431 1378.43 455.27 1375.51 464.112C1381.58 462.837 1390.57 458.042 1391.82 452.681C1392.19 449.057 1392.26 445.411 1392.04 441.775L1374.38 433.177Z" fill="black"/>
<path d="M1409.7 419.56C1407.41 436.738 1406.83 444.062 1397.56 452.296C1383.52 464.699 1362.92 458.143 1360.01 440.663C1357.38 424.881 1361.53 399.449 1378.91 393.764C1382.73 392.503 1386.81 392.238 1390.77 392.993C1394.72 393.749 1398.42 395.501 1401.51 398.084C1404.59 400.666 1406.97 403.994 1408.42 407.752C1409.86 411.51 1410.32 415.574 1409.76 419.56H1409.7Z" fill="#FFC3BD"/>
<path d="M1405.58 398.984C1395 410.577 1361.39 412.742 1356.29 409.545C1366.61 395.16 1382.6 387.027 1391.6 388.908C1397.36 390.4 1402.34 393.995 1405.58 398.984Z" fill="#263238"/>
<path d="M1412.78 397.082H1412.64L1412.35 397.466L1412.78 397.082Z" fill="#263238"/>
<path d="M1413.04 396.819L1412.74 397.081C1412.8 397.068 1412.87 397.036 1412.92 396.99C1412.98 396.944 1413.02 396.885 1413.04 396.819Z" fill="#263238"/>
<path d="M1412.63 397.082V396.961L1412.35 397.082C1412.35 397.082 1412.57 397.082 1412.63 397.082Z" fill="#263238"/>
<path d="M1413.79 385.711C1414.64 387.509 1414.99 389.504 1414.8 391.484C1414.61 393.463 1413.89 395.356 1412.72 396.961C1413.8 396.528 1414.75 395.804 1415.45 394.87C1416.15 393.935 1416.57 392.826 1416.69 391.663C1416.8 390.501 1416.58 389.33 1416.07 388.28C1415.56 387.23 1414.77 386.341 1413.79 385.711Z" fill="#263238"/>
<path d="M1414.74 436.495C1413.81 437.888 1412.62 439.085 1411.23 440.015C1409.85 440.946 1408.29 441.592 1406.65 441.917C1402.28 442.747 1400.45 438.781 1401.97 434.856C1403.33 431.295 1407.25 426.763 1411.46 427.512C1412.93 427.867 1414.2 428.79 1414.99 430.079C1415.79 431.368 1416.04 432.918 1415.69 434.391C1415.52 435.149 1415.19 435.864 1414.74 436.495Z" fill="#FFC3BD"/>
<path d="M1399.24 400.319C1396.65 403.374 1396.92 407.745 1396.98 411.751C1397.14 423.485 1398.54 438.214 1389.57 443.353C1400.17 440.4 1408.65 435.402 1414.05 425.812C1418.32 418.225 1418.1 413.673 1414.86 405.58C1412.44 399.47 1405.13 393.44 1399.24 400.319Z" fill="#263238"/>
<path opacity="0.1" d="M1414.58 483.737C1414.58 483.737 1413.85 515.279 1416.6 529.26C1419.35 543.241 1421.52 539.761 1421.52 539.761C1421.52 539.761 1422.87 518.051 1425.56 512.002C1428.26 505.952 1414.58 483.737 1414.58 483.737Z" fill="black"/>
<path d="M1445.27 509.938C1445.09 512.083 1444.96 514.693 1444.84 517.1C1444.72 519.508 1444.66 522.037 1444.66 524.505C1444.66 529.462 1444.66 534.439 1445.04 539.356C1445.63 549.095 1447.14 558.756 1449.56 568.207C1450.2 570.453 1450.87 572.82 1451.58 574.985C1452.29 577.15 1453.26 579.396 1454.21 581.641C1456.23 586.133 1458.4 590.706 1460.7 595.238C1465.34 604.322 1470.25 613.447 1475.13 622.551L1467.36 628.014C1460.36 619.978 1453.86 611.518 1447.9 602.683C1444.88 598.272 1442.01 593.74 1439.34 588.885C1438 586.457 1436.71 583.988 1435.54 581.277C1434.36 578.566 1433.51 575.976 1432.5 573.306C1429.06 562.747 1426.88 551.821 1425.99 540.752C1425.46 535.292 1425.22 529.808 1425.26 524.323C1425.26 521.572 1425.26 518.881 1425.46 516.129C1425.66 513.378 1425.76 510.747 1426.11 507.713L1445.27 509.938Z" fill="#FFC3BD"/>
<path d="M1472.64 620.588L1485.79 629.794L1469.69 640.072C1469.69 640.072 1462.55 630.361 1465.74 620.487L1472.64 620.588Z" fill="#FFC3BD"/>
<path d="M1490.27 644.948L1476.47 652.232L1469.75 640.092L1485.8 629.794L1490.27 644.948Z" fill="#FFC3BD"/>
<path d="M1448.39 486.57C1451.43 509.371 1444.59 513.074 1444.59 513.074L1423.24 515.097C1423.24 515.097 1412.74 483.312 1418.93 475.543C1425.39 467.45 1446.92 475.502 1448.39 486.57Z" fill="#6ED093"/>
<path opacity="0.3" d="M1448.39 486.57C1451.43 509.371 1444.59 513.074 1444.59 513.074L1423.24 515.097C1423.24 515.097 1412.74 483.312 1418.93 475.543C1425.39 467.45 1446.92 475.502 1448.39 486.57Z" fill="black"/>
<path d="M1446.61 512.75C1446.65 513.19 1446.51 513.627 1446.23 513.968C1445.95 514.308 1445.55 514.525 1445.11 514.571L1423.42 516.594C1422.99 516.634 1422.55 516.498 1422.21 516.218C1421.88 515.937 1421.66 515.534 1421.62 515.097C1421.58 514.665 1421.7 514.233 1421.98 513.895C1422.25 513.558 1422.65 513.342 1423.08 513.297L1444.77 511.273C1445.21 511.228 1445.65 511.357 1445.99 511.634C1446.34 511.91 1446.56 512.311 1446.61 512.75Z" fill="#6ED093"/>
<path d="M1354 575.916L1351.05 582.37C1350.81 582.875 1351.35 583.381 1352.22 583.321L1421.84 580.164C1422.49 580.164 1423.01 579.8 1423.03 579.416L1423.46 573.063C1423.46 572.618 1422.91 572.254 1422.21 572.274L1355.16 575.288C1354.93 575.285 1354.7 575.341 1354.5 575.45C1354.29 575.56 1354.12 575.721 1354 575.916Z" fill="#263238"/>
<path d="M1363.96 583.563H1362.06C1361.67 583.563 1361.37 583.402 1361.39 583.179L1362 574.904C1362 574.681 1362.34 574.459 1362.72 574.439H1364.65C1365.01 574.439 1365.33 574.621 1365.29 574.843L1364.71 583.118C1364.65 583.263 1364.54 583.385 1364.41 583.465C1364.27 583.545 1364.12 583.58 1363.96 583.563Z" fill="#6ED093"/>
<path d="M1416.89 581.641H1414.98C1414.6 581.641 1414.3 581.479 1414.3 581.237L1414.9 572.962C1414.9 572.739 1415.25 572.496 1415.63 572.496H1417.65C1417.73 572.472 1417.8 572.463 1417.88 572.472C1417.95 572.481 1418.03 572.507 1418.09 572.548C1418.15 572.589 1418.21 572.643 1418.25 572.708C1418.29 572.773 1418.31 572.846 1418.32 572.921L1417.74 581.196C1417.61 581.419 1417.27 581.621 1416.89 581.641Z" fill="#6ED093"/>
<path d="M1392.61 582.612H1390.68C1390.61 582.637 1390.54 582.646 1390.46 582.637C1390.39 582.628 1390.32 582.602 1390.25 582.561C1390.19 582.52 1390.14 582.465 1390.1 582.4C1390.06 582.335 1390.04 582.262 1390.04 582.187L1390.62 573.933C1390.62 573.71 1390.99 573.488 1391.37 573.467H1393.27C1393.66 573.467 1393.96 573.649 1393.94 573.892L1393.33 582.167C1393.31 582.41 1392.93 582.612 1392.61 582.612Z" fill="#6ED093"/>
<path d="M1383.2 422.555C1383.1 423.951 1382.25 425.003 1381.36 424.962C1380.47 424.922 1379.76 423.728 1379.86 422.312C1379.96 420.895 1380.79 419.864 1381.7 419.904C1382.61 419.945 1383.28 421.159 1383.2 422.555Z" fill="#263238"/>
<path d="M1367.31 421.442C1367.19 422.838 1366.38 423.91 1365.47 423.87C1364.56 423.829 1363.87 422.615 1364 421.199C1364.12 419.783 1364.91 418.731 1365.82 418.771C1366.73 418.812 1367.48 420.005 1367.31 421.442Z" fill="#263238"/>
<path d="M1366.22 418.872L1362.94 417.76C1362.94 417.76 1364.48 420.349 1366.22 418.872Z" fill="#263238"/>
<path d="M1371.34 424.153C1369.86 427.265 1367.97 430.164 1365.71 432.772C1366.39 433.327 1367.18 433.728 1368.03 433.948C1368.88 434.168 1369.77 434.202 1370.63 434.046L1371.34 424.153Z" fill="#ED847E"/>
<path d="M1377.8 439.793C1376.94 439.874 1376.07 439.874 1375.21 439.793C1375.17 439.79 1375.12 439.779 1375.08 439.759C1375.04 439.739 1375.01 439.712 1374.98 439.678C1374.94 439.644 1374.92 439.605 1374.91 439.562C1374.89 439.519 1374.89 439.474 1374.89 439.429C1374.9 439.339 1374.94 439.257 1375.01 439.197C1375.08 439.137 1375.16 439.104 1375.25 439.105C1377.01 439.273 1378.79 439.021 1380.43 438.37C1382.07 437.72 1383.53 436.689 1384.7 435.362C1384.72 435.323 1384.75 435.288 1384.78 435.259C1384.81 435.231 1384.85 435.209 1384.89 435.196C1384.94 435.183 1384.98 435.178 1385.02 435.182C1385.07 435.187 1385.11 435.199 1385.15 435.22C1385.19 435.233 1385.22 435.254 1385.25 435.283C1385.28 435.311 1385.31 435.346 1385.32 435.385C1385.34 435.423 1385.34 435.465 1385.34 435.506C1385.34 435.548 1385.33 435.588 1385.31 435.625C1383.45 437.948 1380.76 439.446 1377.8 439.793Z" fill="#263238"/>
<path d="M1389.73 413.045C1389.61 413.054 1389.5 413.035 1389.39 412.989C1389.28 412.943 1389.18 412.872 1389.1 412.782C1388.48 411.924 1387.65 411.23 1386.69 410.762C1385.74 410.293 1384.68 410.063 1383.62 410.091C1383.44 410.103 1383.26 410.041 1383.12 409.92C1382.98 409.799 1382.89 409.628 1382.87 409.444C1382.86 409.355 1382.87 409.265 1382.9 409.179C1382.93 409.094 1382.97 409.014 1383.03 408.946C1383.09 408.878 1383.16 408.823 1383.24 408.783C1383.32 408.744 1383.41 408.721 1383.5 408.716C1384.79 408.668 1386.07 408.936 1387.24 409.496C1388.4 410.057 1389.41 410.893 1390.18 411.932C1390.23 412.001 1390.28 412.08 1390.3 412.166C1390.33 412.251 1390.34 412.341 1390.33 412.429C1390.32 412.518 1390.29 412.604 1390.25 412.682C1390.2 412.76 1390.15 412.828 1390.08 412.883C1389.98 412.965 1389.86 413.021 1389.73 413.045Z" fill="#263238"/>
<path d="M1361.61 411.467C1361.49 411.497 1361.37 411.498 1361.25 411.47C1361.14 411.442 1361.03 411.385 1360.94 411.305C1360.81 411.177 1360.74 411.002 1360.74 410.82C1360.74 410.638 1360.81 410.463 1360.94 410.334C1361.81 409.378 1362.89 408.646 1364.11 408.202C1365.32 407.757 1366.62 407.615 1367.9 407.785C1368.07 407.81 1368.23 407.903 1368.34 408.043C1368.44 408.183 1368.49 408.359 1368.47 408.534C1368.45 408.621 1368.42 408.705 1368.37 408.78C1368.32 408.855 1368.26 408.919 1368.19 408.969C1368.11 409.018 1368.03 409.051 1367.94 409.067C1367.85 409.083 1367.76 409.08 1367.68 409.06C1366.62 408.943 1365.56 409.078 1364.56 409.454C1363.57 409.831 1362.68 410.437 1361.97 411.224C1361.88 411.339 1361.75 411.423 1361.61 411.467Z" fill="#263238"/>
<path d="M1322 934.068C1321.51 933.926 1320.08 933.542 1318.44 933.198C1315.79 932.672 1312.57 932.267 1311.6 933.198C1311.44 933.338 1311.34 933.52 1311.28 933.721C1311.23 933.923 1311.24 934.135 1311.31 934.331C1311.39 934.702 1311.54 935.052 1311.77 935.354C1312 935.656 1312.29 935.901 1312.63 936.071C1313.95 936.61 1315.41 936.723 1316.8 936.394C1318.3 936.099 1319.78 935.665 1321.21 935.1C1321.48 934.971 1321.75 934.822 1322 934.655C1322.06 934.632 1322.12 934.587 1322.16 934.528C1322.19 934.47 1322.21 934.4 1322.2 934.331C1322.19 934.273 1322.17 934.218 1322.13 934.171C1322.1 934.125 1322.05 934.089 1322 934.068ZM1312.93 935.403C1312.68 935.285 1312.46 935.108 1312.28 934.886C1312.11 934.664 1311.99 934.405 1311.94 934.128C1311.91 934.044 1311.91 933.954 1311.93 933.868C1311.95 933.782 1312 933.704 1312.06 933.643C1312.28 933.464 1312.55 933.358 1312.83 933.339C1315.57 933.235 1318.3 933.577 1320.93 934.351C1318.8 935.201 1314.84 936.394 1312.95 935.403H1312.93Z" fill="#6ED093"/>
<path d="M1344.15 938.6L1327.42 939.551L1323.88 897.589L1340.59 896.618L1344.15 938.6Z" fill="#FFC3BD"/>
<path d="M1459.09 910.012L1442.86 916.264L1428.92 878.105L1445.15 871.874L1459.09 910.012Z" fill="#FFC3BD"/>
<path d="M1442.3 914.786L1457.57 902.526C1457.83 902.302 1458.16 902.179 1458.49 902.179C1458.83 902.179 1459.16 902.302 1459.42 902.526L1472.49 914.362C1473.01 914.885 1473.3 915.595 1473.3 916.334C1473.3 917.074 1473.01 917.783 1472.49 918.307C1472.41 918.391 1472.33 918.466 1472.24 918.529C1466.86 922.718 1464.03 924.458 1457.37 929.88C1453.33 933.279 1443.21 943.011 1437.4 947.583C1431.6 952.156 1425.16 945.56 1427.29 943.213C1436.13 932.328 1439.63 923.304 1440.8 917.417C1440.99 916.397 1441.52 915.47 1442.3 914.786Z" fill="#263238"/>
<path d="M1325.25 931.478L1345.67 928.099C1346.05 928.038 1346.44 928.104 1346.78 928.287C1347.12 928.47 1347.39 928.759 1347.55 929.111L1354.67 944.548C1354.96 945.169 1354.99 945.877 1354.76 946.52C1354.53 947.163 1354.05 947.69 1353.44 947.988C1353.21 948.095 1352.96 948.163 1352.71 948.19C1345.53 949.444 1342.11 949.91 1333.13 951.447C1327.58 952.358 1311.7 957.639 1304.01 956.769C1296.32 955.899 1295.78 948.15 1298.97 947.826C1313.26 946.288 1319 937.831 1322.6 933.097C1323.25 932.239 1324.2 931.66 1325.25 931.478Z" fill="#263238"/>
<path opacity="0.2" d="M1323.85 897.609L1325.69 919.238L1342.57 919.986L1340.58 896.638L1323.85 897.609Z" fill="black"/>
<path opacity="0.2" d="M1446.83 876.386L1430.6 882.617L1437.8 902.283L1454.01 896.052L1446.83 876.386Z" fill="black"/>
<path d="M1353.17 582.43C1353.17 582.43 1312.1 673.921 1310.34 750.096C1309.16 801.121 1317.95 906.916 1317.95 906.916L1347.42 913.128C1347.42 913.128 1349 804.723 1352.77 762.862C1359.22 691.22 1405.13 580.589 1405.13 580.589L1353.17 582.43Z" fill="#6ED093"/>
<path opacity="0.4" d="M1353.17 582.43C1353.17 582.43 1312.1 673.921 1310.34 750.096C1309.16 801.121 1317.95 906.916 1317.95 906.916L1347.42 913.128C1347.42 913.128 1349 804.723 1352.77 762.862C1359.22 691.22 1405.13 580.589 1405.13 580.589L1353.17 582.43Z" fill="white"/>
<path opacity="0.2" d="M1378.34 616.279L1383.84 637.24C1374.76 663.299 1366.99 689.796 1360.56 716.631C1354.16 676.774 1370.69 634.164 1378.34 616.279Z" fill="black"/>
<path d="M1312.44 911.671L1349.87 914.544L1350.4 900.3L1311.05 898.682L1312.44 911.671Z" fill="#6ED093"/>
<path d="M1368.68 582.046C1368.68 582.046 1360.3 686.081 1375.68 752.665C1388.1 806.443 1432.59 894.109 1432.59 894.109L1452.82 881.181C1452.82 881.181 1436.96 812.735 1426.82 776.559C1401.96 687.821 1446.75 637.28 1423.99 579.82L1368.68 582.046Z" fill="#6ED093"/>
<path opacity="0.4" d="M1368.68 582.046C1368.68 582.046 1360.3 686.081 1375.68 752.665C1388.1 806.443 1432.59 894.109 1432.59 894.109L1452.82 881.181C1452.82 881.181 1436.96 812.735 1426.82 776.559C1401.96 687.821 1446.75 637.28 1423.99 579.82L1368.68 582.046Z" fill="white"/>
<path d="M1428.68 897.63L1457.06 887.412L1454.58 875.556L1423.05 887.979L1428.68 897.63Z" fill="#6ED093"/>
<path d="M1442.3 917.134H1442.2H1441.97L1440.78 917.518C1440.25 917.72 1439.61 917.943 1438.94 918.226C1437.08 919.015 1435.05 920.108 1434.71 921.281C1434.65 921.513 1434.65 921.756 1434.72 921.987C1434.78 922.218 1434.9 922.428 1435.07 922.596C1435.42 923.025 1435.9 923.33 1436.43 923.466H1437.06C1438.11 923.207 1439.05 922.592 1439.71 921.726C1440.74 920.532 1441.61 919.214 1442.32 917.801C1442.32 917.754 1442.32 917.707 1442.32 917.66C1442.33 917.627 1442.33 917.591 1442.32 917.558C1442.35 917.53 1442.37 917.497 1442.38 917.459C1442.4 917.422 1442.41 917.382 1442.4 917.341C1442.4 917.301 1442.39 917.262 1442.37 917.226C1442.35 917.19 1442.33 917.159 1442.3 917.134ZM1441.33 918.024C1440.98 918.679 1440.59 919.314 1440.17 919.926C1439.48 921.215 1438.36 922.219 1437 922.758C1436.72 922.781 1436.44 922.731 1436.18 922.615C1435.93 922.498 1435.7 922.317 1435.54 922.09C1435.45 922.009 1435.39 921.907 1435.35 921.793C1435.32 921.68 1435.31 921.559 1435.34 921.443C1435.66 920.31 1438.49 919.035 1440.58 918.287L1441.33 918.024Z" fill="#6ED093"/>
<path d="M1442.26 917.113H1442.16C1441.84 916.831 1441.5 916.574 1441.15 916.345C1439.64 915.071 1437.76 914.319 1435.78 914.2C1435.48 914.241 1435.2 914.346 1434.94 914.506C1434.68 914.666 1434.46 914.879 1434.29 915.131C1434.09 915.378 1433.98 915.685 1433.98 916.001C1433.98 916.317 1434.09 916.623 1434.29 916.871C1434.93 917.489 1435.75 917.881 1436.63 917.984C1437.39 918.129 1438.15 918.203 1438.92 918.206C1439.49 918.237 1440.05 918.237 1440.62 918.206C1441.15 918.206 1441.67 918.004 1442.18 917.882H1442.3C1442.3 917.835 1442.3 917.788 1442.3 917.741C1442.31 917.708 1442.31 917.673 1442.3 917.64C1442.34 917.604 1442.36 917.562 1442.38 917.515C1442.4 917.468 1442.41 917.417 1442.4 917.367C1442.4 917.317 1442.38 917.268 1442.36 917.224C1442.33 917.181 1442.3 917.143 1442.26 917.113ZM1434.81 916.385C1434.71 916.244 1434.55 915.98 1434.81 915.475C1434.93 915.297 1435.08 915.146 1435.26 915.034C1435.43 914.922 1435.64 914.852 1435.85 914.827C1436.16 914.787 1436.48 914.787 1436.8 914.827C1438.26 915.253 1439.63 915.939 1440.84 916.851L1441.27 917.174C1441.09 917.184 1440.92 917.184 1440.74 917.174C1438.72 917.619 1435.6 917.356 1434.81 916.446V916.385Z" fill="#6ED093"/>
<path d="M1322.42 934.291C1322.34 934.09 1322.26 933.894 1322.16 933.704C1321.33 931.964 1318.74 927.068 1315.42 928.079C1314.45 928.363 1314.21 928.909 1314.23 929.314C1314.23 930.467 1316.25 932.025 1318.27 933.178C1319.11 933.644 1319.97 934.056 1320.86 934.412L1321.41 934.594L1321.9 934.736H1322.06L1322.3 934.614C1322.34 934.573 1322.38 934.522 1322.4 934.466C1322.42 934.41 1322.43 934.35 1322.42 934.291ZM1314.94 929.293C1314.94 929.293 1314.94 928.949 1315.58 928.767H1315.89C1318.46 928.383 1320.64 932.389 1321.43 933.987C1318.8 933.016 1314.98 930.608 1314.94 929.293Z" fill="#6ED093"/>
<path d="M1382.11 419.985L1378.81 418.852C1378.81 418.852 1380.35 421.543 1382.11 419.985Z" fill="#263238"/>
<path d="M1002.24 524L1002.87 531.282H985.918L987.403 548.237H980.122L978 524H1002.24Z" fill="#6ED093"/>
<path d="M1024.23 781.181L1023.6 773.899H1006.64L1005.16 756.934H997.875L999.997 781.181H1024.23Z" fill="#6ED093"/>
<path d="M1171.69 781.181L1171.06 773.899H1188.01L1186.53 756.944H1193.81L1195.93 781.181H1171.69Z" fill="#6ED093"/>
<path d="M1148.72 524.588L1149.35 531.87H1166.32L1167.8 548.835H1175.07L1172.96 524.588H1148.72Z" fill="#6ED093"/>
<path d="M1115.79 547.928L1118.18 548.362L1116.2 546.838C1115.68 546.433 1115.14 546.028 1114.61 545.642L1114.48 545.546H1114.33C1102.11 543.106 1087.24 538.833 1070.12 532.69L1069.98 532.632H1069.82C1069.25 532.709 1068.68 532.805 1068.12 532.912L1065.98 533.326L1068.12 534.107C1086.78 540.897 1102.81 545.527 1115.79 547.928Z" fill="#6ED093"/>
<path d="M1124.59 555.711L1126.52 556.164L1125.1 554.679C1124.73 554.293 1124.35 553.927 1123.97 553.551L1123.83 553.425H1123.65C1106.6 549.375 1085.01 543.434 1059.52 535.786L1059.29 535.718L1059.09 535.805L1057.98 536.335L1056.6 537.02L1058.16 537.493C1084.8 545.469 1107.15 551.612 1124.59 555.711Z" fill="#6ED093"/>
<path d="M1132.7 564.98L1134.62 565.655L1133.38 564.044C1133.2 563.803 1133 563.572 1132.82 563.34L1132.57 563.031V562.79L1132.15 562.636C1117.4 557.428 1091.45 549.375 1051.51 540.55L1051.24 540.492L1051.03 540.646C1050.74 540.859 1050.45 541.061 1050.16 541.293L1049.13 542.103L1050.49 542.402C1091.34 551.419 1117.77 559.656 1132.7 564.98Z" fill="#6ED093"/>
<path d="M1140.16 575.724L1142.09 576.688L1140.92 574.856L1140.09 573.534L1139.98 573.37L1139.81 573.293C1122.05 564.343 1091.12 552.422 1044.59 546.404H1044.3L1044.1 546.597L1043.35 547.349L1042.5 548.246L1043.8 548.41C1091.21 554.438 1122.37 566.59 1140.16 575.724Z" fill="#6ED093"/>
<path d="M1127.62 576.283C1134.22 579.532 1140.6 583.222 1146.71 587.326L1148.64 588.599L1147.62 586.583C1147.42 586.178 1147.21 585.792 1147.01 585.397L1146.91 585.223V585.021L1146.63 584.838C1140.81 581.007 1134.76 577.541 1128.51 574.46C1110.18 565.375 1079.69 554.303 1038.56 553.098H1038.27L1038.09 553.319L1037.46 554.12L1036.63 555.084H1037.99C1078.98 556.213 1109.36 567.217 1127.62 576.283Z" fill="#6ED093"/>
<path d="M1042.06 572.165L1042.67 572.223V570.159L1042.05 570.101C1037.04 569.704 1031.99 570.164 1027.14 571.461L1026.89 571.528L1026.78 571.769C1026.62 572.097 1026.48 572.425 1026.34 572.734L1025.81 573.997L1027.14 573.611C1031.98 572.244 1037.04 571.754 1042.06 572.165Z" fill="#6ED093"/>
<path d="M1128.31 583.054C1136.75 587.739 1144.76 593.147 1152.26 599.218L1154.03 600.684L1153.17 598.572C1152.96 598.041 1152.73 597.52 1152.5 597.009L1152.43 596.855L1152.29 596.739C1118.59 569.949 1075.97 556.96 1033.06 560.399H1032.77L1032.62 560.63C1032.44 560.91 1032.27 561.199 1032.09 561.488L1032.61 561.874L1032.07 561.527L1031.42 562.607L1032.72 562.501C1065.92 559.688 1099.2 566.844 1128.31 583.054Z" fill="#6ED093"/>
<path d="M1064.02 568.182C1086.14 570.622 1119.96 579.311 1155.37 606.847L1157.02 608.129L1156.3 606.2C1156.18 605.853 1156.04 605.506 1155.91 605.149L1155.79 604.85V604.638L1155.55 604.455C1120.02 577.19 1086.19 568.558 1064.05 566.118C1052.65 564.834 1041.14 564.872 1029.75 566.233H1029.46L1028.28 568.5L1029.55 568.336C1040.99 566.927 1052.57 566.875 1064.02 568.182Z" fill="#6ED093"/>
<path d="M1023.77 648.164L1021.84 647.354L1021.64 647.913C1018.72 657.337 1016.77 667.03 1015.8 676.846V676.943V677.039C1015.99 677.907 1016.19 678.775 1016.4 679.643L1017.31 683.405L1017.62 679.653C1018.48 669.156 1020.48 658.784 1023.59 648.723L1023.77 648.164Z" fill="#6ED093"/>
<path d="M1020.53 613.173V612.546L1018.45 612.421V613.048C1018.8 626.058 1017.32 641.856 1013.62 664.28V664.463C1013.74 665.427 1013.87 666.392 1014.02 667.298L1014.61 671.224L1015.24 667.366C1019.27 643.505 1020.93 626.782 1020.53 613.173Z" fill="#6ED093"/>
<path d="M1026.19 641.596L1028.86 633.224L1026.87 632.453L1024.21 640.824L1026.19 641.596Z" fill="#6ED093"/>
<path d="M1020.86 607.724C1021.42 603.74 1023.21 600.031 1025.98 597.115L1026.43 596.7L1024.93 595.186L1024.5 595.582C1021.39 598.782 1019.39 602.896 1018.79 607.319L1018.73 607.917L1020.79 608.351L1020.86 607.724Z" fill="#6ED093"/>
<path d="M1021.68 624.756L1023.76 625.007V624.39C1023.95 618.767 1029.55 610.887 1029.82 610.579L1030.17 610.097L1028.47 608.804L1028.11 609.277C1027.88 609.653 1021.9 617.716 1021.69 624.12L1021.68 624.756Z" fill="#6ED093"/>
<path d="M1033.82 614.842L1034.26 614.417L1032.68 612.894L1032.27 613.337C1031.52 614.138 1024.91 621.545 1021.4 636.716L1021.26 637.304L1023.3 637.931L1023.43 637.342C1026.98 621.998 1033.76 614.909 1033.82 614.842Z" fill="#6ED093"/>
<path d="M1035.02 622.702L1033.22 621.506L1028.69 628.884L1030.49 630.08L1035.02 622.702Z" fill="#6ED093"/>
<path d="M1036.17 597.298L1036.74 597.125L1035.97 595.138L1035.39 595.321C1034.95 595.466 1024.57 598.861 1021.7 609.585L1021.54 610.174L1023.55 610.859L1023.7 610.28C1026.33 600.52 1035.77 597.433 1036.17 597.298Z" fill="#6ED093"/>
<path d="M1039.26 583.738L1039.88 583.651L1039.38 581.607L1038.79 581.693C1028.96 583.121 1023.36 586.66 1020.4 589.409L1020.2 589.612V589.785L1019.01 594.048L1020.84 592.061C1023.06 589.621 1028.45 585.31 1039.26 583.738Z" fill="#6ED093"/>
<path d="M1066.95 575.897C1089 576.756 1122.76 584.278 1158.37 615.256L1160.04 616.703L1159.34 614.649C1159.18 614.176 1159.02 613.684 1158.85 613.241V613.038L1158.63 612.855C1122.85 582.137 1088.95 574.682 1066.81 573.833C1044.12 572.956 1027.96 578.559 1023.56 580.295L1023.33 580.382L1023.25 580.604C1023.13 580.893 1023.03 581.192 1022.93 581.481L1022.36 583.082L1023.72 582.523C1026.72 581.202 1043.12 574.933 1066.95 575.897Z" fill="#6ED093"/>
<path d="M1069.57 581.433C1044.37 582.397 1027.4 592.601 1026.67 593.006L1026.15 593.315L1027.38 595.09L1027.89 594.781C1028.58 594.357 1045.19 584.375 1069.86 583.458C1091.74 582.629 1125.34 588.927 1161.06 623.628L1162.7 625.219L1162.07 623.068C1161.92 622.548 1161.75 622.027 1161.59 621.516L1161.54 621.342L1161.41 621.217C1125.46 586.844 1091.63 580.613 1069.57 581.433Z" fill="#6ED093"/>
<path d="M1116.23 595.302C1102.37 589.526 1087.26 587.388 1072.33 589.091C1047.35 592.052 1031.01 605.303 1030.86 605.438L1030.42 605.815L1031.8 607.444L1032.26 607.068C1044.17 598.372 1058.12 592.891 1072.77 591.155C1094.41 588.58 1127.74 593.624 1163.42 632.173L1165.07 633.948L1164.47 631.662C1164.31 631.103 1164.17 630.553 1164.01 630.003V629.839L1163.9 629.723C1148.66 613.511 1132.62 601.937 1116.23 595.302Z" fill="#6ED093"/>
<path d="M1096.16 595.572C1060.48 592.331 1035.4 617.542 1035.13 617.754L1034.71 618.179L1036.27 619.674L1036.68 619.259C1036.92 619.008 1061.44 594.424 1096.15 597.588C1120.11 599.767 1143.48 614.253 1165.59 640.641L1167.27 642.637L1166.66 640.168C1166.53 639.609 1166.39 639.069 1166.27 638.509V638.336L1166.13 638.172C1143.84 612.132 1120.27 597.781 1096.16 595.572Z" fill="#6ED093"/>
<path d="M1036.37 634.43C1053.57 609.749 1088.27 593.556 1127.03 613.019C1147.17 623.136 1155.6 635.153 1165.36 649.06C1166.29 650.379 1167.23 651.716 1168.2 653.073L1169.78 655.291L1169.31 652.687C1169.19 652.06 1169.09 651.443 1168.97 650.883V650.7L1168.86 650.555C1168.25 649.687 1167.64 648.829 1167.04 647.961C1157.09 633.803 1148.5 621.574 1127.85 611.186C1088.01 591.164 1052.34 607.792 1034.66 633.147C1018.52 656.294 1019.66 682.961 1021.8 696.801V696.936C1022.3 698.257 1022.76 699.578 1023.32 700.871L1024.51 700.62C1019.73 676.2 1024.06 652.089 1036.37 634.43Z" fill="#6ED093"/>
<path d="M1120.89 700.726C1117.24 691.313 1115.5 690.32 1114.14 690.648C1110.77 691.458 1113.89 703.735 1113.92 703.861C1115.66 710.506 1143.12 725.754 1154.85 731.994L1155.38 732.283L1156.35 730.528L1155.75 730.21C1137.29 720.362 1117.17 708.172 1115.92 703.504C1114.55 698.257 1114.51 694.139 1114.8 692.895C1115.33 693.483 1116.62 695.383 1118.92 701.295C1124.38 715.386 1145.47 723.584 1157.55 727.21L1158.02 727.355L1158.25 726.94L1158.64 726.159L1158.97 725.484L1158.21 725.252C1146.47 721.693 1125.95 713.746 1120.89 700.726Z" fill="#6ED093"/>
<path d="M1123.7 697.418C1119.99 688.873 1117.08 685.121 1114.26 685.305C1111.45 685.488 1109.44 689.625 1108.05 698.884C1106.12 711.306 1141.22 730.972 1152.02 736.71L1152.5 736.97L1152.79 736.546C1152.96 736.315 1153.1 736.074 1153.25 735.842L1153.59 735.283L1152.97 734.945C1131.37 723.458 1108.78 708.027 1110.11 699.347C1111.76 688.622 1113.76 687.378 1114.59 687.34C1115.19 687.34 1117.49 688.111 1121.8 698.055C1126.11 707.998 1138.71 716.794 1159.23 723.815L1159.75 723.999L1159.95 723.526C1160.01 723.401 1160.07 723.285 1160.11 723.169C1160.16 723.053 1160.24 722.918 1160.3 722.783L1160.58 722.147L1159.87 721.915C1140.21 715.212 1127.7 706.735 1123.7 697.418Z" fill="#6ED093"/>
<path d="M1126.5 694.091C1121.82 684.292 1117.51 679.508 1113.27 679.47C1109.03 679.431 1105.44 684.292 1102.21 694.158C1096.34 712.078 1136.46 734.762 1148.89 741.281L1149.36 741.532L1150.56 739.893L1149.87 739.536C1141.29 735.003 1098.75 711.567 1104.18 694.949C1107.08 686.173 1110.26 681.534 1113.48 681.534C1116.7 681.534 1120.49 686.182 1124.63 694.853C1129.22 704.497 1141.03 712.82 1160.71 720.401L1161.22 720.604L1161.45 720.141C1161.58 719.883 1161.69 719.619 1161.79 719.35L1162.02 718.752L1161.39 718.511C1142.22 711.133 1130.81 703.137 1126.5 694.091Z" fill="#6ED093"/>
<path d="M1129.3 690.783C1123.28 679.354 1117.37 673.423 1111.73 673.307C1106.09 673.191 1100.98 678.611 1096.36 689.519C1091.73 700.427 1099.12 713.737 1117.67 728.097C1126.44 734.719 1135.74 740.612 1145.48 745.718L1145.93 745.949L1146.22 745.593L1146.75 744.956L1147.21 744.368L1146.5 744.001C1136.8 738.938 1088.94 712.589 1098.27 690.484C1102.56 680.347 1107.12 675.274 1111.84 675.4C1116.57 675.525 1121.88 681.022 1127.48 691.631C1133.84 703.716 1150.29 711.885 1162.11 716.948L1162.69 717.199L1163 716.399C1163.06 716.225 1163.12 716.061 1163.18 715.887L1163.38 715.328L1162.8 715.077C1151.3 710.11 1135.33 702.24 1129.3 690.783Z" fill="#6ED093"/>
<path d="M1132.1 687.465C1124.23 673.876 1116.92 667.211 1109.74 666.941C1102.8 666.739 1096.35 672.786 1090.45 684.919C1087.56 690.976 1087.38 697.544 1090.03 704.42C1098.58 726.651 1134.59 746.248 1141.71 749.952L1142.14 750.164L1142.44 749.855L1143.01 749.238L1143.54 748.65L1142.78 748.254C1135.74 744.618 1100.26 725.387 1091.96 703.822C1089.53 697.515 1089.65 691.496 1092.34 685.941C1097.77 674.705 1103.57 669.015 1109.59 669.015H1109.83C1116.17 669.208 1122.86 675.535 1130.3 688.372C1136.82 699.636 1151.39 707.661 1163.36 713.389L1163.95 713.669L1164.18 713.091C1164.27 712.84 1164.36 712.579 1164.45 712.319L1164.63 711.779L1164.08 711.518C1152.45 705.925 1138.27 698.141 1132.1 687.465Z" fill="#6ED093"/>
<path d="M1134.89 684.147C1127.99 673.307 1118.61 660.769 1107.48 660.46H1107.14C1099.11 660.46 1091.53 667.144 1084.61 680.338C1080.58 688.053 1080.13 696.242 1083.29 704.748C1092.47 729.554 1130.19 750.145 1137.65 754.022L1138.05 754.224L1138.35 753.954C1138.56 753.761 1138.77 753.569 1138.97 753.366L1139.59 752.778L1138.77 752.353C1131.4 748.534 1094.23 728.425 1085.23 704.169C1082.33 696.242 1082.71 688.584 1086.48 681.408C1093.14 668.687 1100.25 662.302 1107.62 662.515C1117.67 662.756 1126.55 674.725 1133.17 685.131C1139.92 695.74 1152.81 703.513 1164.57 709.754L1165.21 710.091L1165.42 709.455C1165.51 709.184 1165.58 708.914 1165.66 708.654L1165.79 708.162L1165.31 707.902C1153.86 701.806 1141.29 694.207 1134.89 684.147Z" fill="#6ED093"/>
<path d="M1137.68 680.81L1137.52 680.579C1130.6 670.655 1119.03 654.037 1104.98 653.873H1104.78C1095.54 653.873 1086.77 661.232 1078.74 675.747C1076.19 680.162 1074.66 685.092 1074.25 690.176C1073.85 695.259 1074.58 700.37 1076.4 705.134C1085.83 731.425 1122.22 752.151 1133.15 757.88L1133.52 758.073L1133.88 757.783C1134.09 757.619 1134.31 757.455 1134.51 757.282L1135.19 756.693L1134.34 756.25C1126.62 752.247 1087.81 730.971 1078.34 704.594C1076.63 700.099 1075.94 695.28 1076.33 690.487C1076.72 685.694 1078.17 681.047 1080.58 676.885C1088.29 662.9 1096.59 655.85 1105.14 655.966C1118.07 656.12 1129.2 672.13 1135.85 681.688L1136.01 681.919C1143.02 691.979 1155.53 700.109 1165.65 706.031L1166.33 706.436L1166.89 704.449L1166.43 704.189C1156.59 698.383 1144.39 690.484 1137.68 680.81Z" fill="#6ED093"/>
<path d="M1140.53 677.512C1140.18 677.059 1139.81 676.548 1139.44 676.056L1138.52 674.85C1130.8 664.559 1117.99 647.334 1102.49 647.296C1092.02 647.296 1082.08 655.33 1072.91 671.175C1066.52 682.228 1065.39 693.811 1069.55 705.606C1079.43 733.662 1116.93 755.44 1128.18 761.448L1128.52 761.622L1130.45 760.358L1129.48 759.857C1118.33 753.974 1081.26 732.63 1071.53 705.086C1067.58 693.879 1068.64 682.903 1074.75 672.294C1083.56 657.056 1092.96 649.34 1102.72 649.34C1117.06 649.34 1129.48 666.016 1136.91 675.959C1137.62 676.924 1138.3 677.821 1138.92 678.64C1146.26 688.285 1157.62 696.271 1166.68 702.154L1167.4 702.617L1167.6 701.845L1167.8 701.016L1167.89 700.582L1167.49 700.321C1158.63 694.621 1147.59 686.809 1140.53 677.512Z" fill="#6ED093"/>
<path d="M1146.96 675.448C1128.53 647.884 1112.08 641.991 1101.5 641.904C1088.97 641.856 1078.05 649.62 1070.64 663.99C1061.96 680.926 1060.79 697.553 1067.25 713.399C1078.43 740.79 1109.44 758.478 1122.22 764.804L1122.5 764.94L1122.76 764.824C1123.08 764.679 1123.39 764.515 1123.73 764.351L1124.76 763.801L1123.63 763.242C1113.71 758.42 1080.49 740.491 1069.18 712.763C1062.95 697.515 1064.07 681.456 1072.51 665.051C1079.51 651.462 1089.78 643.978 1101.45 643.978H1101.66C1111.69 644.055 1127.38 649.765 1145.26 676.49C1150.74 684.687 1160.54 692.104 1167.79 696.878L1168.54 697.37L1168.73 696.463C1168.78 696.203 1168.83 695.943 1168.88 695.692L1168.96 695.277L1168.58 695.026C1161.61 690.407 1152.19 683.25 1146.96 675.448Z" fill="#6ED093"/>
<path d="M1149.48 671.031C1141.9 659.805 1134.55 651.857 1126.33 646.022C1115.28 638.162 1103.95 635.028 1093.54 636.937C1082.24 639.03 1072.32 647.074 1065.49 659.583C1050.46 687.243 1058.22 710.4 1067.42 724.944C1081.61 747.676 1107.61 761.709 1118.13 766.685L1118.39 766.801L1118.63 766.704C1118.98 766.569 1119.31 766.434 1119.6 766.28L1120.8 765.74L1119.53 765.152C1109.07 760.329 1083.2 746.538 1069.1 723.97C1060.25 709.908 1052.7 687.513 1067.33 660.682C1073.85 648.665 1083.35 640.959 1094.08 638.972C1103.88 637.159 1114.64 640.168 1125.19 647.652C1133.15 653.304 1140.31 661.058 1147.74 672.053C1152.02 678.399 1159.02 685.199 1168.53 692.307L1169.31 692.885L1169.48 691.988C1169.55 691.689 1169.6 691.39 1169.63 691.082L1169.69 690.696L1169.36 690.455C1160.27 683.617 1153.56 677.087 1149.48 671.031Z" fill="#6ED093"/>
<path d="M1152 666.623C1143.56 654.23 1135.95 646.37 1126.57 640.207C1114.45 632.289 1102.06 629.28 1090.71 631.527C1078.48 633.928 1067.7 642.329 1060.37 655.165C1047.83 677.087 1048.09 702.289 1060.96 724.317C1075.23 748.708 1102.43 763.203 1113.42 768.305L1113.64 768.402L1113.85 768.344C1114.22 768.248 1114.57 768.132 1114.93 768.016L1116.5 767.505L1115.01 766.83C1104.01 761.844 1076.91 747.628 1062.75 723.429C1055.41 710.892 1045.58 685.469 1062.21 656.332C1069.26 643.968 1079.57 635.886 1091.28 633.581C1102.09 631.45 1113.93 634.343 1125.54 641.933C1134.65 647.893 1142.06 655.599 1150.31 667.703C1154.47 673.828 1160.84 680.444 1169.23 687.388L1170.07 688.082L1170.21 687.06C1170.26 686.742 1170.3 686.423 1170.33 686.095V685.758L1170.05 685.526C1162.07 678.833 1155.96 672.477 1152 666.623Z" fill="#6ED093"/>
<path d="M1154.51 662.206C1147.81 652.446 1139.8 642.319 1126.8 634.391C1093.37 614.003 1067.35 630.466 1055.23 650.787C1041.94 673.027 1041.73 700.283 1054.52 723.709C1068.08 748.476 1093.74 763.078 1107.83 769.588L1108.02 769.675H1108.21C1108.67 769.598 1109.17 769.521 1109.6 769.424L1111.44 769.067L1109.65 768.257C1095.53 761.882 1069.81 747.522 1056.32 722.928C1043.84 700.167 1044.11 673.664 1057.03 652.041C1068.69 632.511 1093.68 616.645 1125.84 636.233C1138.44 643.949 1146.27 653.825 1152.84 663.373C1157.74 670.192 1163.4 676.436 1169.7 681.987L1170.62 682.826L1170.72 681.659C1170.72 681.321 1170.77 680.984 1170.79 680.695L1170.17 680.589L1170.79 680.675V680.367L1170.55 680.145C1164.56 674.776 1159.18 668.759 1154.51 662.206Z" fill="#6ED093"/>
<path d="M1157.03 657.789C1148.74 645.839 1140.47 636.301 1127.05 628.595C1111.62 619.693 1095.79 617.253 1081.39 621.535C1068.85 625.287 1057.71 634.073 1050.07 646.36C1035.82 669.208 1035.08 697.881 1048.07 723.053C1061.17 748.447 1086.65 763.445 1100.73 770.128L1100.86 770.186H1100.99C1101.6 770.186 1102.21 770.186 1102.83 770.186L1105.24 770.051L1102.96 769.009C1088.78 762.471 1063.02 747.724 1049.92 722.282C1037.28 697.775 1038.01 669.854 1051.85 647.595C1064.52 627.254 1091.58 610.55 1126.11 630.398C1139.16 637.902 1147.23 647.218 1155.32 658.898C1159.69 665.092 1164.58 670.9 1169.94 676.258L1170.9 677.29V675.921C1170.9 675.544 1170.9 675.178 1170.9 674.802V674.532L1170.71 674.339C1165.7 669.207 1161.13 663.672 1157.03 657.789Z" fill="#6ED093"/>
<path d="M1159.55 653.381C1152.13 642.772 1143.53 631.652 1127.3 622.789C1110.72 613.733 1093.76 611.437 1078.27 616.163C1064.92 620.233 1053.07 629.395 1044.92 641.952C1027.01 669.565 1031.48 701.633 1041.63 722.436C1053.2 746.055 1074.67 760.908 1090.7 769.212L1090.85 769.289H1090.95C1091.77 769.443 1092.62 769.569 1093.47 769.675L1096.98 770.119L1093.73 768.508C1077.24 760.339 1055.16 745.573 1043.49 721.664C1033.58 701.411 1029.22 670.105 1046.7 643.187C1061.52 620.329 1091.92 605.718 1126.42 624.573C1142.24 633.253 1150.63 644.074 1157.87 654.471C1161.58 659.786 1165.6 664.88 1169.91 669.729L1171.03 670.992L1170.98 669.218C1170.98 668.851 1170.98 668.485 1170.98 668.089V667.867L1170.82 667.694C1166.81 663.132 1163.04 658.354 1159.55 653.381Z" fill="#6ED093"/>
<path d="M1170.36 660.393V660.21L1170.24 660.055C1167.12 656.062 1164.37 652.205 1162.08 648.964C1153.9 637.391 1145.11 626.155 1127.55 616.992C1089.79 597.24 1056.26 613.086 1039.79 637.555C1020.7 665.91 1025.38 700.668 1035.2 721.809C1042.11 736.797 1053.63 750 1069.35 760.995L1069.52 761.12C1071.82 762.493 1074.19 763.726 1076.63 764.814L1077.13 763.734C1058.29 752.161 1044.8 737.829 1037.07 721.086C1027.48 700.437 1022.9 666.498 1041.54 638.808C1057.53 615.044 1090.08 599.642 1126.72 618.796C1143.8 627.727 1152.41 638.673 1160.42 650.044C1162.75 653.362 1165.88 657.76 1169.43 662.225L1170.69 663.836L1170.52 661.907C1170.46 661.393 1170.4 660.888 1170.36 660.393Z" fill="#6ED093"/>
<path d="M1086.09 532.757C1084.76 532.629 1083.42 532.655 1082.1 532.834C1090.08 535.65 1098.21 538.051 1106.44 540.029C1102.47 537.145 1090.97 533.172 1086.09 532.757Z" fill="#6ED093"/>
<path d="M124.514 674.311C136.081 551.738 44.991 468.365 -2 442L1.16286 1223H650L650 1135.77C615.66 865.674 478.754 911.142 414.593 967.638C369.56 1000.63 261.059 1060.29 187.319 1034.98C95.1448 1003.34 110.055 827.528 124.514 674.311Z" fill="#B5D6C1" fill-opacity="0.18"/>
</g>
<defs>
<clipPath id="clip0_191_292">
<rect width="1728" height="1117" fill="white"/>
</clipPath>
</defs>
</svg>
