<svg width="319" height="401" viewBox="0 0 319 401" fill="none" xmlns="http://www.w3.org/2000/svg">
<path fill-rule="evenodd" clip-rule="evenodd" d="M122.934 0.174957C106.793 1.50896 88.5887 5.84196 77.3417 11.027C73.4407 12.825 65.4647 17.536 59.6157 21.495C31.6857 40.405 11.4336 72.409 3.88265 109.572C1.89565 119.349 0.341648 148.88 0.00364778 183.251C-0.0803522 191.844 1.25965 193.839 6.80765 193.375L10.4336 193.072L11.0556 161.572C11.8246 122.559 13.4426 111.554 21.6386 89.572C26.3196 77.015 28.9866 71.843 36.3146 61.107C52.0766 38.016 74.5036 22.179 101.632 14.985C115.063 11.423 140.24 10.523 156.457 13.024C176.943 16.184 200.239 25.62 214.978 36.726C229.285 47.507 242.57 62.143 250.239 75.572C253.754 81.729 259.228 97.207 261.732 108.072C266.427 128.443 266.68 139.469 263.421 181.822C261.011 213.151 264.433 229.82 277.056 248.234C278.625 250.523 282.277 254.411 285.171 256.873C292.507 263.113 309.384 274.396 312.583 275.199C315.626 275.963 318.278 274.65 318.773 272.136C319.598 267.94 317.896 265.988 308.726 260.612C303.615 257.615 297.073 253.177 294.187 250.749C287.446 245.077 280.128 234.8 277.355 227.112C274.01 217.834 272.68 203.25 273.933 189.572C275.71 170.176 276.322 133.177 275.073 120.572C272.013 89.67 259.991 63.877 238.567 42.243C215.961 19.417 190.891 6.92696 157.934 2.07196C147.529 0.538956 130.013 -0.411043 122.934 0.174957ZM122.934 43.273C115.129 44.123 102.001 48.034 94.9336 51.615C84.1526 57.078 71.7526 67.456 64.7976 76.837C53.5116 92.058 48.8337 102.346 45.8247 118.56C43.4197 131.521 41.5666 159.475 42.8816 162.936C44.6516 167.592 51.3816 167.135 52.3576 162.293C52.6046 161.072 53.0507 153.993 53.3507 146.563C54.6367 114.659 61.9936 94.837 79.2006 76.914C86.2466 69.575 88.4676 67.973 98.3036 63.132C113.525 55.641 119.487 54.208 135.434 54.206C151.396 54.203 162.055 56.565 174.913 62.954C187.318 69.119 191.585 72.297 200.887 82.2999C213.017 95.3449 219.822 110.812 222.114 130.547C223.057 138.662 222.872 144.069 220.864 167.072C218.334 196.072 218.011 215.178 219.875 225.572C222.817 241.974 230.507 260.338 238.508 270.072C252.206 286.736 276.478 306.925 295.505 317.481C306.205 323.417 311.785 314.437 301.218 308.289C269.53 289.851 246.238 267.766 237.021 247.418C235.44 243.928 233.131 236.572 231.889 231.072C229.088 218.658 228.894 199.566 231.303 173.272C233.166 152.941 233.424 129.704 231.883 121.006C230.462 112.983 227.277 103.322 223.664 96.072C219.708 88.135 207.726 72.2579 203.109 68.835C201.088 67.336 196.993 64.158 194.009 61.773C187.014 56.181 170.383 48.211 161.434 46.161C147.429 42.954 134.661 41.996 122.934 43.273ZM123.164 90.064C113.443 92.789 107.011 97.5009 99.9186 107.095C92.6207 116.968 89.6646 124.367 87.4046 138.41C83.4276 163.126 73.0556 183.976 55.6636 202.22C42.4146 216.117 29.7786 224.025 13.4336 228.647C9.03365 229.891 4.64665 231.578 3.68365 232.396C1.37065 234.36 1.46265 237.835 3.88565 240.028C5.63165 241.608 6.39565 241.663 11.1357 240.544C19.9097 238.473 32.0396 233.701 38.9336 229.609C54.8486 220.162 71.5876 203.013 82.3686 185.11C87.0216 177.383 94.5187 156.448 96.9217 144.47C102.411 117.117 109.795 105.776 125.525 100.542C140.193 95.66 156.417 99.7529 166.606 110.905C174.022 119.022 176.459 126.826 176.34 142.072C176.242 154.6 173.48 173.883 169.822 187.572C162.383 215.412 145.61 242.199 120.5 266.338C108.705 277.677 89.1806 293.005 80.9866 297.359C78.4826 298.69 73.3146 301.6 69.5016 303.826C60.4466 309.112 44.4766 316.488 34.4336 320.023C25.5176 323.16 23.7096 324.732 24.1396 328.971C24.8246 335.728 29.2337 334.833 55.8657 322.533C90.0947 306.725 114.687 289.083 138.057 263.572C149.596 250.975 159.613 237.522 165.805 226.306C170.348 218.075 178.244 197.591 180.948 187.017C187.024 163.259 189.083 134.476 185.57 122.393C182.164 110.677 171.301 98.0729 159.972 92.6919C152.883 89.326 151.909 89.135 140.472 88.868C132.134 88.674 126.814 89.042 123.164 90.064ZM134.119 144.256C132.213 145.018 131.187 148.322 129.44 159.312C124.186 192.378 105.143 221.843 72.9336 246.745C57.0126 259.054 31.6326 272.66 16.4336 277.034C8.89065 279.205 7.93365 280.014 7.93365 284.216C7.93365 286.857 8.48265 287.865 10.3956 288.737C13.3786 290.096 22.3356 287.181 39.4336 279.288C70.4046 264.991 95.4126 245.252 113.936 220.484C118.702 214.111 123.971 206.461 125.645 203.484C131.829 192.489 137.246 175.49 140.408 157.156C141.789 149.153 141.79 148.001 140.417 145.906C138.949 143.665 136.923 143.134 134.119 144.256ZM173.318 276.068C170.564 277.44 164.18 282.278 159.133 286.818C154.085 291.358 144.888 299.628 138.695 305.196C122.946 319.354 105.594 330.967 76.4336 346.862C71.4837 349.56 66.9837 352.122 66.4336 352.556C65.8836 352.99 61.6086 355.272 56.9336 357.628C47.5956 362.334 46.9716 362.896 46.9486 366.622C46.9306 369.646 48.6016 371.572 51.2416 371.572C54.0536 371.572 93.8826 350.221 107.934 341.181C130.35 326.76 141.34 318.423 153.434 306.663C166.411 294.044 175.076 286.828 179.441 285.005C186.936 281.873 187.948 282.549 212.768 307.262C235.409 329.805 246.028 338.684 267.595 353.104C272.916 356.661 278.024 359.572 278.947 359.572C282.446 359.572 285.219 353.957 283.169 351.019C282.362 349.863 273.57 343.76 264.862 338.311C253.966 331.493 237.153 316.804 218.511 297.817C203.948 282.984 198.396 277.99 194.333 276.067C187.239 272.712 180.053 272.712 173.318 276.068ZM169.147 338.516C160.779 341.817 159.627 342.507 147.434 351.527C133.358 361.94 112.983 374.86 92.4956 386.364C83.6796 391.314 81.7326 394.091 84.3146 398.031C85.2306 399.429 86.8376 400.572 87.8856 400.572C91.4576 400.572 143.255 369.039 150.484 362.464C151.611 361.439 156.785 357.874 161.981 354.542C172.235 347.967 180.24 345.032 185.32 345.985C188.61 346.602 199.91 355.291 226.401 377.572C243.548 391.995 245.816 393.403 249.32 391.806C251.407 390.855 251.934 389.916 251.934 387.147C251.934 384.078 251.33 383.273 246.684 380.151C243.797 378.211 237.321 373.124 232.294 368.848C227.266 364.571 220.154 358.597 216.489 355.572C212.824 352.547 207.262 347.889 204.13 345.222C192.063 334.946 182.73 333.157 169.147 338.516Z" fill="#3E9C6F"/>
</svg>
