<svg width="1440" height="1024" viewBox="0 0 1440 1024" fill="none" xmlns="http://www.w3.org/2000/svg">
<path opacity="0.35" d="M354.79 774.046C278.5 575.622 -161.704 436.06 -258.026 487.616L-434.035 963.609L1031.17 1323.23L1097.47 1053.09C1123.95 1007.8 1089.84 968.929 1000.43 966.242C911.018 963.555 747.825 1111.08 599.262 1056.32C465.744 1007.12 431.08 972.47 354.79 774.046Z" fill="#B5D6C1" fill-opacity="0.18"/>
<path opacity="0.72" d="M812.5 46C738.841 79.3756 677.042 202.98 561 128C488.091 80.8906 414.5 -9.69206 229.5 33.404C44.5 76.5 60.7246 14.3473 -26 8L-70 -33L1501 -19C1388.16 2.43134 1379 68.5 1227 61C1075 53.5 886.159 12.6244 812.5 46Z" fill="#B5D6C1" fill-opacity="0.18"/>
<path opacity="0.69" d="M1392.06 696.337C1293.23 770.039 1266.93 1061.05 1305.6 1113.76L1582.81 1159.1L1613.58 204.493L1460.01 199.543C1432.54 189.206 1415.33 215.504 1423.87 271.186C1432.41 326.867 1530.47 408.142 1517.45 507.376C1505.76 596.561 1490.89 622.636 1392.06 696.337Z" fill="#B5D6C1" fill-opacity="0.18"/>
</svg>
