<svg width="660" height="645" viewBox="0 0 660 645" fill="none" xmlns="http://www.w3.org/2000/svg">
<path d="M337.782 194.951C344.065 194.951 500.812 193.974 545.02 193.974C548.114 193.974 544.199 189.195 542.498 188.855C537.059 187.793 531.383 187.74 525.838 187.231C520.391 186.779 515.051 185.598 509.999 183.726C505.643 182.09 501.3 180.19 496.576 179.478C487.46 178.204 479.463 182.664 470.907 184.565C468.31 185.235 465.584 185.412 462.905 185.084C460.226 184.757 457.654 183.932 455.354 182.664C451.403 180.54 447.809 178.012 443.68 176.143C435.774 172.666 427.148 170.682 418.343 170.317C409.538 169.951 400.744 171.212 392.51 174.019C388.587 175.366 384.833 177.078 381.312 179.128C377.135 181.581 373.529 184.703 369.341 187.124C360.059 192.434 348.587 190.735 338.46 193.804C337.865 194.017 337.234 194.951 337.782 194.951Z" fill="#EBEBEB"/>
<path d="M328.774 69.6247C337.104 69.6247 476.786 70.4424 485.568 70.1982C486.199 70.1982 486.532 69.3486 485.913 69.0725C480.368 66.6299 474.097 67.1184 468.349 65.3873C464.958 64.3253 462.875 62.3925 460.531 60.0773C458.589 58.0933 456.074 56.6238 453.26 55.8293C450.689 55.1402 447.961 55.0633 445.346 55.6063C442.514 56.2116 440.051 57.656 437.35 58.5693C430.638 60.8313 424.117 58.6861 419.321 54.2576C415.37 50.6043 411.479 47.1528 406.112 45.1881C403.918 44.3022 401.543 43.8299 399.135 43.8006C396.727 43.7714 394.338 44.1859 392.118 45.0182C386.989 47.0891 383.478 51.2521 378.659 53.7584C372.959 56.732 366.128 56.0311 359.833 56.9444C353.538 57.8577 348.695 62.5836 343.173 65.313C341.372 66.3447 339.291 66.9209 337.152 66.9803C335.962 66.9803 334.7 66.6511 333.486 66.513C331.582 66.3006 329.774 66.3537 328.488 67.7662C328.167 68.1591 328.239 69.6247 328.774 69.6247Z" fill="#EBEBEB"/>
<path d="M49.1832 134.417C55.2403 134.417 157.235 135.023 163.649 134.832C164.101 134.832 164.351 134.216 163.899 134.014C159.853 132.23 155.272 132.591 151.071 131.327C148.596 130.584 147.084 129.139 145.371 127.493C143.949 126.05 142.114 124.978 140.063 124.392C138.184 123.889 136.19 123.834 134.28 124.233C132.284 124.83 130.333 125.54 128.437 126.357C123.546 128.003 118.786 126.442 115.288 123.171C112.396 120.505 109.564 117.988 105.637 116.555C104.036 115.907 102.304 115.561 100.547 115.539C98.7896 115.517 97.0465 115.82 95.4266 116.427C91.6781 117.935 89.1077 120.983 85.5972 122.799C81.4322 124.976 76.4461 124.456 71.8527 125.114C67.2593 125.773 63.7131 129.224 59.679 131.221C58.3632 131.976 56.8402 132.395 55.276 132.431C54.3835 132.431 53.491 132.198 52.5985 132.102C51.956 131.942 51.2766 131.943 50.6345 132.104C49.9923 132.265 49.4121 132.58 48.9571 133.016C48.7905 133.355 48.7905 134.417 49.1832 134.417Z" fill="#EBEBEB"/>
<path d="M428.222 136.786C434.291 136.786 536.286 137.391 542.689 137.2C543.153 137.2 543.402 136.584 542.938 136.382C538.904 134.598 534.323 134.959 530.122 133.695C527.647 132.952 526.136 131.507 524.422 129.861C523 128.418 521.166 127.346 519.115 126.76C517.236 126.257 515.241 126.202 513.331 126.601C511.335 127.198 509.384 127.908 507.488 128.725C502.585 130.371 497.825 128.81 494.327 125.539C491.447 122.873 488.603 120.356 484.688 118.923C483.086 118.275 481.351 117.929 479.592 117.907C477.833 117.885 476.088 118.188 474.466 118.795C470.729 120.303 468.159 123.351 464.648 125.167C460.483 127.291 455.497 126.824 450.892 127.482C446.287 128.141 442.764 131.592 438.73 133.589C437.429 134.366 435.915 134.81 434.351 134.874C433.452 134.803 432.559 134.69 431.673 134.534C431.03 134.377 430.35 134.379 429.708 134.542C429.066 134.705 428.487 135.022 428.032 135.458C427.782 135.713 427.83 136.786 428.222 136.786Z" fill="#EBEBEB"/>
<path d="M149.083 225.378C155.152 225.378 257.147 225.983 263.561 225.792C264.013 225.792 264.263 225.176 263.811 224.974C259.765 223.19 255.184 223.551 250.983 222.287C248.508 221.544 246.996 220.099 245.283 218.453C243.861 217.01 242.026 215.938 239.975 215.352C238.096 214.849 236.102 214.794 234.192 215.193C232.196 215.791 230.245 216.5 228.349 217.317C223.458 218.963 218.686 217.402 215.259 214.131C212.367 211.465 209.535 208.948 205.608 207.515C204.006 206.867 202.271 206.521 200.512 206.499C198.753 206.477 197.008 206.78 195.386 207.387C191.65 208.895 189.079 211.943 185.569 213.759C181.404 215.883 176.418 215.416 171.824 216.074C167.231 216.733 163.685 220.184 159.65 222.181C158.335 222.937 156.812 223.356 155.247 223.392C154.349 223.32 153.455 223.207 152.57 223.052C151.926 222.896 151.247 222.899 150.605 223.062C149.964 223.225 149.384 223.541 148.929 223.976C148.643 224.316 148.75 225.378 149.083 225.378Z" fill="#EBEBEB"/>
<path d="M104.197 174.221C104.316 174.529 264.966 174.221 262.931 174.221C262.015 174.221 264.335 172.989 263.431 172.586C258.207 170.27 252.483 170.207 246.771 169.739C243.401 169.611 240.093 168.889 237.037 167.615C234.014 166.203 232.122 163.739 229.98 161.477C226.669 157.977 222.413 155.287 217.613 153.663C212.814 152.039 207.63 151.534 202.55 152.195C191.126 153.799 182.118 161.562 170.682 162.985C163.804 163.845 157.307 161.477 150.583 160.638C145.388 160 140.1 160.863 135.494 163.102C131.924 164.706 128.52 166.054 124.427 166.288C121.285 166.479 118.132 166.16 114.978 166.129C109.839 166.243 104.923 168.025 101.15 171.141C100.579 171.534 98.9609 174.221 104.197 174.221Z" fill="#EBEBEB"/>
<path d="M380.705 184.777H214.295V391.995H380.705V184.777Z" fill="#91D4A4"/>
<path opacity="0.7" d="M380.705 184.777H214.295V391.995H380.705V184.777Z" fill="white"/>
<path d="M356.904 321.828H238.095V327.17H356.904V321.828Z" fill="#91D4A4"/>
<path d="M333.866 327.17H261.205V387.757H333.866V327.17Z" fill="#455A64"/>
<path d="M328.975 331.641H266.096V387.757H328.975V331.641Z" fill="#37474F"/>
<g opacity="0.5">
<path d="M328.975 355.058V365.477L304.021 387.757H292.347L328.975 355.058Z" fill="#455A64"/>
<path d="M282.518 331.641L266.107 346.286V335.868L270.832 331.641H282.518Z" fill="#455A64"/>
<path d="M317.599 331.641L266.107 377.605V372.401L311.768 331.641H317.599Z" fill="#455A64"/>
<path d="M328.975 370.893V376.107L315.921 387.757H310.078L328.975 370.893Z" fill="#455A64"/>
<path d="M328.975 336.856V337.801L273.022 387.757H271.927L328.975 336.856Z" fill="#455A64"/>
<path d="M289.324 331.641L266.107 352.361V351.395L288.241 331.641H289.324Z" fill="#455A64"/>
<path d="M309.126 331.641L266.107 370.033V369.056L308.031 331.641H309.126Z" fill="#455A64"/>
</g>
<path d="M299.57 331.641H295.524V387.757H299.57V331.641Z" fill="#455A64"/>
<path d="M266.203 207.377H240.261V243.262H266.203V207.377Z" fill="#455A64"/>
<path d="M263.537 210.01H242.938V240.639H263.537V210.01Z" fill="#37474F"/>
<path d="M269.915 243.262H236.548V248.423H269.915V243.262Z" fill="#91D4A4"/>
<g opacity="0.5">
<path d="M263.538 210.01V213.791L242.927 232.185V225.186L259.944 210.01H263.538Z" fill="#455A64"/>
<path d="M263.538 232.716V236.21L258.575 240.639H254.66L263.538 232.716Z" fill="#455A64"/>
<path d="M249.864 210.01L242.927 216.202V212.697L245.937 210.01H249.864Z" fill="#455A64"/>
<path d="M263.538 227.236V228.362L249.769 240.639H248.508L263.538 227.236Z" fill="#455A64"/>
</g>
<path d="M266.203 228.022H240.261V230.645H266.203V228.022Z" fill="#455A64"/>
<path d="M310.47 207.377H284.528V243.262H310.47V207.377Z" fill="#455A64"/>
<path d="M307.805 210.01H287.206V240.639H307.805V210.01Z" fill="#37474F"/>
<path d="M314.184 243.262H280.816V248.423H314.184V243.262Z" fill="#91D4A4"/>
<g opacity="0.5">
<path d="M307.805 210.01V213.791L287.194 232.185V225.186L304.211 210.01H307.805Z" fill="#455A64"/>
<path d="M307.805 232.716V236.21L302.843 240.639H298.916L307.805 232.716Z" fill="#455A64"/>
<path d="M294.132 210.01L287.194 216.202V212.697L290.205 210.01H294.132Z" fill="#455A64"/>
<path d="M307.805 227.236V228.362L294.037 240.639H292.775L307.805 227.236Z" fill="#455A64"/>
</g>
<path d="M310.47 228.022H284.528V230.645H310.47V228.022Z" fill="#455A64"/>
<path d="M354.739 207.377H328.797V243.262H354.739V207.377Z" fill="#455A64"/>
<path d="M352.074 210.01H331.475V240.639H352.074V210.01Z" fill="#37474F"/>
<path d="M358.452 243.262H325.084V248.423H358.452V243.262Z" fill="#91D4A4"/>
<g opacity="0.5">
<path d="M352.073 210.01V213.791L331.462 232.185V225.186L348.479 210.01H352.073Z" fill="#455A64"/>
<path d="M352.073 232.716V236.21L347.11 240.639H343.195L352.073 232.716Z" fill="#455A64"/>
<path d="M338.4 210.01L331.462 216.202V212.697L334.473 210.01H338.4Z" fill="#455A64"/>
<path d="M352.073 227.236V228.362L338.304 240.639H337.043L352.073 227.236Z" fill="#455A64"/>
</g>
<path d="M354.739 228.022H328.797V230.645H354.739V228.022Z" fill="#455A64"/>
<path d="M266.203 261.571H240.261V297.456H266.203V261.571Z" fill="#455A64"/>
<path d="M263.537 264.194H242.938V294.822H263.537V264.194Z" fill="#37474F"/>
<path d="M269.915 297.456H236.548V302.617H269.915V297.456Z" fill="#91D4A4"/>
<g opacity="0.5">
<path d="M263.538 264.194V267.985L242.927 286.368V279.38L259.944 264.194H263.538Z" fill="#455A64"/>
<path d="M263.538 286.899V290.404L258.575 294.832H254.66L263.538 286.899Z" fill="#455A64"/>
<path d="M249.864 264.194L242.927 270.385V266.891L245.937 264.194H249.864Z" fill="#455A64"/>
<path d="M263.538 281.419V282.545L249.769 294.832H248.508L263.538 281.419Z" fill="#455A64"/>
</g>
<path d="M266.203 282.216H240.261V284.839H266.203V282.216Z" fill="#455A64"/>
<path d="M310.47 261.571H284.528V297.456H310.47V261.571Z" fill="#455A64"/>
<path d="M307.805 264.194H287.206V294.822H307.805V264.194Z" fill="#37474F"/>
<path d="M314.184 297.456H280.816V302.617H314.184V297.456Z" fill="#91D4A4"/>
<g opacity="0.5">
<path d="M307.805 264.194V267.985L287.194 286.368V279.38L304.211 264.194H307.805Z" fill="#455A64"/>
<path d="M307.805 286.899V290.404L302.843 294.832H298.916L307.805 286.899Z" fill="#455A64"/>
<path d="M294.132 264.194L287.194 270.385V266.891L290.205 264.194H294.132Z" fill="#455A64"/>
<path d="M307.805 281.419V282.545L294.037 294.832H292.775L307.805 281.419Z" fill="#455A64"/>
</g>
<path d="M310.47 282.216H284.528V284.839H310.47V282.216Z" fill="#455A64"/>
<path d="M354.739 261.571H328.797V297.456H354.739V261.571Z" fill="#455A64"/>
<path d="M352.074 264.194H331.475V294.822H352.074V264.194Z" fill="#37474F"/>
<path d="M358.452 297.456H325.084V302.617H358.452V297.456Z" fill="#91D4A4"/>
<g opacity="0.5">
<path d="M352.073 264.194V267.985L331.462 286.368V279.38L348.479 264.194H352.073Z" fill="#455A64"/>
<path d="M352.073 286.899V290.404L347.11 294.832H343.195L352.073 286.899Z" fill="#455A64"/>
<path d="M338.4 264.194L331.462 270.385V266.891L334.473 264.194H338.4Z" fill="#455A64"/>
<path d="M352.073 281.419V282.545L338.304 294.832H337.043L352.073 281.419Z" fill="#455A64"/>
</g>
<path d="M354.739 282.216H328.797V284.839H354.739V282.216Z" fill="#455A64"/>
<path opacity="0.5" d="M380.705 311.081H214.295V312.897L380.705 311.984V311.081Z" fill="#91D4A4"/>
<path d="M380.705 308.553H214.295V311.081H380.705V308.553Z" fill="white"/>
<path opacity="0.5" d="M380.705 255.241H214.295V257.068L380.705 256.154V255.241Z" fill="#91D4A4"/>
<path d="M380.705 252.714H214.295V255.241H380.705V252.714Z" fill="white"/>
<path opacity="0.5" d="M380.705 199.412H214.295V201.238L380.705 200.325V199.412Z" fill="#91D4A4"/>
<path d="M380.705 196.884H214.295V199.412H380.705V196.884Z" fill="white"/>
<path d="M214.295 184.777H207.155V391.995H214.295V184.777Z" fill="#91D4A4"/>
<path opacity="0.8" d="M214.295 184.777H207.155V391.995H214.295V184.777Z" fill="white"/>
<path d="M387.844 184.777H380.704V391.995H387.844V184.777Z" fill="#91D4A4"/>
<path opacity="0.8" d="M387.844 184.777H380.704V391.995H387.844V184.777Z" fill="white"/>
<path d="M351.871 327.17H345.73V387.757H351.871V327.17Z" fill="#91D4A4"/>
<path opacity="0.9" d="M351.871 327.17H345.73V387.757H351.871V327.17Z" fill="white"/>
<path d="M249.269 327.17H243.129V387.757H249.269V327.17Z" fill="#91D4A4"/>
<path opacity="0.9" d="M249.269 327.17H243.129V387.757H249.269V327.17Z" fill="white"/>
<path d="M363.818 389.892H231.169V392.027H363.818V389.892Z" fill="#EBEBEB"/>
<path d="M357.357 387.757H237.643V389.892H357.357V387.757Z" fill="#EBEBEB"/>
<path d="M357.357 389.35L237.643 388.819V389.892H357.357V389.35Z" fill="#DBDBDB"/>
<path d="M207.167 242.189H59.0596V392.005H207.167V242.189Z" fill="#91D4A4"/>
<path opacity="0.7" d="M207.167 242.189H59.0596V392.005H207.167V242.189Z" fill="white"/>
<path opacity="0.5" d="M207.167 369.353H59.0596V392.005H207.167V369.353Z" fill="#91D4A4"/>
<path d="M101.804 261.316H75.8623V297.201H101.804V261.316Z" fill="#455A64"/>
<path d="M99.1389 263.939H78.54V294.567H99.1389V263.939Z" fill="#37474F"/>
<path d="M105.517 297.201H72.1494V302.362H105.517V297.201Z" fill="#91D4A4"/>
<g opacity="0.5">
<path d="M99.1389 263.949V267.73L78.54 286.124V279.125L95.5451 263.949H99.1389Z" fill="#455A64"/>
<path d="M99.1391 286.655V290.149L94.1768 294.578H90.2617L99.1391 286.655Z" fill="#455A64"/>
<path d="M85.4777 263.949L78.54 270.141V266.636L81.5388 263.949H85.4777Z" fill="#455A64"/>
<path d="M99.1389 281.175V282.29L85.3825 294.578H84.1211L99.1389 281.175Z" fill="#455A64"/>
</g>
<path d="M101.804 281.961H75.8623V284.584H101.804V281.961Z" fill="#455A64"/>
<path d="M146.072 261.316H120.13V297.201H146.072V261.316Z" fill="#455A64"/>
<path d="M143.407 263.939H122.808V294.567H143.407V263.939Z" fill="#37474F"/>
<path d="M149.785 297.201H116.417V302.362H149.785V297.201Z" fill="#91D4A4"/>
<g opacity="0.5">
<path d="M143.407 263.949V267.73L122.808 286.124V279.125L139.813 263.949H143.407Z" fill="#455A64"/>
<path d="M143.407 286.655V290.149L138.444 294.578H134.529L143.407 286.655Z" fill="#455A64"/>
<path d="M129.745 263.949L122.808 270.141V266.636L125.806 263.949H129.745Z" fill="#455A64"/>
<path d="M143.406 281.175V282.29L129.638 294.578H128.389L143.406 281.175Z" fill="#455A64"/>
</g>
<path d="M146.072 281.961H120.13V284.584H146.072V281.961Z" fill="#455A64"/>
<path d="M190.34 261.316H164.398V297.201H190.34V261.316Z" fill="#455A64"/>
<path d="M187.675 263.939H167.076V294.567H187.675V263.939Z" fill="#37474F"/>
<path d="M194.053 297.201H160.686V302.362H194.053V297.201Z" fill="#91D4A4"/>
<g opacity="0.5">
<path d="M187.675 263.949V267.73L167.076 286.124V279.125L184.081 263.949H187.675Z" fill="#455A64"/>
<path d="M187.675 286.655V290.149L182.713 294.578H178.798L187.675 286.655Z" fill="#455A64"/>
<path d="M174.014 263.949L167.076 270.141V266.636L170.087 263.949H174.014Z" fill="#455A64"/>
<path d="M187.675 281.175V282.29L173.919 294.578H172.657L187.675 281.175Z" fill="#455A64"/>
</g>
<path d="M190.34 281.961H164.398V284.584H190.34V281.961Z" fill="#455A64"/>
<path d="M101.804 315.499H75.8623V351.384H101.804V315.499Z" fill="#455A64"/>
<path d="M99.1389 318.133H78.54V348.761H99.1389V318.133Z" fill="#37474F"/>
<path d="M105.517 351.395H72.1494V356.556H105.517V351.395Z" fill="#91D4A4"/>
<g opacity="0.5">
<path d="M99.1389 318.133V321.924L78.54 340.307V333.319L95.5451 318.133H99.1389Z" fill="#455A64"/>
<path d="M99.1391 340.838V344.343L94.1768 348.761H90.2617L99.1391 340.838Z" fill="#455A64"/>
<path d="M85.4777 318.133L78.54 324.324V320.83L81.5388 318.133H85.4777Z" fill="#455A64"/>
<path d="M99.1389 335.358V336.484L85.3825 348.761H84.1211L99.1389 335.358Z" fill="#455A64"/>
</g>
<path d="M101.804 336.144H75.8623V338.767H101.804V336.144Z" fill="#455A64"/>
<path d="M146.072 315.499H120.13V351.384H146.072V315.499Z" fill="#455A64"/>
<path d="M143.407 318.133H122.808V348.761H143.407V318.133Z" fill="#37474F"/>
<path d="M149.785 351.395H116.417V356.556H149.785V351.395Z" fill="#91D4A4"/>
<g opacity="0.5">
<path d="M143.407 318.133V321.924L122.808 340.307V333.319L139.813 318.133H143.407Z" fill="#455A64"/>
<path d="M143.407 340.838V344.343L138.444 348.761H134.529L143.407 340.838Z" fill="#455A64"/>
<path d="M129.745 318.133L122.808 324.324V320.83L125.806 318.133H129.745Z" fill="#455A64"/>
<path d="M143.406 335.358V336.484L129.638 348.761H128.389L143.406 335.358Z" fill="#455A64"/>
</g>
<path d="M146.072 336.144H120.13V338.767H146.072V336.144Z" fill="#455A64"/>
<path d="M190.34 315.499H164.398V351.384H190.34V315.499Z" fill="#455A64"/>
<path d="M187.675 318.133H167.076V348.761H187.675V318.133Z" fill="#37474F"/>
<path d="M194.053 351.395H160.686V356.556H194.053V351.395Z" fill="#91D4A4"/>
<g opacity="0.5">
<path d="M187.675 318.133V321.924L167.076 340.307V333.319L184.081 318.133H187.675Z" fill="#455A64"/>
<path d="M187.675 340.838V344.343L182.713 348.761H178.798L187.675 340.838Z" fill="#455A64"/>
<path d="M174.014 318.133L167.076 324.324V320.83L170.087 318.133H174.014Z" fill="#455A64"/>
<path d="M187.675 335.358V336.484L173.919 348.761H172.657L187.675 335.358Z" fill="#455A64"/>
</g>
<path d="M190.34 336.144H164.398V338.767H190.34V336.144Z" fill="#455A64"/>
<path d="M207.155 234.723H54.002V242.189H207.155V234.723Z" fill="#91D4A4"/>
<path opacity="0.5" d="M207.155 309.392H59.0596V311.208L207.155 310.295V309.392Z" fill="#91D4A4"/>
<path d="M207.167 306.865H59.0596V309.392H207.167V306.865Z" fill="white"/>
<path opacity="0.5" d="M196.29 242.189H207.155V392.005H203.668L196.29 242.189Z" fill="#91D4A4"/>
<path d="M387.833 392.005H535.94V242.189L387.833 242.189V392.005Z" fill="#91D4A4"/>
<path opacity="0.7" d="M387.833 392.005H535.94V242.189L387.833 242.189V392.005Z" fill="white"/>
<path d="M430.589 261.316H404.647V297.201H430.589V261.316Z" fill="#455A64"/>
<path d="M427.924 263.939H407.325V294.567H427.924V263.939Z" fill="#37474F"/>
<path d="M434.302 297.201H400.935V302.362H434.302V297.201Z" fill="#91D4A4"/>
<g opacity="0.5">
<path d="M427.924 263.949V267.73L407.325 286.124V279.125L424.33 263.949H427.924Z" fill="#455A64"/>
<path d="M427.924 286.655V290.149L422.962 294.578H419.047L427.924 286.655Z" fill="#455A64"/>
<path d="M414.263 263.949L407.325 270.141V266.636L410.336 263.949H414.263Z" fill="#455A64"/>
<path d="M427.924 281.175V282.29L414.168 294.578H412.906L427.924 281.175Z" fill="#455A64"/>
</g>
<path d="M430.589 281.961H404.647V284.584H430.589V281.961Z" fill="#455A64"/>
<path d="M474.857 261.316H448.915V297.201H474.857V261.316Z" fill="#455A64"/>
<path d="M472.192 263.939H451.593V294.567H472.192V263.939Z" fill="#37474F"/>
<path d="M478.57 297.201H445.202V302.362H478.57V297.201Z" fill="#91D4A4"/>
<g opacity="0.5">
<path d="M472.192 263.949V267.73L451.593 286.124V279.125L468.598 263.949H472.192Z" fill="#455A64"/>
<path d="M472.192 286.655V290.149L467.23 294.578H463.314L472.192 286.655Z" fill="#455A64"/>
<path d="M458.53 263.949L451.593 270.141V266.636L454.603 263.949H458.53Z" fill="#455A64"/>
<path d="M472.192 281.175V282.29L458.435 294.578H457.174L472.192 281.175Z" fill="#455A64"/>
</g>
<path d="M474.857 281.961H448.915V284.584H474.857V281.961Z" fill="#455A64"/>
<path d="M519.126 261.316H493.184V297.201H519.126V261.316Z" fill="#455A64"/>
<path d="M516.46 263.939H495.861V294.567H516.46V263.939Z" fill="#37474F"/>
<path d="M522.838 297.201H489.471V302.362H522.838V297.201Z" fill="#91D4A4"/>
<g opacity="0.5">
<path d="M516.46 263.949V267.73L495.861 286.124V279.125L512.866 263.949H516.46Z" fill="#455A64"/>
<path d="M516.46 286.655V290.149L511.498 294.578H507.583L516.46 286.655Z" fill="#455A64"/>
<path d="M502.799 263.949L495.861 270.141V266.636L498.872 263.949H502.799Z" fill="#455A64"/>
<path d="M516.46 281.175V282.29L502.704 294.578H501.442L516.46 281.175Z" fill="#455A64"/>
</g>
<path d="M519.126 281.961H493.184V284.584H519.126V281.961Z" fill="#455A64"/>
<path d="M430.589 315.499H404.647V351.384H430.589V315.499Z" fill="#455A64"/>
<path d="M427.924 318.133H407.325V348.761H427.924V318.133Z" fill="#37474F"/>
<path d="M434.302 351.395H400.935V356.556H434.302V351.395Z" fill="#91D4A4"/>
<g opacity="0.5">
<path d="M427.924 318.133V321.924L407.325 340.307V333.319L424.33 318.133H427.924Z" fill="#455A64"/>
<path d="M427.924 340.838V344.343L422.962 348.761H419.047L427.924 340.838Z" fill="#455A64"/>
<path d="M414.263 318.133L407.325 324.324V320.83L410.336 318.133H414.263Z" fill="#455A64"/>
<path d="M427.924 335.358V336.484L414.168 348.761H412.906L427.924 335.358Z" fill="#455A64"/>
</g>
<path d="M430.589 336.144H404.647V338.767H430.589V336.144Z" fill="#455A64"/>
<path d="M474.857 315.499H448.915V351.384H474.857V315.499Z" fill="#455A64"/>
<path d="M472.192 318.133H451.593V348.761H472.192V318.133Z" fill="#37474F"/>
<path d="M478.57 351.395H445.202V356.556H478.57V351.395Z" fill="#91D4A4"/>
<g opacity="0.5">
<path d="M472.192 318.133V321.924L451.593 340.307V333.319L468.598 318.133H472.192Z" fill="#455A64"/>
<path d="M472.192 340.838V344.343L467.23 348.761H463.314L472.192 340.838Z" fill="#455A64"/>
<path d="M458.53 318.133L451.593 324.324V320.83L454.603 318.133H458.53Z" fill="#455A64"/>
<path d="M472.192 335.358V336.484L458.435 348.761H457.174L472.192 335.358Z" fill="#455A64"/>
</g>
<path d="M474.857 336.144H448.915V338.767H474.857V336.144Z" fill="#455A64"/>
<path d="M519.126 315.499H493.184V351.384H519.126V315.499Z" fill="#455A64"/>
<path d="M516.46 318.133H495.861V348.761H516.46V318.133Z" fill="#37474F"/>
<path d="M522.838 351.395H489.471V356.556H522.838V351.395Z" fill="#91D4A4"/>
<g opacity="0.5">
<path d="M516.46 318.133V321.924L495.861 340.307V333.319L512.866 318.133H516.46Z" fill="#455A64"/>
<path d="M516.46 340.838V344.343L511.498 348.761H507.583L516.46 340.838Z" fill="#455A64"/>
<path d="M502.799 318.133L495.861 324.324V320.83L498.872 318.133H502.799Z" fill="#455A64"/>
<path d="M516.46 335.358V336.484L502.704 348.761H501.442L516.46 335.358Z" fill="#455A64"/>
</g>
<path d="M519.126 336.144H493.184V338.767H519.126V336.144Z" fill="#455A64"/>
<path d="M387.844 242.189L540.997 242.189V234.723L387.844 234.723V242.189Z" fill="#91D4A4"/>
<path opacity="0.5" d="M535.952 369.353H387.845V392.005H535.952V369.353Z" fill="#91D4A4"/>
<path opacity="0.5" d="M535.94 309.392H387.845V311.208L535.94 310.295V309.392Z" fill="#91D4A4"/>
<path d="M535.952 306.865H387.845V309.392H535.952V306.865Z" fill="white"/>
<path opacity="0.5" d="M398.709 242.189H387.845V392.005H391.331L398.709 242.189Z" fill="#91D4A4"/>
<path d="M366.936 164.015H228.075V188.155H366.936V164.015Z" fill="#91D4A4"/>
<path d="M366.925 185.255H228.063V185.786H366.925V185.255Z" fill="white"/>
<path d="M366.925 166.383H228.063V166.914H366.925V166.383Z" fill="white"/>
<path d="M241.713 180.434V172.044C241.738 171.85 241.842 171.671 242.006 171.541C242.169 171.411 242.381 171.339 242.599 171.339C242.818 171.339 243.03 171.411 243.193 171.541C243.357 171.671 243.461 171.85 243.486 172.044V175.464H247.627V172.044C247.626 171.94 247.647 171.838 247.691 171.742C247.735 171.646 247.799 171.558 247.882 171.485C247.964 171.412 248.061 171.354 248.169 171.315C248.276 171.276 248.392 171.257 248.508 171.258C248.742 171.258 248.968 171.341 249.135 171.488C249.302 171.635 249.397 171.835 249.4 172.044V180.455C249.4 180.559 249.377 180.662 249.332 180.758C249.287 180.854 249.221 180.941 249.138 181.014C249.055 181.088 248.957 181.145 248.848 181.184C248.74 181.223 248.624 181.242 248.508 181.241C248.392 181.242 248.276 181.223 248.169 181.184C248.061 181.145 247.964 181.087 247.882 181.014C247.799 180.941 247.735 180.853 247.691 180.757C247.647 180.661 247.626 180.559 247.627 180.455V177.035H243.486V180.455C243.461 180.649 243.357 180.828 243.193 180.958C243.03 181.088 242.818 181.16 242.599 181.16C242.381 181.16 242.169 181.088 242.006 180.958C241.842 180.828 241.738 180.649 241.713 180.455V180.434Z" fill="white"/>
<path d="M252.363 172.044C252.362 171.94 252.383 171.838 252.427 171.742C252.471 171.646 252.536 171.558 252.618 171.485C252.7 171.412 252.798 171.354 252.905 171.315C253.013 171.276 253.128 171.257 253.244 171.258C253.479 171.258 253.704 171.341 253.871 171.488C254.038 171.635 254.133 171.835 254.136 172.044V180.455C254.133 180.664 254.038 180.864 253.871 181.011C253.704 181.158 253.479 181.241 253.244 181.241C253.128 181.242 253.013 181.223 252.905 181.184C252.798 181.145 252.7 181.087 252.618 181.014C252.536 180.941 252.471 180.853 252.427 180.757C252.383 180.661 252.362 180.559 252.363 180.455V172.044Z" fill="white"/>
<path d="M256.623 176.101C256.631 175.413 256.791 174.734 257.095 174.103C257.399 173.471 257.841 172.899 258.395 172.421C258.948 171.943 259.602 171.568 260.32 171.317C261.037 171.066 261.803 170.945 262.573 170.961C263.886 170.942 265.168 171.316 266.214 172.023C266.323 172.083 266.416 172.164 266.488 172.259C266.559 172.353 266.608 172.461 266.63 172.573C266.652 172.686 266.648 172.801 266.617 172.912C266.586 173.023 266.53 173.127 266.451 173.217C266.373 173.308 266.274 173.382 266.161 173.436C266.048 173.49 265.924 173.523 265.796 173.531C265.668 173.54 265.54 173.524 265.419 173.486C265.299 173.447 265.189 173.387 265.096 173.308C264.371 172.815 263.485 172.546 262.573 172.543C262.038 172.537 261.506 172.628 261.011 172.811C260.516 172.993 260.068 173.264 259.693 173.605C259.314 173.92 259.012 174.302 258.805 174.725C258.598 175.149 258.492 175.607 258.492 176.069C258.492 176.531 258.598 176.989 258.805 177.413C259.012 177.836 259.314 178.218 259.693 178.533C260.068 178.874 260.516 179.144 261.011 179.327C261.506 179.51 262.038 179.601 262.573 179.595C263.343 179.588 264.098 179.401 264.763 179.053V177.099H262.478C262.237 177.099 262.006 177.014 261.834 176.863C261.663 176.712 261.565 176.507 261.562 176.292C261.562 176.185 261.585 176.079 261.632 175.981C261.678 175.882 261.745 175.793 261.831 175.717C261.916 175.642 262.017 175.583 262.128 175.543C262.239 175.503 262.358 175.483 262.478 175.485H265.655C265.776 175.482 265.896 175.501 266.009 175.54C266.121 175.579 266.224 175.638 266.31 175.714C266.397 175.789 266.465 175.879 266.512 175.978C266.559 176.077 266.583 176.184 266.583 176.292V179.478C266.591 179.559 266.591 179.641 266.583 179.722C266.579 179.747 266.579 179.772 266.583 179.797C266.528 179.939 266.419 180.059 266.274 180.136C265.409 180.717 264.382 181.076 263.305 181.175C262.228 181.273 261.141 181.108 260.161 180.696C259.182 180.284 258.347 179.641 257.747 178.837C257.146 178.033 256.803 177.098 256.754 176.133L256.623 176.101Z" fill="white"/>
<path d="M269.416 180.434V172.044C269.414 171.94 269.436 171.838 269.48 171.742C269.523 171.646 269.588 171.558 269.67 171.485C269.752 171.412 269.85 171.354 269.958 171.315C270.065 171.276 270.18 171.257 270.296 171.258C270.531 171.258 270.756 171.341 270.923 171.488C271.09 171.635 271.186 171.835 271.189 172.044V175.464H275.318V172.044C275.343 171.85 275.448 171.671 275.611 171.541C275.775 171.411 275.986 171.339 276.205 171.339C276.424 171.339 276.635 171.411 276.798 171.541C276.962 171.671 277.066 171.85 277.091 172.044V180.455C277.066 180.649 276.962 180.828 276.798 180.958C276.635 181.088 276.424 181.16 276.205 181.16C275.986 181.16 275.775 181.088 275.611 180.958C275.448 180.828 275.343 180.649 275.318 180.455V177.035H271.189V180.455C271.189 180.559 271.166 180.662 271.121 180.758C271.076 180.854 271.01 180.941 270.927 181.014C270.844 181.088 270.745 181.145 270.637 181.184C270.529 181.223 270.413 181.242 270.296 181.241C270.178 181.242 270.061 181.222 269.952 181.182C269.843 181.142 269.744 181.082 269.661 181.007C269.579 180.931 269.515 180.841 269.472 180.743C269.43 180.644 269.411 180.539 269.416 180.434Z" fill="white"/>
<path d="M285.184 178.735C285.327 178.581 285.533 178.485 285.756 178.467C285.98 178.449 286.202 178.511 286.374 178.639C287.237 179.28 288.31 179.652 289.432 179.701C290.141 179.709 290.837 179.528 291.431 179.181C291.634 179.068 291.802 178.912 291.921 178.726C292.039 178.541 292.104 178.332 292.109 178.119C292.111 177.957 292.062 177.799 291.967 177.662C291.846 177.49 291.683 177.345 291.491 177.237C290.813 176.897 290.07 176.67 289.301 176.568C288.59 176.462 287.898 176.273 287.242 176.005C286.644 175.783 286.129 175.415 285.755 174.943C285.511 174.592 285.384 174.188 285.386 173.775C285.393 173.355 285.513 172.942 285.737 172.573C285.961 172.203 286.281 171.887 286.671 171.651C287.48 171.147 288.446 170.883 289.432 170.897C290.695 170.956 291.91 171.352 292.919 172.033C293.007 172.087 293.083 172.155 293.142 172.235C293.201 172.315 293.242 172.404 293.262 172.498C293.282 172.592 293.28 172.688 293.258 172.782C293.236 172.875 293.193 172.964 293.133 173.042C293.076 173.124 293.001 173.195 292.913 173.251C292.824 173.306 292.724 173.345 292.619 173.365C292.513 173.385 292.404 173.385 292.298 173.366C292.192 173.347 292.091 173.309 292.002 173.255C291.269 172.725 290.372 172.407 289.432 172.341C288.794 172.333 288.17 172.504 287.647 172.83C287.466 172.92 287.316 173.051 287.209 173.209C287.103 173.368 287.044 173.548 287.04 173.733C287.027 173.87 287.064 174.008 287.147 174.126C287.262 174.272 287.408 174.398 287.575 174.497C288.19 174.82 288.869 175.032 289.575 175.124C290.333 175.245 291.072 175.449 291.776 175.729C292.426 175.973 292.981 176.383 293.371 176.908C293.623 177.272 293.759 177.691 293.763 178.119C293.747 178.558 293.613 178.988 293.373 179.372C293.133 179.757 292.794 180.084 292.383 180.328C291.522 180.874 290.488 181.161 289.432 181.145C287.929 181.077 286.492 180.574 285.338 179.712C285.189 179.59 285.092 179.426 285.064 179.248C285.036 179.07 285.078 178.888 285.184 178.735Z" fill="white"/>
<path d="M295.703 176.09C295.731 174.719 296.362 173.413 297.46 172.453C298.557 171.494 300.033 170.958 301.57 170.961C302.898 170.937 304.196 171.311 305.259 172.023C305.442 172.161 305.56 172.356 305.588 172.569C305.617 172.782 305.554 172.996 305.414 173.17C305.264 173.336 305.048 173.445 304.81 173.472C304.573 173.5 304.333 173.445 304.14 173.318C303.411 172.801 302.502 172.526 301.57 172.543C300.493 172.557 299.463 172.937 298.69 173.605C297.943 174.262 297.515 175.154 297.5 176.09C297.504 176.553 297.611 177.01 297.815 177.435C298.02 177.859 298.317 178.244 298.69 178.565C299.464 179.232 300.494 179.612 301.57 179.627C302.502 179.636 303.41 179.359 304.14 178.841C304.337 178.723 304.576 178.674 304.811 178.703C305.046 178.733 305.26 178.838 305.414 179C305.554 179.172 305.616 179.385 305.587 179.595C305.558 179.806 305.441 180 305.259 180.136C304.196 180.848 302.898 181.222 301.57 181.198C300.036 181.204 298.562 180.672 297.464 179.716C296.367 178.761 295.734 177.458 295.703 176.09Z" fill="white"/>
<path d="M308.519 180.434V172.044C308.518 171.94 308.539 171.838 308.583 171.742C308.627 171.646 308.692 171.558 308.774 171.485C308.856 171.412 308.953 171.354 309.061 171.315C309.169 171.276 309.284 171.257 309.4 171.258C309.517 171.257 309.632 171.276 309.741 171.315C309.849 171.354 309.947 171.411 310.03 171.484C310.113 171.558 310.179 171.645 310.224 171.741C310.269 171.837 310.292 171.94 310.292 172.044V175.464H314.434V172.044C314.432 171.94 314.454 171.838 314.497 171.742C314.541 171.646 314.606 171.558 314.688 171.485C314.77 171.412 314.868 171.354 314.975 171.315C315.083 171.276 315.198 171.257 315.314 171.258C315.549 171.258 315.774 171.341 315.941 171.488C316.108 171.635 316.204 171.835 316.207 172.044V180.455C316.207 180.559 316.184 180.662 316.139 180.758C316.094 180.854 316.028 180.941 315.945 181.014C315.862 181.088 315.763 181.145 315.655 181.184C315.547 181.223 315.431 181.242 315.314 181.241C315.198 181.242 315.083 181.223 314.975 181.184C314.868 181.145 314.77 181.087 314.688 181.014C314.606 180.941 314.541 180.853 314.497 180.757C314.454 180.661 314.432 180.559 314.434 180.455V177.035H310.292V180.455C310.294 180.56 310.272 180.663 310.228 180.76C310.183 180.857 310.117 180.944 310.034 181.018C309.951 181.091 309.851 181.149 309.742 181.187C309.633 181.225 309.517 181.244 309.4 181.241C309.282 181.242 309.164 181.222 309.055 181.182C308.946 181.142 308.847 181.082 308.765 181.007C308.682 180.931 308.618 180.841 308.576 180.743C308.534 180.644 308.514 180.539 308.519 180.434Z" fill="white"/>
<path d="M328.19 172.479C329.222 173.457 329.8 174.747 329.808 176.09C329.809 177.432 329.229 178.721 328.19 179.69C327.707 180.168 327.118 180.551 326.461 180.814C325.803 181.077 325.091 181.216 324.37 181.22C323.635 181.218 322.908 181.081 322.235 180.818C321.561 180.555 320.955 180.171 320.455 179.69C319.426 178.718 318.858 177.428 318.872 176.09C318.863 174.75 319.429 173.458 320.455 172.479C320.956 172 321.562 171.618 322.236 171.357C322.909 171.096 323.636 170.961 324.37 170.961C325.09 170.964 325.801 171.1 326.459 171.361C327.117 171.623 327.706 172.004 328.19 172.479ZM327.988 176.09C327.984 175.166 327.594 174.275 326.893 173.595C326.57 173.277 326.175 173.024 325.736 172.85C325.296 172.677 324.821 172.587 324.34 172.587C323.86 172.587 323.384 172.677 322.945 172.85C322.505 173.024 322.111 173.277 321.788 173.595C321.078 174.27 320.686 175.164 320.693 176.09C320.681 177.011 321.074 177.9 321.788 178.565C322.107 178.888 322.5 179.147 322.94 179.324C323.38 179.501 323.858 179.593 324.34 179.593C324.823 179.593 325.301 179.501 325.741 179.324C326.181 179.147 326.574 178.888 326.893 178.565C327.597 177.894 327.989 177.009 327.988 176.09Z" fill="white"/>
<path d="M341.613 172.479C342.645 173.457 343.223 174.747 343.231 176.09C343.232 177.432 342.652 178.721 341.613 179.69C341.13 180.168 340.541 180.551 339.883 180.814C339.226 181.077 338.514 181.216 337.793 181.22C337.06 181.217 336.335 181.08 335.664 180.817C334.992 180.554 334.388 180.17 333.89 179.69C332.856 178.721 332.288 177.429 332.307 176.09C332.293 174.749 332.86 173.456 333.89 172.479C334.389 172.001 334.993 171.619 335.665 171.358C336.336 171.097 337.06 170.962 337.793 170.961C338.513 170.964 339.224 171.1 339.882 171.361C340.54 171.623 341.129 172.004 341.613 172.479ZM341.411 176.09C341.412 175.167 341.025 174.276 340.328 173.595C340.003 173.277 339.608 173.023 339.168 172.85C338.727 172.676 338.251 172.587 337.769 172.587C337.288 172.587 336.811 172.676 336.371 172.85C335.93 173.023 335.535 173.277 335.211 173.595C334.509 174.274 334.122 175.166 334.128 176.09C334.117 177.009 334.505 177.896 335.211 178.565C335.531 178.888 335.925 179.147 336.366 179.324C336.807 179.502 337.285 179.594 337.769 179.594C338.253 179.594 338.731 179.502 339.172 179.324C339.613 179.147 340.007 178.888 340.328 178.565C341.029 177.893 341.416 177.008 341.411 176.09Z" fill="white"/>
<path d="M346.289 180.434V172.044C346.289 171.836 346.382 171.636 346.547 171.488C346.712 171.341 346.936 171.258 347.17 171.258C347.405 171.258 347.63 171.34 347.797 171.488C347.964 171.635 348.059 171.835 348.062 172.044V179.658H352.394C352.612 179.681 352.812 179.774 352.958 179.92C353.103 180.066 353.184 180.254 353.184 180.45C353.184 180.645 353.103 180.834 352.958 180.979C352.812 181.125 352.612 181.218 352.394 181.241H347.17C347.052 181.241 346.936 181.22 346.827 181.179C346.719 181.138 346.621 181.078 346.539 181.003C346.457 180.928 346.392 180.839 346.349 180.741C346.307 180.643 346.286 180.539 346.289 180.434Z" fill="white"/>
<g opacity="0.5">
<path d="M79.4089 360.485H69.7461V363.459H79.4089V360.485Z" fill="#91D4A4"/>
<path d="M74.0178 367.218C71.1618 367.218 67.1991 367.335 64.3669 367.335H64.2598V364.149H64.4145C67.2586 364.149 71.2689 364.149 74.0654 364.213H74.1487V364.266L74.0654 367.25L74.0178 367.218ZM74.0178 367.218L73.9464 364.266L74.0178 364.34C72.4113 364.34 70.8048 364.34 69.1983 364.34H64.3669L64.5097 364.202V367.186L64.3788 367.059C67.1515 367.059 71.2094 367.133 74.0297 367.186L74.0178 367.218Z" fill="#91D4A4"/>
<path d="M237.511 277.713C234.644 277.713 230.681 277.83 227.849 277.83H227.718V274.644H227.872C230.717 274.644 234.727 274.644 237.535 274.708H237.607V274.771L237.535 277.755L237.511 277.713ZM237.511 277.713L237.428 274.729L237.511 274.803C235.893 274.803 234.287 274.803 232.68 274.803H227.849L227.991 274.665V277.649L227.861 277.522C230.633 277.522 234.703 277.607 237.523 277.649L237.511 277.713Z" fill="#91D4A4"/>
<path d="M232.121 278.488H222.458V281.462H232.121V278.488Z" fill="#91D4A4"/>
<path d="M226.755 277.713C223.887 277.713 219.924 277.83 217.092 277.83H216.961V277.713V274.729V274.601H217.116C219.96 274.601 223.97 274.601 226.778 274.665H226.85V274.729L226.778 277.713H226.755ZM226.755 277.713L226.671 274.729L226.755 274.803C225.136 274.803 223.53 274.803 221.923 274.803H217.092L217.235 274.665V277.649L217.104 277.522C219.876 277.522 223.946 277.607 226.767 277.649L226.755 277.713Z" fill="#91D4A4"/>
<path d="M525.837 256.154C522.969 256.154 519.006 256.282 516.174 256.271H516.043V253.085H516.198C519.042 253.085 523.052 253.085 525.86 253.16H525.932V253.223L525.86 256.197L525.837 256.154ZM525.837 256.154L525.753 253.181L525.837 253.244H521.005H516.174L516.317 253.117V256.091L516.186 255.974C518.958 255.974 523.028 256.048 525.849 256.091L525.837 256.154Z" fill="#91D4A4"/>
<path d="M525.837 316.996C522.969 316.996 519.006 317.124 516.174 317.124H516.043V313.885H516.198C519.042 313.885 523.052 313.885 525.86 313.959H525.932V314.023L525.86 316.996H525.837ZM525.837 316.996L525.753 314.023L525.837 314.086L521.005 314.14H516.174L516.317 314.012V316.986L516.186 316.869C518.958 316.869 523.028 316.943 525.849 316.986L525.837 316.996Z" fill="#91D4A4"/>
<path d="M531.156 249.411H521.493V252.384H531.156V249.411Z" fill="#91D4A4"/>
<path d="M408.837 255.581H399.174V258.554H408.837V255.581Z" fill="#91D4A4"/>
<path d="M408.872 366.443C406.004 366.443 402.041 366.57 399.209 366.56H399.078V366.443V363.469V363.331H399.233C402.077 363.331 406.087 363.331 408.896 363.395H408.967V363.469L408.896 366.443H408.872ZM408.872 366.443L408.789 363.469L408.872 363.533C407.253 363.533 405.647 363.533 404.04 363.533H399.209L399.352 363.406V366.379L399.221 366.252C401.994 366.252 406.063 366.337 408.884 366.379L408.872 366.443Z" fill="#91D4A4"/>
<path d="M414.191 359.699H404.528V362.673H414.191V359.699Z" fill="#91D4A4"/>
<path d="M520.423 252.395C517.567 252.395 513.604 252.522 510.772 252.512H510.629V249.326H510.784C513.628 249.326 517.638 249.326 520.434 249.389H520.518V249.453L520.434 252.427L520.423 252.395ZM520.423 252.395L520.351 249.421L520.423 249.485L515.603 249.538H510.772L510.914 249.411V252.384L510.784 252.267C513.556 252.267 517.614 252.342 520.434 252.384L520.423 252.395Z" fill="#91D4A4"/>
<path d="M122.38 283.703C119.512 283.703 115.549 283.83 112.717 283.83H112.586V280.644H112.741C115.585 280.644 119.595 280.644 122.403 280.708H122.475V280.772L122.403 283.745L122.38 283.703ZM122.38 283.703L122.308 280.729L122.38 280.793L117.548 280.846H112.717L112.872 280.708V283.681L112.741 283.565C115.513 283.565 119.583 283.639 122.403 283.681L122.38 283.703Z" fill="#91D4A4"/>
<path d="M232.157 365.413C229.289 365.413 225.326 365.54 222.494 365.53H222.363V362.344H222.53C225.374 362.344 229.384 362.344 232.193 362.407H232.264V362.482L232.193 365.455L232.157 365.413ZM232.157 365.413L232.086 362.439L232.157 362.503L227.326 362.556H222.53L222.685 362.429V365.402L222.53 365.328C225.303 365.328 229.372 365.402 232.193 365.445L232.157 365.413Z" fill="#91D4A4"/>
<path d="M111.622 283.703C108.754 283.703 104.791 283.83 101.959 283.83H101.828V280.644H101.971C104.815 280.644 108.825 280.644 111.634 280.708H111.705V280.772L111.634 283.745L111.622 283.703ZM111.622 283.703L111.55 280.729L111.622 280.793L106.79 280.846H101.959L102.114 280.708V283.681L101.983 283.565C104.756 283.565 108.825 283.639 111.646 283.681L111.622 283.703Z" fill="#91D4A4"/>
<path d="M369.602 334.944C366.746 334.944 362.772 335.061 359.951 335.061H359.809V331.875H359.963C362.807 331.875 366.806 331.875 369.614 331.939H369.698V332.002L369.614 334.987L369.602 334.944ZM369.602 334.944L369.531 331.96L369.602 332.034C367.996 332.034 366.389 332.034 364.771 332.034H360.011L360.154 331.896V334.88L360.023 334.753C362.796 334.753 366.853 334.838 369.674 334.88L369.602 334.944Z" fill="#91D4A4"/>
<path d="M369.602 212.782C366.746 212.782 362.772 212.91 359.951 212.899H359.809V209.713H359.963C362.807 209.713 366.806 209.713 369.614 209.777H369.698V209.841L369.614 212.814L369.602 212.782ZM369.602 212.782L369.531 209.809L369.602 209.872H364.771H360.011L360.154 209.745V212.719L360.023 212.602C362.796 212.602 366.853 212.676 369.674 212.719L369.602 212.782Z" fill="#91D4A4"/>
<path d="M374.993 213.558H365.33V216.531H374.993V213.558Z" fill="#91D4A4"/>
<path d="M159.46 246.936H149.797V249.91H159.46V246.936Z" fill="#91D4A4"/>
</g>
<path d="M105.219 392.016C105.219 392.016 104.22 387.853 102.22 387.205C100.221 386.557 98.9956 388.437 98.9956 388.437C98.9956 388.437 98.5315 384.444 95.6874 383.255C92.8433 382.065 90.7251 384.508 90.7251 384.508C90.7251 384.508 88.5474 379.453 84.6561 379.453C80.7648 379.453 78.8132 386.887 78.8132 386.887C78.8132 386.887 76.5165 384.688 74.1603 385.931C71.8041 387.173 71.7803 392.059 71.7803 392.059L105.219 392.016Z" fill="#37474F"/>
<path d="M437.039 392.016C437.039 392.016 436.04 387.853 434.041 387.205C432.041 386.557 430.828 388.437 430.828 388.437C430.828 388.437 430.352 384.444 427.519 383.255C424.687 382.065 422.557 384.508 422.557 384.508C422.557 384.508 420.379 379.453 416.488 379.453C412.597 379.453 410.633 386.887 410.633 386.887C410.633 386.887 408.349 384.688 405.992 385.931C403.636 387.173 403.612 392.059 403.612 392.059L437.039 392.016Z" fill="#455A64"/>
<path d="M193.613 392.016H158.448C158.448 392.016 159.638 387.598 161.935 387.28C162.637 387.224 163.341 387.361 163.954 387.672C164.566 387.984 165.057 388.454 165.362 389.021C165.362 389.021 165.255 382.851 169.61 381.8C173.966 380.748 177.607 386.196 177.607 386.196C177.607 386.196 180.344 383.095 184.057 383.286C187.77 383.478 188.734 388.596 188.734 388.596C188.734 388.596 192.113 386.844 193.613 392.016Z" fill="#37474F"/>
<path d="M73.9703 392.016H55.4658C55.4658 392.016 55.4658 389.563 57.3222 388.904C57.8169 388.714 58.3675 388.672 58.8912 388.785C59.4148 388.898 59.8832 389.16 60.2258 389.531C60.2258 389.531 60.9636 385.007 64.3551 385.007C67.7466 385.007 69.3769 388.904 69.3769 388.904C69.6646 388.532 70.0681 388.244 70.5375 388.074C71.007 387.904 71.5219 387.86 72.0187 387.949C73.8989 388.172 73.9703 392.016 73.9703 392.016Z" fill="#455A64"/>
<path d="M208.13 392.016H189.626C189.626 392.016 189.626 389.563 191.482 388.904C191.977 388.714 192.528 388.672 193.051 388.785C193.575 388.898 194.043 389.16 194.386 389.531C194.386 389.531 195.136 385.007 198.527 385.007C201.919 385.007 203.489 388.904 203.489 388.904C203.777 388.532 204.181 388.244 204.65 388.074C205.12 387.904 205.634 387.86 206.131 387.949C208.059 388.172 208.13 392.016 208.13 392.016Z" fill="#455A64"/>
<path d="M512.533 392.016H494.028C494.028 392.016 494.028 389.563 495.885 388.904C496.379 388.714 496.93 388.672 497.454 388.785C497.977 388.898 498.446 389.16 498.788 389.531C498.788 389.531 499.526 385.007 502.918 385.007C506.309 385.007 507.939 388.904 507.939 388.904C508.226 388.531 508.629 388.242 509.099 388.072C509.569 387.902 510.084 387.859 510.581 387.949C512.461 388.172 512.533 392.016 512.533 392.016Z" fill="#455A64"/>
<path d="M539.534 392.016H509.022C509.022 392.016 509.094 387.97 512.093 386.887C512.908 386.581 513.813 386.519 514.671 386.711C515.529 386.902 516.294 387.336 516.853 387.949C516.853 387.949 518.043 380.515 523.671 380.515C529.3 380.515 531.93 386.887 531.93 386.887C532.404 386.273 533.069 385.796 533.843 385.514C534.617 385.233 535.466 385.16 536.285 385.304C539.415 385.665 539.534 392.016 539.534 392.016Z" fill="#37474F"/>
<path d="M590.186 395.502C590.686 396.272 638.086 402.872 640.416 402.432C640.529 402.407 640.64 402.37 640.746 402.322C643.666 401.272 657.746 390.572 658.836 389.662C660.836 387.982 649.966 355.962 640.446 336.612C637.266 330.162 631.806 324.452 630.266 322.612C628.726 320.772 599.266 317.372 593.756 319.282C591.406 320.102 585.386 325.192 585.136 326.182C584.856 327.662 589.686 394.722 590.186 395.502Z" fill="#455A64"/>
<path d="M590.185 395.502C590.685 396.272 638.085 402.872 640.415 402.432C640.529 402.407 640.64 402.37 640.745 402.322C637.335 389.562 621.315 329.682 620.745 329.252C620.175 328.822 591.945 326.352 585.145 326.252C584.855 327.662 589.685 394.722 590.185 395.502Z" fill="#263238"/>
<path d="M614.566 323.522C615.076 323.122 615.996 316.682 615.246 315.312C614.406 313.772 603.016 313.432 602.246 314.602C601.476 315.772 600.546 322.202 600.866 322.462C601.186 322.722 603.046 323.132 603.346 322.742C603.646 322.352 604.116 317.002 604.346 316.742C604.576 316.482 612.546 316.742 612.786 317.132C613.026 317.522 611.846 322.912 612.146 323.132C612.446 323.352 614.026 323.912 614.566 323.522Z" fill="#37474F"/>
<path d="M615.795 373.442C615.795 373.442 592.675 489.562 591.025 498.132C590.675 500.072 592.025 604.072 592.025 604.072H549.025C549.025 604.072 544.905 513.232 547.025 496.072C549.145 478.912 575.285 373.412 575.285 373.412L615.795 373.442Z" fill="#F7A9A0"/>
<path opacity="0.1" d="M615.806 373.442C615.806 373.442 604.556 429.962 597.186 467.042L575.186 373.442H615.806Z" fill="black"/>
<path d="M560.655 431.502L606.345 436.992L615.795 373.442H575.235L560.655 431.502Z" fill="#37474F"/>
<path d="M604.636 428.222C599.756 427.222 594.796 426.642 589.856 426.082C584.916 425.522 580.056 425.002 575.156 424.492C572.356 424.212 569.536 423.932 566.726 423.782C566.691 423.782 566.658 423.795 566.634 423.82C566.609 423.844 566.596 423.877 566.596 423.912C566.596 423.946 566.609 423.979 566.634 424.004C566.658 424.028 566.691 424.042 566.726 424.042C571.616 424.952 576.586 425.522 581.516 426.172C586.446 426.822 591.286 427.432 596.186 427.952C598.996 428.252 601.806 428.492 604.626 428.602C604.651 428.602 604.675 428.598 604.699 428.589C604.722 428.58 604.743 428.567 604.762 428.549C604.78 428.532 604.794 428.512 604.804 428.489C604.814 428.466 604.82 428.442 604.821 428.417C604.821 428.392 604.817 428.367 604.808 428.344C604.799 428.32 604.786 428.299 604.769 428.281C604.751 428.263 604.731 428.248 604.708 428.238C604.685 428.228 604.661 428.222 604.636 428.222Z" fill="#263238"/>
<path d="M609.475 377.152C606.089 389.312 602.852 401.522 599.765 413.782C599.325 415.492 598.915 417.222 598.495 418.942C598.022 420.697 597.641 422.476 597.355 424.272C597.355 424.293 597.364 424.313 597.379 424.328C597.394 424.343 597.414 424.352 597.435 424.352C597.457 424.352 597.477 424.343 597.492 424.328C597.507 424.313 597.515 424.293 597.515 424.272C598.567 421.254 599.458 418.183 600.185 415.072C601.005 412.072 601.785 408.992 602.575 405.942C604.145 399.852 605.715 393.752 607.195 387.632C608.035 384.152 608.872 380.662 609.705 377.162C609.745 377.072 609.525 377.002 609.475 377.152Z" fill="#263238"/>
<path d="M517.256 643.972C519.626 644.762 587.386 644.562 589.966 642.972C590.966 642.362 591.496 632.482 591.816 620.542C591.886 617.962 591.936 615.302 591.976 612.592C592.026 609.382 592.076 606.142 592.096 602.992C592.176 588.842 591.666 576.382 591.666 576.382H547.866V602.992V612.592L548.096 620.542C548.096 620.542 522.186 632.222 519.556 634.332C516.926 636.442 514.896 643.192 517.256 643.972Z" fill="#F7A9A0"/>
<path d="M517.255 643.972C519.625 644.762 587.385 644.562 589.965 642.972C590.965 642.362 591.495 632.482 591.815 620.542C591.885 617.962 591.935 615.302 591.975 612.592C592.025 609.382 592.075 606.142 592.095 602.992H547.885V612.592L548.115 620.542C548.115 620.542 522.205 632.222 519.575 634.332C516.945 636.442 514.895 643.192 517.255 643.972Z" fill="#DBDBDB"/>
<path d="M517.026 644.072C518.576 644.582 547.436 644.682 568.446 644.252C573.316 644.142 577.756 644.012 581.346 643.852C586.286 643.632 589.606 643.362 590.146 643.012C591.336 642.252 591.906 627.752 592.146 612.462H547.866L548.096 620.462C548.096 620.462 522.046 632.202 519.396 634.322C516.746 636.442 514.676 643.272 517.026 644.072Z" fill="#91D4A4"/>
<path d="M518.025 641.342C529.455 641.032 575.545 640.842 586.855 641.402C586.945 641.402 586.945 641.472 586.855 641.472C575.545 642.032 529.455 641.842 518.025 641.532C517.775 641.522 517.775 641.352 518.025 641.342Z" fill="#263238"/>
<path d="M546.476 617.932C550.966 617.072 556.476 617.752 559.916 620.932C560.046 621.052 559.866 621.242 559.726 621.202C555.425 619.827 550.99 618.915 546.496 618.482C546.432 618.472 546.372 618.44 546.329 618.391C546.285 618.343 546.26 618.28 546.258 618.215C546.256 618.15 546.276 618.086 546.316 618.034C546.356 617.982 546.412 617.946 546.476 617.932Z" fill="#263238"/>
<path d="M543.235 619.892C547.735 619.042 553.235 619.712 556.675 622.892C556.805 623.022 556.675 623.212 556.485 623.162C552.185 621.789 547.75 620.881 543.255 620.452C543.193 620.437 543.137 620.403 543.097 620.354C543.056 620.304 543.033 620.243 543.03 620.179C543.028 620.115 543.047 620.053 543.084 620.001C543.121 619.949 543.174 619.91 543.235 619.892Z" fill="#263238"/>
<path d="M540.025 621.852C544.515 621.002 550.025 621.682 553.455 624.852C553.585 624.972 553.455 625.162 553.265 625.112C548.961 623.745 544.522 622.843 540.025 622.422C539.959 622.409 539.899 622.374 539.856 622.322C539.813 622.27 539.789 622.204 539.789 622.137C539.789 622.069 539.813 622.004 539.856 621.951C539.899 621.899 539.959 621.864 540.025 621.852Z" fill="#263238"/>
<path d="M536.766 623.822C541.256 622.972 546.766 623.642 550.196 626.822C550.326 626.952 550.196 627.132 550.006 627.092C545.709 625.715 541.277 624.807 536.786 624.382C536.724 624.367 536.668 624.333 536.627 624.284C536.586 624.234 536.563 624.173 536.561 624.109C536.558 624.045 536.577 623.983 536.614 623.931C536.651 623.879 536.705 623.84 536.766 623.822Z" fill="#263238"/>
<path d="M540.176 613.952C543.366 616.412 547.506 617.412 551.226 618.772C551.606 618.922 551.916 618.552 551.926 618.212C551.944 618.21 551.962 618.204 551.977 618.194C551.992 618.184 552.005 618.171 552.015 618.156C552.025 618.141 552.031 618.123 552.033 618.105C552.035 618.087 552.032 618.069 552.026 618.052C550.651 614.075 548.254 610.53 545.076 607.772C543.196 606.202 539.906 605.122 538.146 607.562C536.386 610.002 538.316 612.512 540.176 613.952ZM539.026 610.342C538.216 605.412 543.516 607.982 544.856 609.202C545.714 609.996 546.513 610.851 547.246 611.762C548.745 613.66 550.147 615.632 551.446 617.672C549.656 616.892 547.826 616.272 546.016 615.562C543.856 614.702 539.466 613.072 539.026 610.342Z" fill="#263238"/>
<path d="M567.025 611.162C565.925 608.362 562.475 608.592 560.255 609.642C556.493 611.517 553.289 614.349 550.965 617.852C550.905 617.932 550.965 618.002 551.025 618.042C550.998 618.126 550.991 618.215 551.006 618.302C551.02 618.389 551.055 618.471 551.108 618.542C551.161 618.613 551.23 618.669 551.31 618.708C551.389 618.746 551.477 618.764 551.565 618.762C555.505 618.362 559.755 618.432 563.455 616.842C565.605 615.912 568.025 613.812 567.025 611.162ZM557.415 616.942C555.475 617.182 553.545 617.322 551.625 617.642C553.389 615.99 555.235 614.428 557.155 612.962C558.11 612.263 559.113 611.631 560.155 611.072C561.755 610.232 567.535 609.072 565.515 613.632C564.365 616.152 559.705 616.652 557.405 616.942H557.415Z" fill="#263238"/>
<path opacity="0.1" d="M592.116 616.742C591.826 630.362 591.256 642.322 590.166 643.012C589.626 643.362 586.316 643.622 581.366 643.852C577.776 644.012 573.366 644.152 568.476 644.242C564.556 644.322 560.366 644.392 556.136 644.432L592.116 616.742Z" fill="black"/>
<path d="M603.525 598.672L647.685 598.112C647.685 598.112 639.025 447.402 635.235 416.072C635.235 416.072 642.405 399.072 628.985 373.432H575.195C575.195 373.432 578.795 397.842 584.965 413.322C584.965 413.322 588.965 414.392 596.225 418.402L603.525 598.672Z" fill="#F7A9A0"/>
<path d="M597.025 437.332H639.285L636.025 416.072C636.025 416.072 642.445 394.462 629.905 373.432H575.195C575.195 373.432 577.465 396.332 584.195 413.552L591.025 416.572L597.025 437.332Z" fill="#37474F"/>
<path d="M591.026 416.572C590.966 416.302 590.416 416.312 590.466 416.572C592.696 429.132 596.206 435.212 596.466 435.782C596.466 435.862 596.606 435.862 596.626 435.782C596.846 435.192 592.026 421.792 591.026 416.572Z" fill="#263238"/>
<path d="M582.926 412.672C587.772 414.438 592.456 416.619 596.926 419.192C596.96 419.212 596.985 419.243 596.997 419.281C597.008 419.318 597.006 419.359 596.99 419.394C596.974 419.43 596.945 419.459 596.91 419.475C596.874 419.491 596.833 419.493 596.796 419.482C592.076 417.482 587.266 415.482 582.666 413.232C582.599 413.193 582.549 413.13 582.526 413.057C582.503 412.983 582.508 412.903 582.541 412.833C582.573 412.763 582.631 412.707 582.702 412.678C582.773 412.648 582.853 412.646 582.926 412.672Z" fill="#263238"/>
<path d="M581.426 380.302C581.426 380.142 581.726 380.112 581.726 380.302C581.725 385.565 581.989 390.825 582.516 396.062C582.736 398.492 584.696 411.922 588.906 410.942C589.616 410.782 589.976 410.082 590.086 409.022C590.067 407.631 589.879 406.247 589.526 404.902C589.056 402.092 588.676 399.272 588.436 396.432C587.947 391.146 588.004 385.825 588.606 380.552C588.606 380.514 588.62 380.479 588.647 380.453C588.673 380.426 588.709 380.412 588.746 380.412C588.783 380.412 588.818 380.426 588.845 380.453C588.871 380.479 588.886 380.514 588.886 380.552C588.757 387.883 589.184 395.215 590.166 402.482C590.696 405.972 592.446 411.232 588.796 411.772C585.146 412.312 582.666 403.512 582.216 401.102C581.052 394.232 580.787 387.24 581.426 380.302Z" fill="#263238"/>
<path d="M588.796 411.282C589.184 412.187 589.518 413.116 589.796 414.062C590.062 414.795 590.195 415.571 590.186 416.352C590.18 416.383 590.165 416.412 590.143 416.434C590.12 416.457 590.092 416.473 590.061 416.479C590.03 416.485 589.997 416.482 589.968 416.47C589.939 416.458 589.913 416.438 589.896 416.412C589.446 415.73 589.108 414.98 588.896 414.192C588.576 413.332 588.236 412.472 587.896 411.602C587.853 411.482 587.86 411.351 587.914 411.237C587.969 411.122 588.066 411.034 588.186 410.992C588.305 410.949 588.436 410.956 588.551 411.01C588.665 411.065 588.753 411.162 588.796 411.282Z" fill="#263238"/>
<path d="M628.025 396.732C624.025 396.332 619.945 396.382 616.255 394.602C612.565 392.822 610.115 389.242 608.255 385.672C607.076 383.461 606.185 381.109 605.605 378.672C605.605 378.562 605.405 378.592 605.415 378.672C605.566 380.953 606.114 383.189 607.035 385.282C607.867 387.347 608.927 389.312 610.195 391.142C611.382 392.881 612.935 394.338 614.745 395.412C616.604 396.409 618.645 397.022 620.745 397.212C623.195 397.482 625.666 397.482 628.115 397.212C628.179 397.2 628.235 397.163 628.272 397.11C628.308 397.056 628.322 396.99 628.31 396.927C628.298 396.863 628.262 396.807 628.208 396.77C628.155 396.734 628.089 396.72 628.025 396.732Z" fill="#263238"/>
<path d="M633.486 420.522C632.93 418.577 632.532 416.59 632.296 414.582C632.186 412.582 633.296 410.872 633.846 409.032C636.186 401.872 635.236 394.032 632.686 387.092C631.164 383.133 629.325 379.304 627.186 375.642C627.136 375.542 626.996 375.642 627.046 375.732C630.536 382.532 633.616 389.802 634.296 397.492C634.662 401.189 634.323 404.921 633.296 408.492C632.786 410.182 631.806 411.812 631.666 413.592C631.671 415.475 631.965 417.347 632.536 419.142C633.046 421.362 634.606 428.142 635.286 430.352C635.346 430.542 635.686 430.502 635.656 430.292C635.326 428.312 633.936 422.582 633.486 420.522Z" fill="#263238"/>
<path d="M636.526 431.812C631.526 431.452 626.526 431.452 621.586 431.502C616.646 431.552 611.736 431.622 606.816 431.732C603.996 431.792 601.166 431.852 598.356 432.052C598.166 432.052 598.176 432.302 598.356 432.312C603.356 432.622 608.356 432.582 613.286 432.622C618.216 432.662 623.136 432.622 628.066 432.622C630.896 432.572 633.706 432.462 636.526 432.232C636.581 432.232 636.635 432.209 636.674 432.17C636.713 432.131 636.736 432.077 636.736 432.022C636.736 431.966 636.713 431.913 636.674 431.873C636.635 431.834 636.581 431.812 636.526 431.812Z" fill="#263238"/>
<path d="M572.446 643.652C574.816 644.462 642.566 644.932 645.166 643.322C646.166 642.722 646.796 632.852 647.236 620.912C647.336 618.332 647.416 615.672 647.476 612.962C647.566 609.762 647.636 606.512 647.686 603.362C647.74 594.057 647.071 584.763 645.686 575.562L603.686 576.312L603.446 602.922L603.366 612.522L603.516 620.472C603.516 620.472 577.516 631.902 574.836 633.982C572.156 636.062 570.096 642.852 572.446 643.652Z" fill="#F7A9A0"/>
<path d="M572.446 643.652C574.816 644.462 642.566 644.932 645.166 643.322C646.166 642.722 646.796 632.852 647.236 620.912C647.336 618.332 647.416 615.672 647.476 612.962C647.566 609.762 647.636 606.512 647.686 603.362L603.486 602.922L603.406 612.522L603.556 620.472C603.556 620.472 577.556 631.902 574.876 633.982C572.196 636.062 570.096 642.852 572.446 643.652Z" fill="#DBDBDB"/>
<path d="M572.246 643.752C573.786 644.272 602.636 644.662 623.656 644.432C628.516 644.382 632.966 644.292 636.556 644.172C641.556 643.992 644.826 643.752 645.366 643.422C646.566 642.662 647.276 628.172 647.706 612.892L603.376 612.452L603.526 620.452C603.526 620.452 577.356 631.932 574.686 634.072C572.016 636.212 569.876 642.932 572.246 643.752Z" fill="#91D4A4"/>
<path d="M573.236 641.072C584.666 640.872 630.756 641.142 642.066 641.812C642.156 641.812 642.156 641.882 642.066 641.882C630.746 642.332 584.656 641.682 573.236 641.262C573.026 641.212 573.026 641.072 573.236 641.072Z" fill="#263238"/>
<path d="M601.926 617.892C606.426 617.092 611.926 617.822 615.336 621.042C615.466 621.172 615.286 621.352 615.136 621.312C610.853 619.894 606.431 618.938 601.946 618.462C601.879 618.452 601.817 618.419 601.772 618.368C601.727 618.317 601.701 618.253 601.698 618.185C601.696 618.117 601.717 618.051 601.759 617.997C601.8 617.944 601.859 617.906 601.926 617.892Z" fill="#263238"/>
<path d="M598.666 619.832C603.166 619.022 608.666 619.752 612.076 622.972C612.206 623.102 612.026 623.292 611.886 623.242C607.6 621.824 603.175 620.868 598.686 620.392C598.611 620.394 598.539 620.367 598.485 620.317C598.43 620.266 598.398 620.196 598.396 620.122C598.393 620.047 598.42 619.975 598.471 619.921C598.521 619.866 598.591 619.834 598.666 619.832Z" fill="#263238"/>
<path d="M595.416 621.762C599.916 620.952 605.416 621.682 608.816 624.912C608.946 625.032 608.766 625.222 608.626 625.172C604.34 623.757 599.915 622.805 595.426 622.332C595.359 622.32 595.299 622.286 595.255 622.235C595.211 622.184 595.186 622.118 595.185 622.051C595.183 621.983 595.206 621.917 595.248 621.864C595.291 621.812 595.35 621.775 595.416 621.762Z" fill="#263238"/>
<path d="M592.155 623.692C596.655 622.882 602.155 623.612 605.555 626.842C605.685 626.962 605.555 627.152 605.365 627.102C601.079 625.687 596.654 624.735 592.165 624.262C592.099 624.25 592.038 624.216 591.994 624.165C591.95 624.114 591.925 624.048 591.924 623.981C591.923 623.913 591.945 623.847 591.988 623.794C592.03 623.742 592.089 623.705 592.155 623.692Z" fill="#263238"/>
<path d="M595.666 613.862C598.826 616.352 602.966 617.392 606.666 618.792C607.046 618.942 607.356 618.582 607.376 618.232C607.395 618.232 607.413 618.227 607.43 618.218C607.447 618.209 607.461 618.196 607.471 618.18C607.481 618.164 607.487 618.145 607.488 618.126C607.488 618.107 607.484 618.089 607.476 618.072C606.138 614.084 603.776 610.519 600.626 607.732C598.766 606.142 595.486 605.022 593.696 607.442C591.906 609.862 593.826 612.402 595.666 613.862ZM594.546 610.232C593.796 605.302 599.066 607.922 600.396 609.152C601.242 609.959 602.03 610.825 602.756 611.742C604.236 613.653 605.618 615.639 606.896 617.692C605.116 616.892 603.286 616.252 601.486 615.522C599.336 614.652 594.966 612.952 594.546 610.232Z" fill="#263238"/>
<path d="M622.536 611.332C621.466 608.522 618.006 608.712 615.776 609.742C611.992 611.58 608.759 614.384 606.406 617.872C606.346 617.952 606.406 618.022 606.466 618.052C606.439 618.135 606.432 618.224 606.446 618.311C606.46 618.397 606.495 618.48 606.546 618.551C606.598 618.622 606.665 618.68 606.743 618.72C606.821 618.76 606.908 618.781 606.996 618.782C610.936 618.422 615.196 618.532 618.906 616.982C621.076 616.072 623.536 613.992 622.536 611.332ZM612.866 617.072C610.926 617.292 608.996 617.412 607.066 617.712C608.906 616.132 610.656 614.482 612.646 613.082C613.603 612.395 614.605 611.773 615.646 611.222C617.246 610.402 623.036 609.292 620.986 613.842C619.826 616.302 615.166 616.752 612.866 617.072Z" fill="#263238"/>
<path d="M580.176 296.312C579.786 300.192 579.386 304.082 579.176 307.972C579.036 310.352 579.056 312.702 579.176 315.062C580.002 315.936 580.924 316.715 581.926 317.382C581.926 316.782 581.876 316.182 581.856 315.602C581.746 312.782 581.856 309.992 582.036 307.182C582.036 307.082 582.176 307.112 582.176 307.182C582.106 310.082 582.256 313.002 582.436 315.902C582.436 316.532 582.536 317.162 582.596 317.782C583.556 318.366 584.559 318.878 585.596 319.312C585.536 318.622 585.496 317.932 585.446 317.252C585.326 315.662 585.246 314.062 585.206 312.462C585.132 309.308 585.239 306.153 585.526 303.012C585.526 302.882 585.716 302.922 585.706 303.012C585.626 306.252 585.646 309.512 585.776 312.752C585.846 314.282 585.926 315.822 586.046 317.352C586.106 318.082 586.196 318.822 586.266 319.552C588.158 320.284 590.108 320.856 592.096 321.262C597.766 322.452 603.816 321.662 609.386 320.202C614.28 318.968 618.803 316.566 622.566 313.202C621.014 310.85 619.808 308.287 618.986 305.592C618.991 305.579 619 305.567 619.011 305.56C619.023 305.552 619.037 305.548 619.051 305.548C619.065 305.548 619.078 305.552 619.09 305.56C619.102 305.567 619.11 305.579 619.116 305.592C619.916 307.278 620.779 308.945 621.706 310.592C622.146 311.352 622.626 312.072 623.096 312.812C623.146 312.752 623.206 312.702 623.256 312.652C623.626 312.292 624.006 311.922 624.376 311.512C623.474 309.982 622.659 308.403 621.936 306.782C620.843 304.511 619.953 302.149 619.276 299.722C619.276 299.562 619.436 299.472 619.506 299.622C620.506 301.862 621.506 304.122 622.506 306.342C623.246 307.902 624.076 309.412 624.856 310.952C625.449 310.35 625.914 309.633 626.222 308.846C626.529 308.058 626.674 307.217 626.646 306.372C626.395 304.937 625.883 303.561 625.136 302.312C624.427 300.872 623.793 299.397 623.236 297.892C622.076 294.792 618.566 270.712 610.236 271.352C610.236 271.282 597.236 260.792 589.586 266.922C577.406 276.662 575.416 304.712 575.776 307.862C576.026 310.179 576.924 312.38 578.366 314.212C578.296 312.212 578.366 310.212 578.496 308.282C578.794 304.259 579.294 300.254 579.996 296.282C579.998 296.27 580.002 296.258 580.008 296.248C580.015 296.238 580.023 296.229 580.033 296.222C580.042 296.215 580.053 296.21 580.065 296.208C580.077 296.205 580.089 296.205 580.101 296.207C580.113 296.209 580.124 296.213 580.134 296.219C580.144 296.226 580.153 296.234 580.16 296.244C580.167 296.253 580.172 296.264 580.175 296.276C580.177 296.288 580.178 296.3 580.176 296.312Z" fill="#263238"/>
<path d="M585.626 319.442C576.486 327.662 543.436 361.182 546.216 372.262C548.796 382.562 558.406 384.262 564.686 378.712C573.786 370.612 588.196 339.082 591.826 329.392C595.276 320.172 594.616 311.362 585.626 319.442Z" fill="#F7A9A0"/>
<path d="M582.815 353.522L554.905 343.522C554.905 343.522 578.905 321.442 587.795 316.932C597.795 311.872 598.195 318.092 594.965 328.252C591.735 338.412 582.815 353.522 582.815 353.522Z" fill="#91D4A4"/>
<path d="M560.616 339.962C561.616 340.162 570.376 343.142 572.266 343.832C574.156 344.522 581.896 347.262 583.776 348.142C583.795 348.142 583.813 348.149 583.826 348.162C583.839 348.175 583.846 348.193 583.846 348.212C583.846 348.23 583.839 348.248 583.826 348.261C583.813 348.274 583.795 348.282 583.776 348.282C581.776 347.782 573.956 345.032 572.016 344.372C570.076 343.712 561.486 340.562 560.596 340.092C560.476 340.072 560.546 339.952 560.616 339.962Z" fill="#263238"/>
<path opacity="0.1" d="M594.966 328.242C591.736 338.402 582.816 353.522 582.816 353.522L564.546 346.972L595.026 315.432C597.636 316.662 597.026 321.612 594.966 328.242Z" fill="black"/>
<path d="M634.616 381.892L571.766 381.702L577.766 358.452C577.766 358.452 572.526 351.892 574.246 345.292C576.696 336.072 590.456 318.072 591.626 317.072C596.336 313.072 603.846 312.862 607.186 316.292C627.106 336.742 634.616 381.892 634.616 381.892Z" fill="#91D4A4"/>
<path d="M596.136 353.072C593.196 353.345 590.281 353.839 587.416 354.552C585.996 354.922 584.606 355.362 583.216 355.832C582.526 356.062 581.826 356.272 581.126 356.472C580.397 356.712 579.641 356.86 578.876 356.912C578.806 356.912 578.816 357.022 578.876 357.022C579.6 357.052 580.325 357.032 581.046 356.962C581.741 356.878 582.43 356.744 583.106 356.562C584.546 356.202 585.976 355.772 587.416 355.392C590.316 354.632 593.226 353.862 596.176 353.312C596.208 353.306 596.236 353.289 596.255 353.262C596.274 353.236 596.281 353.203 596.276 353.172C596.271 353.14 596.253 353.111 596.227 353.093C596.2 353.074 596.168 353.066 596.136 353.072Z" fill="#263238"/>
<path d="M603.426 355.622C601 355.384 598.563 355.28 596.126 355.312C594.906 355.312 593.696 355.422 592.486 355.552L590.756 355.752C590.116 355.842 589.496 356.012 588.856 356.082C588.796 356.082 588.796 356.202 588.856 356.192C589.456 356.142 590.066 356.192 590.666 356.192L592.486 356.132C593.706 356.132 594.916 356.072 596.136 356.022C598.566 355.922 600.986 355.852 603.416 355.842C603.556 355.822 603.546 355.632 603.426 355.622Z" fill="#263238"/>
<path d="M606.216 324.482C609.636 336.292 628.126 381.882 638.376 384.102C648.626 386.322 656.816 384.232 656.636 375.822C656.446 366.672 625.016 330.712 617.876 323.232C611.076 316.072 602.856 312.882 606.216 324.482Z" fill="#F7A9A0"/>
<path d="M613.236 354.002L642.076 347.132C642.076 347.132 620.656 322.542 612.326 317.072C602.936 310.932 601.846 317.072 603.946 327.532C606.046 337.992 613.236 354.002 613.236 354.002Z" fill="#91D4A4"/>
<path d="M636.776 342.762C635.776 342.842 626.726 344.852 624.776 345.322C622.826 345.792 614.836 347.672 612.856 348.322C612.838 348.322 612.82 348.329 612.807 348.342C612.794 348.355 612.786 348.373 612.786 348.392C612.786 348.41 612.794 348.428 612.807 348.441C612.82 348.454 612.838 348.462 612.856 348.462C614.856 348.182 622.976 346.322 624.976 345.872C626.976 345.422 635.856 343.252 636.806 342.872C636.906 342.862 636.846 342.762 636.776 342.762Z" fill="#263238"/>
<path d="M615.826 353.382C614.936 353.702 614.026 353.972 613.126 354.262L613.026 354.072C609.672 347.769 607.186 341.041 605.636 334.072L609.586 343.962C610.726 346.892 612.356 350.962 613.426 353.892L613.176 353.772C614.056 353.632 614.926 353.472 615.816 353.362L615.826 353.382Z" fill="#263238"/>
<path d="M604.905 336.292C606.095 337.366 607.031 338.691 607.645 340.172C606.942 339.753 606.334 339.192 605.862 338.523C605.39 337.855 605.064 337.094 604.905 336.292Z" fill="#263238"/>
<path d="M605.766 316.662C605.356 317.812 598.946 324.802 593.626 323.962C591.886 323.692 592.966 314.162 592.966 314.162L592.886 313.442L591.746 303.342L604.146 297.172L605.926 296.372C605.926 296.372 606.046 299.152 606.176 302.622C606.176 302.782 606.176 302.942 606.176 303.112C606.176 303.282 606.176 303.492 606.176 303.682C606.176 304.192 606.226 304.682 606.246 305.252C606.266 305.822 606.246 306.042 606.246 306.462C606.246 306.882 606.246 307.302 606.246 307.722C606.288 310.709 606.128 313.696 605.766 316.662Z" fill="#F7A9A0"/>
<path d="M606.176 302.622C604.879 305.282 603.019 307.628 600.724 309.496C598.429 311.365 595.754 312.711 592.886 313.442L591.746 303.342L604.146 297.172L605.926 296.372C605.926 296.372 606.026 299.152 606.176 302.622Z" fill="#263238"/>
<path d="M579.926 286.292C576.606 303.822 586.726 307.782 590.506 308.502C593.946 309.142 605.706 310.912 610.826 293.822C615.946 276.732 608.826 269.642 601.066 267.752C593.306 265.862 583.246 268.762 579.926 286.292Z" fill="#F7A9A0"/>
<path d="M585.816 283.512C586.236 283.512 586.626 283.452 587.046 283.412C587.482 283.436 587.914 283.316 588.276 283.072C588.375 282.972 588.438 282.843 588.456 282.703C588.474 282.564 588.446 282.423 588.376 282.302C588.201 282.083 587.97 281.916 587.708 281.817C587.445 281.719 587.162 281.693 586.886 281.742C586.311 281.747 585.76 281.973 585.346 282.372C585.254 282.465 585.191 282.584 585.166 282.713C585.141 282.842 585.154 282.976 585.204 283.097C585.254 283.219 585.339 283.323 585.448 283.396C585.556 283.47 585.684 283.51 585.816 283.512Z" fill="#263238"/>
<path d="M598.205 285.712C597.814 285.588 597.43 285.441 597.055 285.272C596.627 285.171 596.244 284.932 595.965 284.592C595.9 284.469 595.877 284.329 595.898 284.192C595.92 284.054 595.986 283.928 596.085 283.832C596.315 283.67 596.584 283.574 596.864 283.553C597.144 283.532 597.424 283.587 597.675 283.712C598.217 283.878 598.682 284.233 598.985 284.712C599.056 284.829 599.089 284.966 599.08 285.103C599.072 285.239 599.022 285.371 598.938 285.479C598.854 285.587 598.738 285.667 598.608 285.709C598.477 285.75 598.337 285.751 598.205 285.712Z" fill="#263238"/>
<path d="M594.935 289.532C594.935 289.532 595.025 289.612 595.015 289.652C594.795 290.852 594.745 292.262 595.765 292.822C595.765 292.822 595.765 292.902 595.765 292.882C594.455 292.502 594.535 290.632 594.935 289.532Z" fill="#263238"/>
<path d="M596.196 288.442C598.196 288.592 597.716 292.442 595.906 292.352C594.096 292.262 594.566 288.322 596.196 288.442Z" fill="#263238"/>
<path d="M596.946 288.732C597.256 288.992 597.546 289.422 597.946 289.512C598.346 289.602 598.816 289.242 599.176 288.882H599.236C599.166 289.632 598.786 290.362 597.976 290.392C597.166 290.422 596.786 289.692 596.686 288.912C596.676 288.822 596.816 288.632 596.946 288.732Z" fill="#263238"/>
<path d="M587.586 288.222C587.586 288.172 587.486 288.222 587.486 288.312C587.396 289.532 587.096 290.902 585.956 291.192V291.262C587.316 291.212 587.706 289.382 587.586 288.222Z" fill="#263238"/>
<path d="M586.646 286.842C584.716 286.492 584.156 290.382 585.946 290.702C587.736 291.022 588.256 287.142 586.646 286.842Z" fill="#263238"/>
<path d="M585.795 286.982C585.455 287.142 585.105 287.472 584.735 287.452C584.365 287.432 584.045 286.952 583.835 286.512C583.835 286.512 583.775 286.512 583.765 286.512C583.645 287.252 583.765 288.062 584.465 288.302C585.165 288.542 585.665 287.962 585.955 287.242C586.025 287.142 585.935 286.922 585.795 286.982Z" fill="#263238"/>
<path d="M592.955 299.262C592.645 299.522 592.335 299.892 591.895 299.902C591.443 299.862 591.004 299.73 590.605 299.512C590.605 299.512 590.535 299.512 590.555 299.572C590.713 299.82 590.934 300.022 591.196 300.156C591.458 300.29 591.752 300.35 592.045 300.332C592.291 300.279 592.516 300.157 592.693 299.98C592.871 299.802 592.993 299.577 593.045 299.332C593.095 299.252 593.025 299.222 592.955 299.262Z" fill="#263238"/>
<path d="M588.486 293.842C588.486 293.842 587.966 295.842 587.856 296.742C588.667 296.924 589.508 296.92 590.318 296.73C591.127 296.539 591.882 296.167 592.526 295.642C592.596 295.572 592.526 295.462 592.416 295.502C591.26 296.144 589.924 296.387 588.616 296.192C588.616 295.952 589.506 293.102 589.376 293.072C588.703 293.054 588.031 293.121 587.376 293.272C588.256 289.562 589.716 286.012 590.536 282.272C590.539 282.245 590.533 282.217 590.519 282.194C590.505 282.171 590.483 282.153 590.458 282.144C590.432 282.134 590.404 282.134 590.378 282.143C590.353 282.151 590.331 282.169 590.316 282.192C588.634 285.943 587.327 289.852 586.416 293.862C586.296 294.372 588.126 293.942 588.486 293.842Z" fill="#263238"/>
<path d="M588.586 296.582C589.023 297.319 589.639 297.935 590.376 298.372C590.782 298.591 591.247 298.679 591.706 298.622C592.706 298.492 592.856 297.622 592.776 296.812C592.732 296.391 592.634 295.978 592.486 295.582C591.326 296.323 589.959 296.674 588.586 296.582Z" fill="#263238"/>
<path d="M590.376 298.372C590.782 298.591 591.247 298.679 591.706 298.622C592.706 298.492 592.856 297.622 592.776 296.812C592.258 296.76 591.738 296.887 591.302 297.17C590.866 297.454 590.539 297.878 590.376 298.372Z" fill="#FF98B9"/>
<path d="M609.616 292.762C607.756 292.422 603.496 286.652 604.456 277.552C604.456 277.552 604.156 285.782 604.626 287.052C605.096 288.322 602.246 283.802 602.916 276.462C600.407 277.842 597.713 278.852 594.916 279.462C591.336 280.002 589.226 279.712 589.006 279.462C588.786 279.212 594.076 278.202 595.646 276.792C595.646 276.792 585.926 279.932 581.646 279.732C581.156 279.732 581.806 269.562 588.886 266.082C595.966 262.602 605.776 268.512 608.236 271.542C608.236 271.542 611.456 272.412 614.416 277.702C617.376 282.992 611.626 293.132 609.616 292.762Z" fill="#263238"/>
<path d="M602.845 275.492C602.905 275.302 603.215 275.342 603.165 275.552C602.522 278.829 602.57 282.204 603.305 285.462C603.305 285.462 603.235 285.522 603.225 285.462C602.255 282.072 601.795 278.902 602.845 275.492Z" fill="#263238"/>
<path d="M590.276 280.072C595.276 280.072 599.696 279.072 603.466 275.622C603.546 275.552 603.676 275.622 603.596 275.742C600.376 279.602 595.086 280.742 590.266 280.262C590.166 280.292 590.166 280.072 590.276 280.072Z" fill="#263238"/>
<path d="M606.776 294.072C606.776 294.072 611.206 288.922 613.586 290.552C615.966 292.182 612.236 299.922 609.166 300.722C608.781 300.854 608.374 300.907 607.969 300.878C607.563 300.848 607.168 300.737 606.807 300.549C606.446 300.362 606.127 300.104 605.868 299.79C605.61 299.476 605.419 299.112 605.306 298.722L606.776 294.072Z" fill="#F7A9A0"/>
<path d="M612.456 292.772V292.852C610.306 293.482 609.016 295.292 608.056 297.202C608.197 297.008 608.379 296.848 608.589 296.731C608.798 296.614 609.031 296.544 609.27 296.525C609.509 296.506 609.749 296.539 609.975 296.621C610.2 296.703 610.405 296.833 610.576 297.002C610.626 297.002 610.576 297.122 610.516 297.112C610.163 296.956 609.771 296.915 609.395 296.994C609.018 297.073 608.676 297.268 608.416 297.552C607.985 298.026 607.603 298.542 607.276 299.092C607.166 299.272 606.836 299.092 606.926 298.932C607.176 296.242 609.596 292.752 612.456 292.772Z" fill="#263238"/>
<path d="M606.176 314.642C600.936 319.092 609.366 358.642 614.556 368.562C617.206 373.562 636.556 391.712 636.866 391.562C637.176 391.412 637.056 386.182 636.206 384.912C635.356 383.642 623.086 367.852 620.516 362.912C616.026 354.312 608.866 324.072 610.226 315.432C610.296 315.002 606.746 314.152 606.176 314.642Z" fill="#263238"/>
<path d="M655.025 376.332C658.245 384.062 648.185 387.392 642.595 385.612C629.465 381.462 608.665 368.862 600.095 359.922C597.335 357.042 616.535 336.842 620.355 338.752C624.335 340.762 648.475 360.662 655.025 376.332Z" fill="#F7A9A0"/>
<path d="M600.936 319.072C600.092 319.493 599.397 320.162 598.945 320.99C598.492 321.818 598.304 322.764 598.406 323.702C596.819 323.495 595.21 323.849 593.856 324.702C591.546 326.322 593.066 330.652 593.066 330.652C591.374 330.779 589.761 331.413 588.436 332.472C586.386 334.242 587.296 338.842 587.296 338.842C585.793 339.833 584.702 341.336 584.226 343.072C583.106 347.692 588.136 353.072 591.686 356.012C595.926 359.552 608.006 366.592 610.196 368.062L630.546 347.072C630.546 347.072 620.466 328.072 616.156 324.652C612.516 321.842 604.216 317.602 600.936 319.072Z" fill="#F7A9A0"/>
<path d="M598.576 323.692C603.166 325.802 606.886 329.152 610.786 332.282C610.799 332.287 610.811 332.295 610.82 332.306C610.83 332.317 610.837 332.329 610.84 332.343C610.844 332.357 610.844 332.372 610.84 332.386C610.837 332.4 610.831 332.413 610.821 332.424C610.812 332.435 610.8 332.443 610.787 332.449C610.774 332.454 610.76 332.456 610.745 332.455C610.731 332.454 610.717 332.449 610.705 332.442C610.693 332.434 610.683 332.424 610.676 332.412C606.836 329.252 602.416 326.902 598.446 323.902C598.428 323.881 598.417 323.855 598.415 323.827C598.413 323.8 598.42 323.773 598.435 323.75C598.449 323.726 598.47 323.708 598.496 323.698C598.521 323.687 598.549 323.685 598.576 323.692Z" fill="#263238"/>
<path d="M593.416 330.472C594.413 331.053 595.331 331.763 596.146 332.582C597.056 333.392 597.956 334.222 598.836 335.062C600.616 336.742 602.346 338.465 604.026 340.232C604.106 340.312 604.026 340.452 603.916 340.372C602.146 338.692 600.356 337.052 598.516 335.452C597.596 334.652 596.666 333.862 595.736 333.072C594.81 332.385 593.962 331.6 593.206 330.732C593.188 330.7 593.18 330.664 593.183 330.628C593.186 330.593 593.2 330.559 593.223 330.531C593.245 330.503 593.276 330.482 593.31 330.472C593.344 330.461 593.381 330.461 593.416 330.472Z" fill="#263238"/>
<path d="M587.366 338.922C588.259 339.452 589.057 340.128 589.726 340.922L592.116 343.262C593.716 344.812 595.316 346.352 596.966 347.842C597.046 347.922 596.966 348.052 596.856 347.982C595.166 346.472 593.466 344.982 591.786 343.472C590.966 342.722 590.146 341.972 589.336 341.212C588.527 340.59 587.834 339.832 587.286 338.972C587.287 338.963 587.29 338.954 587.295 338.946C587.3 338.938 587.306 338.932 587.314 338.927C587.322 338.922 587.33 338.919 587.339 338.918C587.348 338.917 587.358 338.919 587.366 338.922Z" fill="#263238"/>
<path d="M650.726 368.762C645.936 362.692 641.096 356.222 635.326 351.072C641.836 355.522 646.736 362.072 650.726 368.762Z" fill="#263238"/>
<path d="M607.895 320.072C603.975 318.222 598.055 318.072 598.555 323.892C596.815 323.792 594.625 324.002 593.555 325.472C592.485 326.942 593.035 329.302 593.555 331.022H593.075C587.895 331.382 587.075 334.622 587.885 339.162C587.137 339.548 586.475 340.083 585.939 340.732C585.402 341.382 585.003 342.134 584.765 342.942C582.885 352.382 601.215 362.252 608.065 366.732C601.985 363.707 596.229 360.072 590.885 355.882C585.935 351.882 579.425 343.282 587.175 338.492L586.915 339.002C586.488 336.947 586.701 334.811 587.525 332.882C588.715 330.972 590.985 330.412 593.065 330.302L592.725 330.782C592.447 329.856 592.296 328.898 592.275 327.932C592.075 324.312 595.365 323.172 598.425 323.572L598.275 323.722C598.025 317.772 603.915 318.052 607.895 320.042V320.072Z" fill="#263238"/>
<path d="M627.566 376.492L620.596 330.022L613.546 330.892L620.506 377.362L627.566 376.492Z" fill="#37474F"/>
<path d="M620.506 377.362L613.546 330.892L595.136 333.172L602.106 379.642L620.506 377.362Z" fill="#455A64"/>
<path d="M626.825 371.562L626.175 367.232L619.115 368.102L619.765 372.432L626.825 371.562Z" fill="#455A64"/>
<path d="M625.755 364.382L625.495 362.712L618.445 363.582L618.695 365.262L625.755 364.382Z" fill="#455A64"/>
<path d="M617.016 378.912L609.526 328.982L600.706 330.072L608.196 380.012L617.016 378.912Z" fill="#C7C7C7"/>
<path d="M610.726 336.942L609.996 332.092L601.176 333.182L601.906 338.042L610.726 336.942Z" fill="#91D4A4"/>
<path d="M611.296 340.772L610.996 338.742L602.176 339.842L602.476 341.862L611.296 340.772Z" fill="#91D4A4"/>
<path d="M616.106 372.842L615.376 367.982L606.556 369.082L607.286 373.932L616.106 372.842Z" fill="#91D4A4"/>
<path d="M591.526 382.122L608.196 380.052L600.706 330.072L584.036 332.142L591.526 382.122Z" fill="#EBEBEB"/>
<path d="M606.395 379.492L599.485 333.392L592.155 334.302L599.065 380.402L606.395 379.492Z" fill="#455A64"/>
<path d="M599.065 380.402L592.155 334.302L573.565 336.602L580.475 382.702L599.065 380.402Z" fill="#37474F"/>
<path d="M605.636 379.582L598.726 333.482L592.916 334.202L599.826 380.302L605.636 379.582Z" fill="white"/>
<path d="M594.556 337.072C596.966 350.932 599.256 366.232 601.016 380.182C598.606 366.332 596.316 351.032 594.556 337.072Z" fill="#DBDBDB"/>
<path d="M595.695 336.902C598.105 350.762 600.395 366.062 602.155 380.012C599.745 366.162 597.455 350.852 595.695 336.902Z" fill="#DBDBDB"/>
<path d="M596.836 336.762C599.246 350.622 601.536 365.922 603.296 379.872C600.886 366.012 598.596 350.712 596.836 336.762Z" fill="#DBDBDB"/>
<path d="M598.025 336.622C600.435 350.472 602.725 365.782 604.485 379.732C602.075 365.872 599.785 350.572 598.025 336.622Z" fill="#DBDBDB"/>
<path d="M550.686 379.562C543.576 374.872 550.166 365.362 555.896 363.772C569.346 360.022 591.636 360.472 603.956 363.242C607.956 364.132 608.016 389.992 603.706 390.502C599.186 391.072 565.106 389.072 550.686 379.562Z" fill="#F7A9A0"/>
<path d="M628.686 358.192C629.074 359.011 629.202 359.93 629.052 360.824C628.901 361.718 628.48 362.544 627.846 363.192C629.169 363.974 630.177 365.194 630.696 366.642C631.496 369.242 627.766 371.642 627.766 371.642C628.969 372.741 629.816 374.176 630.196 375.762C630.696 378.332 627.286 381.262 627.286 381.262C627.843 382.891 627.789 384.668 627.135 386.262C625.235 390.432 618.256 391.502 613.816 391.632C608.496 391.802 595.186 389.972 592.646 389.772L589.646 361.882C589.646 361.882 608.566 353.452 613.836 353.452C618.286 353.392 627.086 355.072 628.686 358.192Z" fill="#F7A9A0"/>
<path d="M627.735 363.072C623.015 361.942 618.205 362.272 613.395 362.332C613.295 362.332 613.295 362.492 613.395 362.492C618.175 362.382 622.925 363.222 627.705 363.302C627.732 363.298 627.756 363.286 627.775 363.267C627.793 363.249 627.805 363.224 627.809 363.198C627.812 363.172 627.807 363.145 627.794 363.122C627.78 363.1 627.76 363.082 627.735 363.072Z" fill="#263238"/>
<path d="M627.616 371.262C626.517 371.117 625.404 371.117 624.306 371.262C623.136 371.332 621.966 371.432 620.796 371.542C618.456 371.762 616.126 372.032 613.796 372.382C613.696 372.382 613.696 372.552 613.796 372.542C616.126 372.332 618.456 372.142 620.796 372.032C621.966 371.972 623.136 371.922 624.316 371.882C625.422 371.912 626.529 371.822 627.616 371.612C627.662 371.612 627.707 371.593 627.739 371.56C627.772 371.528 627.791 371.483 627.791 371.437C627.791 371.39 627.772 371.346 627.739 371.313C627.707 371.28 627.662 371.262 627.616 371.262Z" fill="#263238"/>
<path d="M627.186 381.252C626.185 381.126 625.17 381.173 624.186 381.392L620.986 381.742C618.856 381.962 616.726 382.182 614.596 382.332C614.578 382.338 614.563 382.349 614.552 382.364C614.541 382.38 614.535 382.398 614.535 382.417C614.535 382.435 614.541 382.454 614.552 382.469C614.563 382.484 614.578 382.495 614.596 382.502C616.766 382.362 618.936 382.252 621.106 382.092L624.306 381.842C625.284 381.852 626.256 381.686 627.176 381.352C627.189 381.353 627.202 381.349 627.212 381.341C627.223 381.332 627.229 381.32 627.231 381.307C627.232 381.293 627.228 381.28 627.219 381.27C627.211 381.259 627.199 381.253 627.186 381.252Z" fill="#263238"/>
<path d="M552.626 365.452C558.176 361.992 564.976 361.742 571.316 361.202C577.656 360.662 584.196 360.732 590.636 360.942C596.636 358.162 604.806 354.412 612.086 353.022C614.049 352.901 616.019 353.063 617.936 353.502C621.686 354.292 625.936 354.912 628.706 357.782C629.349 358.631 629.638 359.696 629.511 360.754C629.384 361.812 628.852 362.779 628.026 363.452V362.902C630.606 364.102 632.296 367.772 630.026 370.042C629.409 370.74 628.679 371.328 627.866 371.782V371.492C630.256 373.972 631.376 376.882 628.726 379.682C631.246 376.772 629.946 373.942 627.446 371.592C628.28 371.111 629.025 370.488 629.646 369.752C631.726 367.452 629.716 364.182 627.216 363.252L627.646 362.922C633.276 356.212 617.646 354.182 613.536 353.852C609.336 354.102 605.346 355.952 601.346 357.352C597.716 358.712 594.146 360.352 590.576 361.832C584.166 361.622 577.726 361.552 571.316 361.832C564.906 362.112 558.316 362.282 552.596 365.462L552.626 365.452Z" fill="#263238"/>
</svg>
