<svg width="1440" height="1024" viewBox="0 0 1440 1024" fill="none" xmlns="http://www.w3.org/2000/svg">
<path d="M122.514 480.311C134.081 357.738 42.991 274.365 -4 248L-0.837145 1029H648L648 941.77C613.66 671.674 476.754 717.142 412.593 773.638C367.56 806.632 259.059 866.292 185.319 840.982C93.1448 809.344 108.055 633.528 122.514 480.311Z" fill="#B5D6C1" fill-opacity="0.18"/>
<path d="M1359.5 323.76C1314.5 449.5 1606.12 397.192 1668.12 401.608L1288.57 -406.458L607.729 -90.0601L662.705 35.2535C828.855 298.498 940.614 246.611 980.722 156.758C1012.08 100.596 1057.51 26.9099 1147.08 17.1889C1259.04 5.03774 1427.52 133.694 1359.5 323.76Z" fill="#B5D6C1" fill-opacity="0.18"/>
<g opacity="0.65">
<path d="M1754 1112C1754 1311.93 1591.93 1474 1392 1474C1192.07 1474 1030 1311.93 1030 1112C1030 912.073 1192.07 750 1392 750C1591.93 750 1754 912.073 1754 1112Z" fill="#E9EFEB"/>
<circle cx="1392" cy="1134" r="286" fill="#E5E5E5"/>
<circle cx="1392" cy="1134" r="219" fill="#E2E2E2"/>
</g>
</svg>
